<?xml version="1.0" encoding="UTF-8"?>
<svg id="Bibliografie" xmlns="http://www.w3.org/2000/svg" viewBox="0 0 37.91 37.07">
  <defs>
    <style>
      .cls-1-biblio {
        fill: currentColor;
        stroke-width: 0px;
      }
    </style>
  </defs>
  <g>
    <path class="cls-1-biblio" d="M34.51,23.89c-1.14-1.95-3.21-3.15-5.48-3.15-1.04,0-2.07.26-2.99.74l.31.59c.82-.43,1.74-.66,2.67-.66,2.14,0,4.08,1.18,5.06,3.09.37.71.57,1.48.62,2.28.08,1.53-.45,3.01-1.5,4.16-1.05,1.14-2.47,1.8-4,1.84-.2,0-.4,0-.6-.01-.46-.03-.88.2-1.09.61-.97,1.87-2.87,3.04-4.98,3.04h-.12c-1.6,0-2.92-1.19-3.13-2.74.01-.14.02-.28.02-.42v-6.82c.62.79,1.58,1.31,2.66,1.31,1.51,0,2.73,1.23,2.73,2.73h.67c0-1.87-1.51-3.39-3.38-3.4-1.32,0-2.43-.95-2.68-2.2v-7.76c1.69-.19,3-1.62,3.01-3.36h0c0-1.51,1.23-2.73,2.73-2.73v-.67c-1.87,0-3.39,1.51-3.4,3.38,0,1.38-1.02,2.52-2.35,2.7V3.82c0-.14,0-.28-.02-.42.21-1.54,1.53-2.74,3.13-2.74h.12c2.45,0,4.65,1.64,5.36,3.98.14.48.57.8,1.07.8h.07c3.13,0,5.68,2.55,5.68,5.68,0,.87-.19,1.7-.57,2.47-.96,1.98-2.92,3.21-5.12,3.21-.96,0-1.9-.24-2.73-.7l-.32.58c.93.51,1.98.78,3.05.78,2.3,0,4.44-1.27,5.55-3.27,1.65,1.04,2.66,2.85,2.66,4.82s-1.04,3.83-2.73,4.86M15.49,36.4h-.12c-2.11,0-4.01-1.16-4.98-3.04-.21-.4-.64-.64-1.09-.61-.2.02-.4.02-.6.01-1.53-.05-2.95-.7-4-1.84-1.05-1.14-1.59-2.62-1.5-4.16.04-.8.25-1.57.62-2.28.98-1.91,2.92-3.09,5.06-3.09.93,0,1.85.23,2.67.66l.31-.59c-.91-.49-1.94-.74-2.98-.74-2.27,0-4.34,1.2-5.49,3.15-1.69-1.03-2.73-2.86-2.73-4.86s1.01-3.78,2.66-4.82c1.11,1.99,3.25,3.27,5.55,3.27,1.07,0,2.12-.27,3.05-.78l-.32-.58c-.83.46-1.77.7-2.73.7-2.2,0-4.16-1.23-5.12-3.21-.38-.77-.57-1.61-.57-2.47,0-3.13,2.55-5.68,5.69-5.68h.07c.5,0,.93-.32,1.07-.8.71-2.34,2.91-3.98,5.36-3.98h.12c1.6,0,2.92,1.19,3.13,2.73-.02.14-.02.28-.02.42v7.91c-.62-.83-1.6-1.37-2.71-1.38h0c-1.51,0-2.73-1.23-2.73-2.73h-.67c0,1.87,1.51,3.39,3.38,3.4,1.51,0,2.73,1.23,2.73,2.73v6.58c-1.68.19-2.99,1.62-3,3.35,0,1.51-1.23,2.73-2.73,2.73v.66c1.87,0,3.39-1.51,3.4-3.38,0-1.37,1.02-2.51,2.34-2.7v12.24c0,.14,0,.28.02.42-.21,1.54-1.53,2.74-3.13,2.74M34.88,13.61c.34-.78.51-1.62.51-2.48,0-3.5-2.85-6.35-6.35-6.35h-.06c-.2,0-.38-.13-.44-.33-.79-2.62-3.26-4.45-6-4.45h-.12c-1.53,0-2.85.9-3.46,2.21-.61-1.3-1.93-2.21-3.46-2.21h-.12c-2.74,0-5.2,1.83-6,4.45-.06.2-.24.33-.44.33h-.06c-3.5,0-6.35,2.85-6.35,6.35,0,.87.17,1.7.51,2.48-1.88,1.15-3.03,3.2-3.03,5.42s1.18,4.3,3.09,5.45c-.32.71-.51,1.47-.55,2.26-.09,1.72.5,3.37,1.68,4.64,1.17,1.27,2.76,2,4.47,2.06.22,0,.45,0,.67-.01.19-.01.37.08.45.25,1.08,2.09,3.21,3.4,5.57,3.4h.12c1.53,0,2.85-.91,3.46-2.21.61,1.3,1.93,2.21,3.46,2.21h.12c2.36,0,4.49-1.3,5.57-3.4.09-.16.26-.26.45-.25.22.02.45.02.67.01,1.71-.05,3.3-.78,4.47-2.06,1.18-1.28,1.77-2.93,1.68-4.64-.04-.79-.23-1.55-.55-2.26,1.91-1.15,3.09-3.2,3.09-5.45s-1.15-4.26-3.03-5.42"/>
  </g>
</svg>
