<?xml version="1.0" encoding="UTF-8"?>
<svg id="filter" xmlns="http://www.w3.org/2000/svg" stroke-width="0px" fill="currentColor" viewBox="0 0 23.76 18.79">
    <g id="filter-icon">
        <path d="M23.76,13.75h-11.57c-.25-2.27-2.16-4.04-4.49-4.04s-4.24,1.77-4.49,4.04H0v1h3.2c.25,2.27,2.16,4.04,4.49,4.04s4.24-1.77,4.49-4.04h11.57v-1ZM7.69,17.79c-1.95,0-3.54-1.59-3.54-3.54s1.59-3.54,3.54-3.54,3.54,1.59,3.54,3.54-1.59,3.54-3.54,3.54Z"/>
        <path d="M23.76,4.04h-3.24c-.25-2.27-2.16-4.04-4.49-4.04s-4.24,1.77-4.49,4.04H0v1h11.54c.25,2.27,2.16,4.04,4.49,4.04s4.24-1.77,4.49-4.04h3.24v-1ZM16.03,8.08c-1.95,0-3.54-1.59-3.54-3.54s1.59-3.54,3.54-3.54,3.54,1.59,3.54,3.54-1.59,3.54-3.54,3.54Z"/>
    </g>
</svg>
