<svg>
    <symbol id="share" stroke="currentColor" fill="#fff" xmlns="http://www.w3.org/2000/svg"
            xmlns:xlink="http://www.w3.org/1999/xlink"
            viewBox="0 0 21.8 23.36">
        <defs>
            <style>
                .cls-1{clip-path:url(#clippath);}.cls-2,.cls-3{stroke-width:0px;}.cls-2,.cls-4{fill:none;}.cls-3{fill:#fff;}.cls-4{stroke:#000;stroke-width:.98px;}
            </style>
            <clipPath id="clippath">
                <rect class="cls-2" width="21.8" height="23.35"/>
            </clipPath>
        </defs>
        <g id="Ebene_1-2">
            <line class="cls-4" x1="6.05" y1="11.17" x2="15.98" y2="5.4"/>
            <line class="cls-4" x1="6.05" y1="12.85" x2="15.98" y2="18.62"/>
            <g class="cls-1">
                <path class="cls-3"
                      d="M4.18,15.33c2.04,0,3.69-1.65,3.69-3.69s-1.65-3.69-3.69-3.69S.49,9.6.49,11.64s1.65,3.69,3.69,3.69"/>
                <circle class="cls-4" cx="4.18" cy="11.64" r="3.69"/>
                <path class="cls-3"
                      d="M17.61,7.87c2.04,0,3.69-1.65,3.69-3.69s-1.65-3.69-3.69-3.69-3.69,1.65-3.69,3.69,1.65,3.69,3.69,3.69"/>
                <circle class="cls-4" cx="17.61" cy="4.18" r="3.69"/>
                <path class="cls-3"
                      d="M17.61,22.86c2.04,0,3.69-1.65,3.69-3.69s-1.65-3.69-3.69-3.69-3.69,1.65-3.69,3.69,1.65,3.69,3.69,3.69"/>
                <circle class="cls-4" cx="17.61" cy="19.17" r="3.69"/>
            </g>
        </g>
    </symbol>
    <symbol id="printer" xmlns="http://www.w3.org/2000/svg" xmlns:xlink="http://www.w3.org/1999/xlink"
            viewBox="0 0 25.01 23.29">
        <defs>
            <style>.cls-1{clip-path:url(#clippath);}.cls-2{fill:none;}.cls-2,.cls-3{stroke-width:0px;}.cls-3{fill:#000;}
            </style>
            <clipPath id="clippath">
                <rect class="cls-2" width="25.01" height="23.29"/>
            </clipPath>
        </defs>
        <g id="Ebene_1-2">
            <rect class="cls-3" x="6.04" y="17.25" width="12.94" height=".86"/>
            <rect class="cls-3" x="6.04" y="19.84" width="12.94" height=".86"/>
            <g class="cls-1">
                <path class="cls-3"
                      d="M24.15,18.11c0,.95-.78,1.73-1.73,1.73h-1.73v-5.18H4.31v5.18h-1.72c-.95,0-1.73-.78-1.73-1.73v-7.76c0-.95.78-1.73,1.73-1.73h19.84c.95,0,1.73.78,1.73,1.73v7.76ZM19.84,21.56c0,.43-.35.86-.86.86H6.04c-.43,0-.86-.35-.86-.86v-6.04h14.66v6.04ZM5.18,1.73c0-.43.34-.86.86-.86h12.94c.43,0,.86.34.86.86v6.04H5.18V1.73ZM22.43,7.76h-1.73V1.73C20.7.78,19.93,0,18.98,0H6.04C5.09,0,4.31.78,4.31,1.73v6.04h-1.72c-1.47,0-2.59,1.12-2.59,2.59v7.76c0,1.47,1.12,2.59,2.59,2.59h1.72v.86c0,.95.78,1.73,1.73,1.73h12.94c.95,0,1.73-.78,1.73-1.73v-.86h1.73c1.47,0,2.59-1.12,2.59-2.59v-7.76c0-1.47-1.12-2.59-2.59-2.59"/>
                <path class="cls-3" d="M19.84,10.35c.48,0,.86.39.86.86s-.39.86-.86.86-.86-.39-.86-.86.39-.86.86-.86"/>
            </g>
        </g>
    </symbol>
    <symbol id="xmlicon" xmlns="http://www.w3.org/2000/svg" xmlns:xlink="http://www.w3.org/1999/xlink"
            viewBox="0 0 25.22 22.7">
        <defs>
            <style>.cls-1{clip-path:url(#clippath);}.cls-2{fill:none;}.cls-2,.cls-3{stroke-width:0px;}.cls-3{fill:#000;}
            </style>
            <clipPath id="clippath">
                <rect class="cls-2" width="25.22" height="22.7"/>
            </clipPath>
        </defs>
        <g id="Ebene_1-2">
            <polygon class="cls-3"
                     points="11.77 10.93 10.51 13.12 9.25 10.93 8.41 10.93 10.09 13.87 8.41 16.81 9.25 16.81 10.51 14.63 11.77 16.81 12.61 16.81 10.93 13.87 12.61 10.93 11.77 10.93"/>
            <g class="cls-1">
                <path class="cls-3"
                      d="M24.38,16.81c0,.93-.76,1.68-1.68,1.68h-14.29c-.93,0-1.68-.76-1.68-1.68v-5.88c0-.93.76-1.68,1.68-1.68h14.29c.92,0,1.68.76,1.68,1.68v5.88ZM15.13,21.02c0,.42-.34.84-.84.84H1.68c-.42,0-.84-.34-.84-.84V1.68c0-.42.34-.84.84-.84h8.41v4.2c0,.92.76,1.68,1.68,1.68h3.36v1.68h-6.73c-1.43,0-2.52,1.09-2.52,2.52v5.88c0,1.43,1.09,2.52,2.52,2.52h6.73v1.68ZM10.93,1.26l3.95,4.62h-3.11c-.42,0-.84-.42-.84-.84V1.26ZM22.7,8.41h-6.73v-2.52L10.93,0H1.68C.76,0,0,.76,0,1.68v19.34c0,.93.76,1.68,1.68,1.68h12.61c.92,0,1.68-.76,1.68-1.68v-1.68h6.73c1.43,0,2.52-1.09,2.52-2.52v-5.88c0-1.43-1.09-2.52-2.52-2.52"/>
            </g>
            <polygon class="cls-3"
                     points="16.81 10.93 15.55 13.45 14.29 10.93 13.87 10.93 13.45 10.93 13.45 16.81 14.29 16.81 14.29 12.61 15.13 14.29 15.55 14.29 15.97 14.29 16.81 12.61 16.81 16.81 17.66 16.81 17.66 10.93 17.23 10.93 16.81 10.93"/>
            <polygon class="cls-3"
                     points="19.34 10.93 18.5 10.93 18.5 16.81 22.7 16.81 22.7 15.97 19.34 15.97 19.34 10.93"/>
        </g>
    </symbol>
    <symbol id="pdf" xmlns="http://www.w3.org/2000/svg" xmlns:xlink="http://www.w3.org/1999/xlink"
            viewBox="0 0 25.22 22.7">
        <defs>
            <style>.cls-1{clip-path:url(#clippath);}.cls-2{fill:none;}.cls-2,.cls-3{stroke-width:0px;}.cls-3{fill:#000;}
            </style>
            <clipPath id="clippath">
                <rect class="cls-2" width="25.22" height="22.7"/>
            </clipPath>
        </defs>
        <g id="Ebene_1-2">
            <g class="cls-1">
                <path class="cls-3"
                      d="M10.93,13.45h-1.68v-1.68h1.68c.5,0,.84.34.84.84s-.34.84-.84.84M10.93,10.93h-2.52v5.89h.84v-2.52h1.68c.93,0,1.68-.76,1.68-1.68s-.76-1.68-1.68-1.68"/>
                <path class="cls-3"
                      d="M16.81,15.13c0,.5-.34.84-.84.84h-1.68v-4.2h1.68c.5,0,.84.34.84.84v2.52ZM15.97,10.93h-2.52v5.89h2.52c.92,0,1.68-.76,1.68-1.68v-2.52c0-.92-.76-1.68-1.68-1.68"/>
                <path class="cls-3"
                      d="M24.38,16.81c0,.93-.76,1.68-1.68,1.68h-14.29c-.93,0-1.68-.76-1.68-1.68v-5.88c0-.93.76-1.68,1.68-1.68h14.29c.92,0,1.68.76,1.68,1.68v5.88ZM15.13,21.02c0,.42-.34.84-.84.84H1.68c-.42,0-.84-.34-.84-.84V1.68c0-.42.34-.84.84-.84h8.41v4.2c0,.93.76,1.68,1.68,1.68h3.36v1.68h-6.73c-1.43,0-2.52,1.09-2.52,2.52v5.88c0,1.43,1.09,2.52,2.52,2.52h6.73v1.68ZM10.93,1.26l3.95,4.62h-3.11c-.42,0-.84-.42-.84-.84V1.26ZM22.7,8.41h-6.73v-2.52L10.93,0H1.68C.76,0,0,.76,0,1.68v19.34c0,.93.76,1.68,1.68,1.68h12.61c.92,0,1.68-.76,1.68-1.68v-1.68h6.73c1.43,0,2.52-1.09,2.52-2.52v-5.88c0-1.43-1.09-2.52-2.52-2.52"/>
            </g>
            <polygon class="cls-3"
                     points="18.5 16.81 19.34 16.81 19.34 14.29 21.86 14.29 21.86 13.45 19.34 13.45 19.34 11.77 22.7 11.77 22.7 10.93 18.5 10.93 18.5 16.81"/>
        </g>
    </symbol>
    <symbol id="arrow-right" xmlns="http://www.w3.org/2000/svg" viewBox="0 0 54.38 23.69">
        <defs>
            <style>
                .cls-1 {
                fill: currentColor;
                stroke-width: 0px;
                }
            </style>
        </defs>
        <g id="Ebene_1-2">
            <polygon class="cls-1"
                     points="41.64 0 39.1 2.73 46.91 9.98 0 9.98 0 13.71 46.91 13.71 39.1 20.96 41.64 23.69 54.38 11.85 41.64 0"/>
        </g>
    </symbol>

    <symbol id="close" fill="none" stroke="currentColor" stroke-linecap="round" stroke-linejoin="round"
            stroke-width="1.5" viewBox="0 0 24 24" xmlns="http://www.w3.org/2000/svg">
        <path
            d="m12 12 5.243 5.243m-10.485 0L12 12.001l-5.242 5.242ZM17.243 6.758 12 12l5.243-5.243ZM12 12 6.758 6.758 12 12Z"/>
    </symbol>

</svg>
