<svg>
    <symbol id="arrow-right" fill="currentColor" stroke-width="0px" xmlns="http://www.w3.org/2000/svg" viewBox="0 0 54.38 23.69">
        <defs>
        </defs>
        <g id="arrow-right-icon">
            <polygon class="cls-1"
                     points="41.64 0 39.1 2.73 46.91 9.98 0 9.98 0 13.71 46.91 13.71 39.1 20.96 41.64 23.69 54.38 11.85 41.64 0"/>
        </g>
    </symbol>

    <symbol id="arrow-left" fill="currentColor" stroke-width="0" xmlns="http://www.w3.org/2000/svg" viewBox="0 0 54.38 23.69">
        <g id="arrow-left-icon">
            <polygon
                points="12.74 23.69 15.28 20.96 7.47 13.71 54.38 13.71 54.38 9.98 7.47 9.98 15.28 2.73 12.74 0 0 11.84 12.74 23.69" />
        </g>
    </symbol>

    <symbol id="close" fill="none" stroke="currentColor" stroke-linecap="round" stroke-linejoin="round" stroke-width="1.5" viewBox="0 0 24 24" xmlns="http://www.w3.org/2000/svg">
        <path
            d="m12 12 5.243 5.243m-10.485 0L12 12.001l-5.242 5.242ZM17.243 6.758 12 12l5.243-5.243ZM12 12 6.758 6.758 12 12Z"/>
    </symbol>

    <symbol id="externallink" stroke-width="0px" fill="currentColor" xmlns="http://www.w3.org/2000/svg" viewBox="0 0 13.32 13.35">
        <g id="externallink-icon">
            <g>
                <polygon points="10.2 11.75 1.6 11.75 1.6 3.05 4.09 3.05 4.09 1.45 0 1.45 0 13.35 11.8 13.35 11.8 9.29 10.2 9.29 10.2 11.75"/>
                <polygon points="8.3 0 8.3 1.6 10.59 1.6 5.39 6.79 6.52 7.92 11.72 2.73 11.72 5.08 13.32 5.08 13.32 0 8.3 0"/>
            </g>
        </g>
    </symbol>

    <symbol id="internallink" stroke-width="0px" fill="currentColor" xmlns="http://www.w3.org/2000/svg" viewBox="0 0 13.32 13.35">
        <g id="internallink-icon" >
            <g>
                <polygon class="cls-1" points="10.2 11.75 1.6 11.75 1.6 3.05 4.09 3.05 4.09 1.45 0 1.45 0 13.35 11.8 13.35 11.8 9.29 10.2 9.29 10.2 11.75"/>
                <polygon class="cls-1" points="10.41 7.92 10.41 6.32 8.12 6.32 13.32 1.13 12.19 0 6.99 5.19 6.99 2.84 5.39 2.84 5.39 7.92 10.41 7.92"/>
            </g>
        </g>
    </symbol>

    <symbol id="bibliografie" fill="currentColor" stroke-width="0px" xmlns="http://www.w3.org/2000/svg" viewBox="0 0 37.91 37.07">
        <g>
            <path class="cls-1-biblio" d="M34.51,23.89c-1.14-1.95-3.21-3.15-5.48-3.15-1.04,0-2.07.26-2.99.74l.31.59c.82-.43,1.74-.66,2.67-.66,2.14,0,4.08,1.18,5.06,3.09.37.71.57,1.48.62,2.28.08,1.53-.45,3.01-1.5,4.16-1.05,1.14-2.47,1.8-4,1.84-.2,0-.4,0-.6-.01-.46-.03-.88.2-1.09.61-.97,1.87-2.87,3.04-4.98,3.04h-.12c-1.6,0-2.92-1.19-3.13-2.74.01-.14.02-.28.02-.42v-6.82c.62.79,1.58,1.31,2.66,1.31,1.51,0,2.73,1.23,2.73,2.73h.67c0-1.87-1.51-3.39-3.38-3.4-1.32,0-2.43-.95-2.68-2.2v-7.76c1.69-.19,3-1.62,3.01-3.36h0c0-1.51,1.23-2.73,2.73-2.73v-.67c-1.87,0-3.39,1.51-3.4,3.38,0,1.38-1.02,2.52-2.35,2.7V3.82c0-.14,0-.28-.02-.42.21-1.54,1.53-2.74,3.13-2.74h.12c2.45,0,4.65,1.64,5.36,3.98.14.48.57.8,1.07.8h.07c3.13,0,5.68,2.55,5.68,5.68,0,.87-.19,1.7-.57,2.47-.96,1.98-2.92,3.21-5.12,3.21-.96,0-1.9-.24-2.73-.7l-.32.58c.93.51,1.98.78,3.05.78,2.3,0,4.44-1.27,5.55-3.27,1.65,1.04,2.66,2.85,2.66,4.82s-1.04,3.83-2.73,4.86M15.49,36.4h-.12c-2.11,0-4.01-1.16-4.98-3.04-.21-.4-.64-.64-1.09-.61-.2.02-.4.02-.6.01-1.53-.05-2.95-.7-4-1.84-1.05-1.14-1.59-2.62-1.5-4.16.04-.8.25-1.57.62-2.28.98-1.91,2.92-3.09,5.06-3.09.93,0,1.85.23,2.67.66l.31-.59c-.91-.49-1.94-.74-2.98-.74-2.27,0-4.34,1.2-5.49,3.15-1.69-1.03-2.73-2.86-2.73-4.86s1.01-3.78,2.66-4.82c1.11,1.99,3.25,3.27,5.55,3.27,1.07,0,2.12-.27,3.05-.78l-.32-.58c-.83.46-1.77.7-2.73.7-2.2,0-4.16-1.23-5.12-3.21-.38-.77-.57-1.61-.57-2.47,0-3.13,2.55-5.68,5.69-5.68h.07c.5,0,.93-.32,1.07-.8.71-2.34,2.91-3.98,5.36-3.98h.12c1.6,0,2.92,1.19,3.13,2.73-.02.14-.02.28-.02.42v7.91c-.62-.83-1.6-1.37-2.71-1.38h0c-1.51,0-2.73-1.23-2.73-2.73h-.67c0,1.87,1.51,3.39,3.38,3.4,1.51,0,2.73,1.23,2.73,2.73v6.58c-1.68.19-2.99,1.62-3,3.35,0,1.51-1.23,2.73-2.73,2.73v.66c1.87,0,3.39-1.51,3.4-3.38,0-1.37,1.02-2.51,2.34-2.7v12.24c0,.14,0,.28.02.42-.21,1.54-1.53,2.74-3.13,2.74M34.88,13.61c.34-.78.51-1.62.51-2.48,0-3.5-2.85-6.35-6.35-6.35h-.06c-.2,0-.38-.13-.44-.33-.79-2.62-3.26-4.45-6-4.45h-.12c-1.53,0-2.85.9-3.46,2.21-.61-1.3-1.93-2.21-3.46-2.21h-.12c-2.74,0-5.2,1.83-6,4.45-.06.2-.24.33-.44.33h-.06c-3.5,0-6.35,2.85-6.35,6.35,0,.87.17,1.7.51,2.48-1.88,1.15-3.03,3.2-3.03,5.42s1.18,4.3,3.09,5.45c-.32.71-.51,1.47-.55,2.26-.09,1.72.5,3.37,1.68,4.64,1.17,1.27,2.76,2,4.47,2.06.22,0,.45,0,.67-.01.19-.01.37.08.45.25,1.08,2.09,3.21,3.4,5.57,3.4h.12c1.53,0,2.85-.91,3.46-2.21.61,1.3,1.93,2.21,3.46,2.21h.12c2.36,0,4.49-1.3,5.57-3.4.09-.16.26-.26.45-.25.22.02.45.02.67.01,1.71-.05,3.3-.78,4.47-2.06,1.18-1.28,1.77-2.93,1.68-4.64-.04-.79-.23-1.55-.55-2.26,1.91-1.15,3.09-3.2,3.09-5.45s-1.15-4.26-3.03-5.42"/>
        </g>
    </symbol>

    <symbol id="liszt" fill="currentColor" stroke-width="0px" xmlns="http://www.w3.org/2000/svg" viewBox="0 0 33.67 41">
        <g>
            <path class="cls-1-liszt" d="M23.92,41l-.33-.14c-.07-.03-7.11-2.99-11.21-5.58-2.84-1.8-9.53-.47-9.6-.46l-.75.15,1.61-3.14c-.68-.48-1.08-1.02-1.15-1.13-.13-.16-.22-.35-.28-.56-.19-.12-.46-.31-.75-.55.02.14-.04.28-.17.36-.17.11-.4.06-.5-.11-.02-.04-.59-.93-.78-2.47-.02-.12-.02-.25-.02-.37,0-.93.41-1.81.84-2.73.26-.55.52-1.13.74-1.77.17-.51.25-1.2.35-2.06.27-2.26.67-5.67,3.1-11.47C8.61.47,14.04.25,19.79.01c5.96-.25,6.93,3.57,7.03,4.12l.37.78c.04.05,1.71,2.5,2.23,3.55.13.27.26.48.37.67.22.37.41.7.41,1.09,0,.2-.05.42-.17.67-.13.27-.16.49-.16.64,0,.18.05.28.05.29.06.07,2.2,2.83,3.33,4.72.28.48.42.88.43,1.22,0,.21-.05.4-.16.56-.29.43-.93.59-1.85.47l-.47.07h-.05c-.08.06-.12.2-.12.37,0,.21.06.47.19.73.13.25.18.45.18.62,0,.24-.11.41-.24.54,0,.02,0,.04,0,.07,0,.44-.16,1.26-.62,1.88-.02.03-.03.06-.03.1,0,.1.06.25.19.52.18.37.4.84.4,1.44,0,.21-.03.44-.09.68-.44,1.61-2.24,1.44-3,1.36-.09,0-.17-.02-.23-.02-.28-.02-.88.13-1.47.27-.52.12-1.06.25-1.56.33-.52.08-.63.65-.76,1.86-.03.31-.06.62-.11.94-.21,1.33-.87,3.65-.99,4.06l.05.89c.16.32.8,1.57,1.12,2.82.14.52.18.96.18,1.31,0,.64-.15.99-.18,1.04l-.15.32ZM7.72,33.61c1.83,0,3.76.24,5.05,1.06,3.5,2.21,9.18,4.7,10.71,5.36.01-.11.02-.24.02-.39,0-.29-.04-.67-.16-1.12-.35-1.33-1.09-2.72-1.1-2.73l-.04-.15-.06-1.09.02-.06s.77-2.64.99-4.04c.05-.3.08-.6.11-.9.12-1.15.24-2.35,1.38-2.51.46-.07.99-.19,1.49-.31.7-.17,1.3-.32,1.68-.29.07,0,.16.01.26.02.94.09,1.97.11,2.23-.83.05-.17.07-.33.07-.49,0-.43-.17-.79-.33-1.13-.13-.27-.27-.56-.27-.85,0-.18.05-.36.18-.53.32-.42.44-.98.47-1.29-.05-.06-.15-.12-.32-.09-.51.09-1.88.52-1.89.52-.19.06-.4-.05-.46-.24-.06-.19.05-.4.24-.46.06-.02,1.43-.45,1.99-.55.27-.05.48,0,.66.08,0-.02.01-.04.01-.06,0-.05-.02-.13-.08-.25-.17-.33-.29-.75-.29-1.14,0-.27.06-.52.2-.71.14-.19.34-.31.58-.32,0,0,0,0,0,0-.53-.13-1.04.25-1.04.25-.35.25-1.18.55-1.88,0-.68-.54-.33-1.53-.02-2.03.11-.17.33-.22.5-.12.17.11.22.33.12.5-.1.17-.43.84-.15,1.07.45.36.99,0,.99-.01.02-.01.79-.61,1.67-.37.2.05.31.25.26.45-.03.13-.13.22-.25.26l.42-.06h.05c.74.11,1.1,0,1.19-.14.01-.02.04-.07.04-.16,0-.15-.06-.41-.32-.84-1.1-1.85-3.29-4.67-3.31-4.7-.04-.07-.17-.31-.17-.7,0-.26.06-.57.23-.94.07-.14.1-.25.1-.35,0-.19-.1-.37-.31-.72-.12-.2-.26-.43-.4-.72-.49-1.01-2.19-3.48-2.2-3.51l-.45-.98c-.02-.16-.6-3.78-6.29-3.55-5.75.24-10.71.44-14.1,8.53-2.39,5.71-2.79,9.06-3.05,11.27-.11.9-.19,1.62-.39,2.21-.23.68-.5,1.27-.77,1.84-.41.88-.77,1.66-.77,2.43,0,.09,0,.19.02.28.09.74.81,1.46,1.42,1.93.06-.63.26-1.35.45-2.05.06-.22.12-.43.18-.64.35-1.34.53-3.25.53-3.27.02-.2.18-.34.4-.33.2.02.35.2.33.4,0,.08-.19,1.98-.55,3.38-.06.21-.12.43-.18.66-.22.78-.48,1.7-.44,2.33l1.54,1.68s0,0,.01.01l.11.12c.34.17.73.3,1.17.33,1.84.16,2.62-1.57,2.7-1.77-.65-2.04-.29-5.17-.24-5.61.03-.2.2-.34.41-.32.2.03.34.21.32.41-.18,1.41-.38,5.29.79,6.33.58.51,1.1.8,1.54.95-1.88-2.25-.51-6.93.24-9.01.21-.58.17-1.35.11-2.42-.06-1.06-.13-2.37,0-4.09.27-3.52,1.39-5.92,1.44-6.02.09-.18.3-.26.49-.17.18.09.26.3.17.49-.01.02-1.11,2.39-1.37,5.76-.13,1.67-.06,2.96,0,3.99.06,1.15.11,1.99-.15,2.71-.61,1.68-2.37,7.29.28,8.83.02.01.04.02.05.04.12-.03.19-.06.2-.07.09-.04.2-.05.29-.01l-.02-.03c-.51-.71-.37-1.51-.37-1.54.04-.2.23-.33.43-.29.2.04.33.23.29.42,0,.02-.08.55.24.99.26.35.71.57,1.34.65,1.82.25,2.05-.67,2.06-.71,0-.02,0-.03.01-.05-.96-.79-1.07-2.2-1.08-2.27-.01-.2.14-.38.34-.39.23-.03.38.14.39.34,0,.02.14,1.76,1.44,2.07,1.15.28,2.15-.27,2.48-.49-.87-.57-2.2-1.81-3.19-3.48-1.32-2.24-2.43-5.92-.18-10.7,2.49-5.29.33-8.64.31-8.67-.11-.17-.07-.39.1-.51.17-.11.4-.07.51.1.1.15,2.42,3.7-.26,9.39-1.53,3.25-1.63,6.32-.31,9.15,1.29,2.76,3.49,4.25,3.83,4.34h0c.1,0,.36-.37.56-.86-.73-.26-2.1-1.16-2.32-4.2-.09-1.32.4-2.78,1.03-4.63.46-1.34.97-2.86,1.34-4.6.3-1.41-.26-3.54-.8-5.59-.73-2.8-1.43-5.44-.33-6.94.49-.67,1.29-1.03,2.38-1.09,1.33-.09,2.01.92,2.19,1.46.06.19-.04.4-.23.46-.2.07-.4-.04-.46-.23-.01-.04-.33-1.02-1.45-.96-.88.05-1.48.31-1.83.79-.89,1.22-.21,3.81.45,6.32.56,2.14,1.14,4.36.81,5.93-.38,1.79-.9,3.33-1.36,4.69-.6,1.77-1.07,3.16-.99,4.34.24,3.43,2.02,3.63,2.1,3.63l.45.04-.13.43c-.13.42-.58,1.78-1.47,1.74-.02,0-.04,0-.06,0-.02.06-.06.12-.12.16-.06.04-1.47,1.11-3.21.7-.1-.02-.19-.05-.28-.08-.17.42-.77,1.38-2.82,1.11-.68-.09-1.21-.31-1.59-.67.04.16-.03.33-.19.41-.07.03-1.65.81-3.81-1.1-.16-.14-.3-.31-.42-.51-.53.82-1.58,1.77-3.13,1.65-.52-.04-.98-.18-1.38-.37l-.91,1.77c.92-.15,2.59-.37,4.35-.37ZM31.15,21.04h0s0,0,0,0ZM27.91,14.12l-1.77-.72s-.05-.02-.07-.04c-.23.13-.38.22-.38.22l-.36-.64s1.23-.7,2.05-1.14c.61-.33.62-.98.62-1.01,0-.2.17-.36.37-.36.23.02.37.16.37.36,0,.03,0,.59-.38,1.11.06.17.25.7.17,1.14-.08.51-.41.86-.45.89l-.17.18ZM26.89,12.91l.8.33c.05-.08.1-.19.12-.31.02-.13,0-.33-.05-.49,0,0-.02,0-.03.01-.26.14-.56.3-.84.46Z"/>
        </g>
    </symbol>

    <symbol id="projekt" fill="currentColor" stroke-width="0px" xmlns="http://www.w3.org/2000/svg" viewBox="0 0 38.1 44.49">
        <g>
            <path class="cls-1-projekt" d="M21.67,44.49h-5.34c-1.73,0-3.13-1.42-3.14-3.17h-2.43v-8.57h1.77c-.14-1.9-1.31-3.4-2.66-5.13-1.72-2.21-3.68-4.71-3.68-8.6,0-7.1,5.79-12.88,12.91-12.88s12.91,5.78,12.91,12.88c0,3.98-2.04,6.62-3.85,8.96-1.29,1.67-2.42,3.13-2.57,4.77h1.67v8.57h-2.43c-.01,1.75-1.42,3.17-3.14,3.17ZM13.92,41.32c0,1.34,1.09,2.43,2.41,2.43h5.34c1.32,0,2.4-1.09,2.41-2.43h-10.16ZM11.49,40.59h15.03v-3.19h-15.03v3.19ZM11.49,36.67h15.03v-3.19h-15.03v3.19ZM22.59,32.75h2.26c.15-1.89,1.4-3.51,2.72-5.22,1.73-2.24,3.7-4.78,3.7-8.51,0-6.7-5.46-12.15-12.17-12.15s-12.17,5.45-12.17,12.15c0,3.64,1.79,5.93,3.52,8.15,1.38,1.76,2.68,3.43,2.82,5.58h2.17v-13.08l.06-.09s0,0,0,0l3.55-5.02,3.47,5.02s0,0,0,0l.06.09v.11h0v12.97ZM19.37,32.75h2.49v-12.38l-2.49,1.23v11.14ZM16.16,32.75h2.47v-11.13l-2.47-1.24v12.37ZM16.34,19.65l2.65,1.33,2.69-1.33-2.64-3.82-2.7,3.82ZM2.85,28.78c-.13,0-.25-.07-.32-.18-.1-.17-.04-.4.13-.5l2.58-1.49c.17-.1.4-.04.5.13.1.17.04.4-.13.5l-2.58,1.49c-.06.03-.12.05-.18.05ZM35.3,28.76c-.06,0-.12-.02-.18-.05l-2.58-1.49c-.18-.1-.24-.33-.13-.5.1-.18.33-.24.5-.13l2.58,1.49c.18.1.24.33.13.5-.07.12-.19.18-.32.18ZM37.74,19.42h-2.98c-.2,0-.37-.16-.37-.37s.16-.37.37-.37h2.98c.2,0,.37.16.37.37s-.16.37-.37.37ZM3.34,19.42H.37c-.2,0-.37-.16-.37-.37s.16-.37.37-.37h2.98c.2,0,.37.16.37.37s-.16.37-.37.37ZM32.72,11.56c-.13,0-.25-.07-.32-.18-.1-.17-.04-.4.13-.5l2.58-1.49c.17-.1.4-.04.5.13.1.17.04.4-.13.5l-2.58,1.49c-.06.03-.12.05-.18.05ZM5.28,11.56c-.06,0-.12-.02-.18-.05l-2.58-1.49c-.18-.1-.24-.33-.13-.5.1-.18.33-.23.5-.13l2.58,1.49c.18.1.24.33.13.5-.07.12-.19.18-.32.18ZM26.95,5.7c-.06,0-.13-.02-.18-.05-.17-.1-.23-.33-.13-.5l1.49-2.57c.1-.18.33-.24.5-.13.17.1.23.33.13.5l-1.49,2.57c-.07.12-.19.18-.32.18ZM11.2,5.7c-.13,0-.25-.07-.32-.18l-1.49-2.57c-.1-.17-.04-.4.13-.5.17-.1.4-.04.5.13l1.49,2.57c.1.17.04.4-.13.5-.06.03-.12.05-.18.05ZM19.05,3.71c-.2,0-.37-.16-.37-.37V.37c0-.2.16-.37.37-.37s.37.16.37.37v2.97c0,.2-.16.37-.37.37Z"/>
        </g>
    </symbol>

    <symbol id="werkverzeichnis" fill="currentColor" stroke-width="0px" xmlns="http://www.w3.org/2000/svg" viewBox="0 0 32.48 39.46">
        <g>
            <g>
                <path class="cls-1-werkverzeichnis" d="M3.56,39.46c-1.96,0-3.56-1.59-3.56-3.56V0h28.17v33.23c0,.2-.16.37-.37.37s-.37-.16-.37-.37V.73H.73v35.18c0,1.56,1.27,2.82,2.82,2.82.2,0,.37.16.37.37s-.16.37-.37.37Z"/>
                <path class="cls-1-werkverzeichnis" d="M28.93,39.46H3.3v-.73c.79,0,1.4-.25,1.85-.77,1.24-1.42.85-4.32.85-4.35l-.06-.42h26.54v2.73c0,1.96-1.59,3.55-3.55,3.55ZM5.41,38.73h23.51c1.56,0,2.82-1.26,2.82-2.82v-1.99H6.77c.07.93.1,3.18-1.06,4.52-.09.11-.19.2-.29.29Z"/>
                <path class="cls-1-werkverzeichnis" d="M11.72,24.42c-2.15,0-3.89-1.26-3.89-2.8s1.75-2.8,3.89-2.8c1.3,0,2.45.46,3.16,1.17v-11.32c0-.2.16-.37.37-.37s.37.16.37.37v.92c1.08.19,4.45,1.01,5.31,3.93.88,2.99-.33,4.84-.39,4.91l-.63-.38c.06-.12.55-1.19-1.02-2.1-1.31-.76-2.61-1.21-3.28-1.41v7.08c0,1.55-1.75,2.8-3.89,2.8ZM11.72,19.54c-1.74,0-3.16.93-3.16,2.07s1.42,2.07,3.16,2.07,3.16-.93,3.16-2.07-1.42-2.07-3.16-2.07ZM15.62,13.78c.61.17,2.1.64,3.64,1.54.61.35.98.74,1.2,1.12.1-.7.09-1.61-.24-2.71-.7-2.39-3.54-3.17-4.61-3.39v3.45Z"/>
            </g>
        </g>
    </symbol>
    <symbol id="chevron-down" stroke="currentColor" fill="none" xmlns="http://www.w3.org/2000/svg" viewBox="0 0 31.71 16.5">
        <polyline points=".35 .36 15.78 15.8 31.35 .36" />
    </symbol>
    <symbol id="chevron-right" stroke="currentColor" fill="none" xmlns="http://www.w3.org/2000/svg" viewBox="0 0 16.5 31.71">
        <polyline points=".36 31.35 15.8 15.93 .36 .35" />
    </symbol>
    <symbol id="chevron-up" stroke="currentColor" fill="none" xmlns="http://www.w3.org/2000/svg" viewBox="0 0 31.71 16.5">
        <polyline points="31.35 16.15 15.93 .71 .35 16.15" />
    </symbol>
    <symbol id="chevron-left" stroke="currentColor" fill="none" xmlns="http://www.w3.org/2000/svg" viewBox="0 0 16.5 31.71">
        <polyline points="16.15 .35 .71 15.78 16.15 31.35" />
    </symbol>



</svg>
