<?xml version="1.0" encoding="UTF-8"?>
<svg id="Liszt" xmlns="http://www.w3.org/2000/svg" viewBox="0 0 33.67 41">
  <defs>
    <style>
      .cls-1-liszt {
        fill:currentColor;
        stroke-width: 0px;
      }
    </style>
  </defs>
  <g>
    <path class="cls-1-liszt" d="M23.92,41l-.33-.14c-.07-.03-7.11-2.99-11.21-5.58-2.84-1.8-9.53-.47-9.6-.46l-.75.15,1.61-3.14c-.68-.48-1.08-1.02-1.15-1.13-.13-.16-.22-.35-.28-.56-.19-.12-.46-.31-.75-.55.02.14-.04.28-.17.36-.17.11-.4.06-.5-.11-.02-.04-.59-.93-.78-2.47-.02-.12-.02-.25-.02-.37,0-.93.41-1.81.84-2.73.26-.55.52-1.13.74-1.77.17-.51.25-1.2.35-2.06.27-2.26.67-5.67,3.1-11.47C8.61.47,14.04.25,19.79.01c5.96-.25,6.93,3.57,7.03,4.12l.37.78c.04.05,1.71,2.5,2.23,3.55.13.27.26.48.37.67.22.37.41.7.41,1.09,0,.2-.05.42-.17.67-.13.27-.16.49-.16.64,0,.18.05.28.05.29.06.07,2.2,2.83,3.33,4.72.28.48.42.88.43,1.22,0,.21-.05.4-.16.56-.29.43-.93.59-1.85.47l-.47.07h-.05c-.08.06-.12.2-.12.37,0,.21.06.47.19.73.13.25.18.45.18.62,0,.24-.11.41-.24.54,0,.02,0,.04,0,.07,0,.44-.16,1.26-.62,1.88-.02.03-.03.06-.03.1,0,.1.06.25.19.52.18.37.4.84.4,1.44,0,.21-.03.44-.09.68-.44,1.61-2.24,1.44-3,1.36-.09,0-.17-.02-.23-.02-.28-.02-.88.13-1.47.27-.52.12-1.06.25-1.56.33-.52.08-.63.65-.76,1.86-.03.31-.06.62-.11.94-.21,1.33-.87,3.65-.99,4.06l.05.89c.16.32.8,1.57,1.12,2.82.14.52.18.96.18,1.31,0,.64-.15.99-.18,1.04l-.15.32ZM7.72,33.61c1.83,0,3.76.24,5.05,1.06,3.5,2.21,9.18,4.7,10.71,5.36.01-.11.02-.24.02-.39,0-.29-.04-.67-.16-1.12-.35-1.33-1.09-2.72-1.1-2.73l-.04-.15-.06-1.09.02-.06s.77-2.64.99-4.04c.05-.3.08-.6.11-.9.12-1.15.24-2.35,1.38-2.51.46-.07.99-.19,1.49-.31.7-.17,1.3-.32,1.68-.29.07,0,.16.01.26.02.94.09,1.97.11,2.23-.83.05-.17.07-.33.07-.49,0-.43-.17-.79-.33-1.13-.13-.27-.27-.56-.27-.85,0-.18.05-.36.18-.53.32-.42.44-.98.47-1.29-.05-.06-.15-.12-.32-.09-.51.09-1.88.52-1.89.52-.19.06-.4-.05-.46-.24-.06-.19.05-.4.24-.46.06-.02,1.43-.45,1.99-.55.27-.05.48,0,.66.08,0-.02.01-.04.01-.06,0-.05-.02-.13-.08-.25-.17-.33-.29-.75-.29-1.14,0-.27.06-.52.2-.71.14-.19.34-.31.58-.32,0,0,0,0,0,0-.53-.13-1.04.25-1.04.25-.35.25-1.18.55-1.88,0-.68-.54-.33-1.53-.02-2.03.11-.17.33-.22.5-.12.17.11.22.33.12.5-.1.17-.43.84-.15,1.07.45.36.99,0,.99-.01.02-.01.79-.61,1.67-.37.2.05.31.25.26.45-.03.13-.13.22-.25.26l.42-.06h.05c.74.11,1.1,0,1.19-.14.01-.02.04-.07.04-.16,0-.15-.06-.41-.32-.84-1.1-1.85-3.29-4.67-3.31-4.7-.04-.07-.17-.31-.17-.7,0-.26.06-.57.23-.94.07-.14.1-.25.1-.35,0-.19-.1-.37-.31-.72-.12-.2-.26-.43-.4-.72-.49-1.01-2.19-3.48-2.2-3.51l-.45-.98c-.02-.16-.6-3.78-6.29-3.55-5.75.24-10.71.44-14.1,8.53-2.39,5.71-2.79,9.06-3.05,11.27-.11.9-.19,1.62-.39,2.21-.23.68-.5,1.27-.77,1.84-.41.88-.77,1.66-.77,2.43,0,.09,0,.19.02.28.09.74.81,1.46,1.42,1.93.06-.63.26-1.35.45-2.05.06-.22.12-.43.18-.64.35-1.34.53-3.25.53-3.27.02-.2.18-.34.4-.33.2.02.35.2.33.4,0,.08-.19,1.98-.55,3.38-.06.21-.12.43-.18.66-.22.78-.48,1.7-.44,2.33l1.54,1.68s0,0,.01.01l.11.12c.34.17.73.3,1.17.33,1.84.16,2.62-1.57,2.7-1.77-.65-2.04-.29-5.17-.24-5.61.03-.2.2-.34.41-.32.2.03.34.21.32.41-.18,1.41-.38,5.29.79,6.33.58.51,1.1.8,1.54.95-1.88-2.25-.51-6.93.24-9.01.21-.58.17-1.35.11-2.42-.06-1.06-.13-2.37,0-4.09.27-3.52,1.39-5.92,1.44-6.02.09-.18.3-.26.49-.17.18.09.26.3.17.49-.01.02-1.11,2.39-1.37,5.76-.13,1.67-.06,2.96,0,3.99.06,1.15.11,1.99-.15,2.71-.61,1.68-2.37,7.29.28,8.83.02.01.04.02.05.04.12-.03.19-.06.2-.07.09-.04.2-.05.29-.01l-.02-.03c-.51-.71-.37-1.51-.37-1.54.04-.2.23-.33.43-.29.2.04.33.23.29.42,0,.02-.08.55.24.99.26.35.71.57,1.34.65,1.82.25,2.05-.67,2.06-.71,0-.02,0-.03.01-.05-.96-.79-1.07-2.2-1.08-2.27-.01-.2.14-.38.34-.39.23-.03.38.14.39.34,0,.02.14,1.76,1.44,2.07,1.15.28,2.15-.27,2.48-.49-.87-.57-2.2-1.81-3.19-3.48-1.32-2.24-2.43-5.92-.18-10.7,2.49-5.29.33-8.64.31-8.67-.11-.17-.07-.39.1-.51.17-.11.4-.07.51.1.1.15,2.42,3.7-.26,9.39-1.53,3.25-1.63,6.32-.31,9.15,1.29,2.76,3.49,4.25,3.83,4.34h0c.1,0,.36-.37.56-.86-.73-.26-2.1-1.16-2.32-4.2-.09-1.32.4-2.78,1.03-4.63.46-1.34.97-2.86,1.34-4.6.3-1.41-.26-3.54-.8-5.59-.73-2.8-1.43-5.44-.33-6.94.49-.67,1.29-1.03,2.38-1.09,1.33-.09,2.01.92,2.19,1.46.06.19-.04.4-.23.46-.2.07-.4-.04-.46-.23-.01-.04-.33-1.02-1.45-.96-.88.05-1.48.31-1.83.79-.89,1.22-.21,3.81.45,6.32.56,2.14,1.14,4.36.81,5.93-.38,1.79-.9,3.33-1.36,4.69-.6,1.77-1.07,3.16-.99,4.34.24,3.43,2.02,3.63,2.1,3.63l.45.04-.13.43c-.13.42-.58,1.78-1.47,1.74-.02,0-.04,0-.06,0-.02.06-.06.12-.12.16-.06.04-1.47,1.11-3.21.7-.1-.02-.19-.05-.28-.08-.17.42-.77,1.38-2.82,1.11-.68-.09-1.21-.31-1.59-.67.04.16-.03.33-.19.41-.07.03-1.65.81-3.81-1.1-.16-.14-.3-.31-.42-.51-.53.82-1.58,1.77-3.13,1.65-.52-.04-.98-.18-1.38-.37l-.91,1.77c.92-.15,2.59-.37,4.35-.37ZM31.15,21.04h0s0,0,0,0ZM27.91,14.12l-1.77-.72s-.05-.02-.07-.04c-.23.13-.38.22-.38.22l-.36-.64s1.23-.7,2.05-1.14c.61-.33.62-.98.62-1.01,0-.2.17-.36.37-.36.23.02.37.16.37.36,0,.03,0,.59-.38,1.11.06.17.25.7.17,1.14-.08.51-.41.86-.45.89l-.17.18ZM26.89,12.91l.8.33c.05-.08.1-.19.12-.31.02-.13,0-.33-.05-.49,0,0-.02,0-.03.01-.26.14-.56.3-.84.46Z"/>
  </g>
</svg>
