<?xml version="1.0" encoding="UTF-8"?>
<svg id="projekt" xmlns="http://www.w3.org/2000/svg" viewBox="0 0 38.1 44.49">
  <defs>
    <style>
      .cls-1-projekt {
        fill: currentColor;
        stroke-width: 0px;
      }
    </style>
  </defs>
  <g>
    <path class="cls-1-projekt" d="M21.67,44.49h-5.34c-1.73,0-3.13-1.42-3.14-3.17h-2.43v-8.57h1.77c-.14-1.9-1.31-3.4-2.66-5.13-1.72-2.21-3.68-4.71-3.68-8.6,0-7.1,5.79-12.88,12.91-12.88s12.91,5.78,12.91,12.88c0,3.98-2.04,6.62-3.85,8.96-1.29,1.67-2.42,3.13-2.57,4.77h1.67v8.57h-2.43c-.01,1.75-1.42,3.17-3.14,3.17ZM13.92,41.32c0,1.34,1.09,2.43,2.41,2.43h5.34c1.32,0,2.4-1.09,2.41-2.43h-10.16ZM11.49,40.59h15.03v-3.19h-15.03v3.19ZM11.49,36.67h15.03v-3.19h-15.03v3.19ZM22.59,32.75h2.26c.15-1.89,1.4-3.51,2.72-5.22,1.73-2.24,3.7-4.78,3.7-8.51,0-6.7-5.46-12.15-12.17-12.15s-12.17,5.45-12.17,12.15c0,3.64,1.79,5.93,3.52,8.15,1.38,1.76,2.68,3.43,2.82,5.58h2.17v-13.08l.06-.09s0,0,0,0l3.55-5.02,3.47,5.02s0,0,0,0l.06.09v.11h0v12.97ZM19.37,32.75h2.49v-12.38l-2.49,1.23v11.14ZM16.16,32.75h2.47v-11.13l-2.47-1.24v12.37ZM16.34,19.65l2.65,1.33,2.69-1.33-2.64-3.82-2.7,3.82ZM2.85,28.78c-.13,0-.25-.07-.32-.18-.1-.17-.04-.4.13-.5l2.58-1.49c.17-.1.4-.04.5.13.1.17.04.4-.13.5l-2.58,1.49c-.06.03-.12.05-.18.05ZM35.3,28.76c-.06,0-.12-.02-.18-.05l-2.58-1.49c-.18-.1-.24-.33-.13-.5.1-.18.33-.24.5-.13l2.58,1.49c.18.1.24.33.13.5-.07.12-.19.18-.32.18ZM37.74,19.42h-2.98c-.2,0-.37-.16-.37-.37s.16-.37.37-.37h2.98c.2,0,.37.16.37.37s-.16.37-.37.37ZM3.34,19.42H.37c-.2,0-.37-.16-.37-.37s.16-.37.37-.37h2.98c.2,0,.37.16.37.37s-.16.37-.37.37ZM32.72,11.56c-.13,0-.25-.07-.32-.18-.1-.17-.04-.4.13-.5l2.58-1.49c.17-.1.4-.04.5.13.1.17.04.4-.13.5l-2.58,1.49c-.06.03-.12.05-.18.05ZM5.28,11.56c-.06,0-.12-.02-.18-.05l-2.58-1.49c-.18-.1-.24-.33-.13-.5.1-.18.33-.23.5-.13l2.58,1.49c.18.1.24.33.13.5-.07.12-.19.18-.32.18ZM26.95,5.7c-.06,0-.13-.02-.18-.05-.17-.1-.23-.33-.13-.5l1.49-2.57c.1-.18.33-.24.5-.13.17.1.23.33.13.5l-1.49,2.57c-.07.12-.19.18-.32.18ZM11.2,5.7c-.13,0-.25-.07-.32-.18l-1.49-2.57c-.1-.17-.04-.4.13-.5.17-.1.4-.04.5.13l1.49,2.57c.1.17.04.4-.13.5-.06.03-.12.05-.18.05ZM19.05,3.71c-.2,0-.37-.16-.37-.37V.37c0-.2.16-.37.37-.37s.37.16.37.37v2.97c0,.2-.16.37-.37.37Z"/>
  </g>
</svg>
