<?xml version="1.0" encoding="UTF-8"?>
<svg id="share" stroke="currentColor" fill="#fff" xmlns="http://www.w3.org/2000/svg" xmlns:xlink="http://www.w3.org/1999/xlink"
        viewBox="0 0 21.8 23.36">
    <defs>
        <style>
            .cls-1{clip-path:url(#clippath);}.cls-2,.cls-3{stroke-width:0px;}.cls-2,.cls-4{fill:none;}.cls-3{fill:#fff;}.cls-4{stroke:#000;stroke-width:.98px;}
        </style>
        <clipPath id="clippath">
            <rect class="cls-2" width="21.8" height="23.35"/>
        </clipPath>
    </defs>
    <g id="Ebene_1-2">
        <line class="cls-4" x1="6.05" y1="11.17" x2="15.98" y2="5.4"/>
        <line class="cls-4" x1="6.05" y1="12.85" x2="15.98" y2="18.62"/>
        <g class="cls-1">
            <path class="cls-3"
                  d="M4.18,15.33c2.04,0,3.69-1.65,3.69-3.69s-1.65-3.69-3.69-3.69S.49,9.6.49,11.64s1.65,3.69,3.69,3.69"/>
            <circle class="cls-4" cx="4.18" cy="11.64" r="3.69"/>
            <path class="cls-3"
                  d="M17.61,7.87c2.04,0,3.69-1.65,3.69-3.69s-1.65-3.69-3.69-3.69-3.69,1.65-3.69,3.69,1.65,3.69,3.69,3.69"/>
            <circle class="cls-4" cx="17.61" cy="4.18" r="3.69"/>
            <path class="cls-3"
                  d="M17.61,22.86c2.04,0,3.69-1.65,3.69-3.69s-1.65-3.69-3.69-3.69-3.69,1.65-3.69,3.69,1.65,3.69,3.69,3.69"/>
            <circle class="cls-4" cx="17.61" cy="19.17" r="3.69"/>
        </g>
    </g>
</svg>
