<?xml version="1.0" encoding="UTF-8"?>
<svg id="werkverzeichnis" xmlns="http://www.w3.org/2000/svg" viewBox="0 0 32.48 39.46">
  <defs>
    <style>
      .cls-1-werkverzeichnis {
        fill: currentColor;
        stroke-width: 0px;
      }
    </style>
  </defs>
  <g>
    <g>
      <path class="cls-1-werkverzeichnis" d="M3.56,39.46c-1.96,0-3.56-1.59-3.56-3.56V0h28.17v33.23c0,.2-.16.37-.37.37s-.37-.16-.37-.37V.73H.73v35.18c0,1.56,1.27,2.82,2.82,2.82.2,0,.37.16.37.37s-.16.37-.37.37Z"/>
      <path class="cls-1-werkverzeichnis" d="M28.93,39.46H3.3v-.73c.79,0,1.4-.25,1.85-.77,1.24-1.42.85-4.32.85-4.35l-.06-.42h26.54v2.73c0,1.96-1.59,3.55-3.55,3.55ZM5.41,38.73h23.51c1.56,0,2.82-1.26,2.82-2.82v-1.99H6.77c.07.93.1,3.18-1.06,4.52-.09.11-.19.2-.29.29Z"/>
      <path class="cls-1-werkverzeichnis" d="M11.72,24.42c-2.15,0-3.89-1.26-3.89-2.8s1.75-2.8,3.89-2.8c1.3,0,2.45.46,3.16,1.17v-11.32c0-.2.16-.37.37-.37s.37.16.37.37v.92c1.08.19,4.45,1.01,5.31,3.93.88,2.99-.33,4.84-.39,4.91l-.63-.38c.06-.12.55-1.19-1.02-2.1-1.31-.76-2.61-1.21-3.28-1.41v7.08c0,1.55-1.75,2.8-3.89,2.8ZM11.72,19.54c-1.74,0-3.16.93-3.16,2.07s1.42,2.07,3.16,2.07,3.16-.93,3.16-2.07-1.42-2.07-3.16-2.07ZM15.62,13.78c.61.17,2.1.64,3.64,1.54.61.35.98.74,1.2,1.12.1-.7.09-1.61-.24-2.71-.7-2.39-3.54-3.17-4.61-3.39v3.45Z"/>
    </g>
  </g>
</svg>
