<svg width="146.045" height="188.406" viewBox="0 0 146.04492 188.40579" xmlns="http://www.w3.org/2000/svg"><path d="M76.8 6.489c-2.579-.34-7.583 6.426-7.68 1.108-4.525-1.213-4.925 4.223-.552 4.267 2.027 2.47 5.535.263 5.415.328 3.962 4.006 4.865-1.204 2.908-2.082 2.37 1.315 12.071 4.183 6.865-1.088-1.951-.867.22 2.82-2.194.291C80.14 8.155 78.788 6.542 76.8 6.49zm-26.274 6.52c-2.995-1.491-3.85 5.747-1.569 1.713 2.036.473 7.38-1.245 1.57-1.714zm47.961 2.462c-3.766-.238.921 5.026.051.855 1.185.079 1.167-1.473-.05-.855zm-27.05 10.48c-4.687.331-2.015 4.22.841 4.22 3.668.383 1.056 2.615 1.645 4.009 3.466-1.24 6.572 2.747 7.482-1.172 1.591-1.28 8.053-3.944 2.954-5.165-1.768 2.167-9.764-.228-8.235-.495.037-2.886-3.68 2.66-4.068-1.031l-.62-.366zm-6.073 3.442c-4.96-.631-3.155 10.541-.018 4.257.377-1.103 2.34-3.975.018-4.257zm4.873 1c-4.24 2.125 4.135 2.05 0 0zM41.245 56.719c-1.214 2.968 2.978 2.193 0 0zm13.805 62.785c-1.655 5.297-3.185 12.218 2.899 15.423 8.991 8.03 19.671 13.784 30.248 19.398 2.757 4.085 8.944 4.937 10.971.783-1.497-3.962-6.23-8.765-4.52-11.028-5.18-3.99-11.435-6.266-16.872-9.884-7.904-4.34-16.146-8.394-22.726-14.692z"/><path d="M70.737 1.432c-12.222.72-25.283 4.023-33.813 13.39 1.342 3.452-8.8 10.234-1.371 6.284 9.57-4.324 20.664-6.545 31.038-4.277 4.276.425 5.521 3.289.421 3.848-5.403 2.802-12.17 12.275-15.345 12.591 1.54-4.199 8.271-11.896 4.99-14.657-11.972 2.584-23.42 9.005-31.232 18.472-.396 4.126 7.088-3.657 9.403-4.576 8.107-1.33-3.63 6.965-4.87 10.038.105 5.42-5.45 9.14-6.597 14.691-6.138 5.35-11.171 12.037-10.425 20.604 1.264 2.06 4.577-7.391 7.113-9.198 1.789-2.24 5.047-5.548 2.429-.7-2.581 6.643-4.132 13.32-5.93 20.312 1.665.836 4.603-7.62 7.084-10.205 5.015-9.114 12.983-16.64 15.9-26.835 3.47-4.907-1.503 5.991-1.498 7.818.413 7.28-4.815 13.202-5.469 20.25.332-4.715 10.34-11.556 9.556-11.454-1.16 2.45-1.222 10.852 1.604 4.406 3.903-2.834 6.665-13.339 9.033-12.948-1.417 7.39-2.393 15.478 1.583 22.299 4.145 8.566-7.952 1.166-10.137 7.52-4.268 1.582-9.442 4.053-5.37 9.55 2.464 5.952 8.322 4.184 10.666.098 2.115 7.424 6.233 14.13 9.183 21.274-3.393-1.673-6.536-3.265-6.223 2.092-2.882 6.756 3.255 11.94 7.724 15.917-1.442-2.073-9.737-8.855-5.957-14.635.23-8.253 6.989 3.039 10.682 3.581 9.689 5.823 19.917 10.763 29.512 16.706-2.013 3.71 9.687 12.244.973 13.977-3.23 2.012-7.068-3.297-3.1 1.576 3.206 6.463 15.71 1.587 10.807-5.306-1.353-4.153-.472-8.467-.201-12.396-7.851.067-15.584-3.225-22.162-7.44-3.585-6.786-12.672-6.799-18.147-11.357.272-5.7 9.956 1.276 13.949.9 9.37 1.704 18.877 6.171 28.504 3.876 4.204.458 6.843-9.003 9.851-3.125 7.76-5.314-.795-15.458-8.016-12.842-5.105-4.603 12.46-5.799 2.93-6.977-6.869.05-13.99-.034-20.601 2.022-4.67-.276 2.826-4.428 5.14-3.004 5.274-2.52 16.145.34 17.933-5.651-3.357-2.567-5.852-4.448-6.742-8.046-2.787-.923-12.852 1.274-6.127-3.34 5.398-1.508 10.483 7.095 15.115.042 4.947-7.458-6.789-14.5-7.79-22.375-6.338-9.598 5.26-16.156 13.644-12.724 7.727 1.569-2.541-6.932-1.378-10.498-3.143-7.199-4.906-15.87-12.328-19.896 1.467-4.51 5.147-11.963-2.024-12.91-4.383.463-4.546-1.75.07-2.198C100.635 3.74 95.77 9 91.849 5.03 86.413 9.28 78.06-.274 70.737 1.432zM76.8 6.489c2.843.243 6.641 5.193 6.82 2.64 6.523 6.913-12.765-2.412-5.19 3.496-3.217 1.82-4.803-1.71-7.18.46-3.652.23-9.323-6.031-2.581-5.637 1.108 5.973 5.372-1.542 8.13-.96zM44.864 12.01c-.578 3.767-9.17 4.229-2.425 1.051.768-.432 1.566-.833 2.425-1.05zm5.662.998c6.199.813-2.719 2.024-3.17 3.08.017-1.56 1.33-3.686 3.17-3.08zm47.961 2.463c1.927 5.46-4.945.579 0 0zm-27.05 10.48c1.633 3.597 5.016-1.05 4.888 2.251 3 1.354 13.058-2.35 8.502 3.217-3.7 1.162-5.148 5.168-9.355 2.76-4.598.942 1.361-4.66-3.33-4.012-2.86-1.297-6.205-3.054-.706-4.216zm-6.073 3.442c4.445 3.323-6.36 9.67-2.847 2.34.542-1.12 1.486-2.3 2.847-2.34zm4.873 1c3.818 2.094-3.63 1.753 0 0zm20.098 22.252c6.678-.886 8.601 7.01 2.701 9.831-.825 4.497-6.848 14.083-9.2 9.943 3.232-2.812-4.5-1.682-5.088-4.454-3.366-.797-11.786 2.85-8.597-3.998-3.553-8.193 8.624-8.09 13.757-9.938 2.152-.41 4.313-.8 6.427-1.384zm-49.09 4.074c3.671 3.522-1.403 3.141 0 0zM10.768 88.393c-2.338 3.141 3.836 3.323 0 0zm-1.638 5c-2.138 4.194 3.694 3.387 0 0zm52.607 45c2.056 4.32 5.059 2.962 0 0zm7.293 5.351c1.363 2.768 12.02 7.181 5.267 2.812-1.712-1.012-3.405-2.087-5.267-2.812z" fill="#4d4d4d"/><path d="M67.795.111a49.854 48.123 0 0 0-32.072 11.66c-.07.94-.73 1.545-1.914 1.64a49.854 48.123 0 0 0-4.028 4.036c-2.495 6.777-7.693 12.529-8.88 19.883-1.042 2.572-2.2 5.093-3.401 7.594L8.947 69.2a32.52 39.326 0 0 0-4.533 6.664c-1.899 6.456-2.41 12.898-1.006 19.432-.402 8.742.746 18.238 5.248 25.857 4.901 5.709 11.276-.025 17.727 2.889 5.383-6.282 16.533.77 20.164-7.205.47-5.653-.786-13.353 3.514-16.78-4.077 1.021-8.844 5.956-10.86-1.792-1.392-5.238-6.726-5.012-9.086-3.91-3.203-5.114 2.257-15.224 6.692-14.86-.758 4.602-3.037 17.442 4.578 10.815 4.414-1.844 8.411-6.318 13.178-4.6.573-6.71-5.199-13.065-2.99-20.125 1.726-3.328 1.64-10.35-1.475-3.525-1.606 3.69-6.973 13.932-8.805 11.14.975-2.993 1.546-9.808-1.184-3.13-3.682 1.4-10.373 13.249-6.074 3.995 2.746-7.796 5.369-17.75 6.51-24.802-2.68 8.98-8.95 16.05-13.656 23.992-4.655 4.303-5.532 11.605-10.565 15.394 1.548-7.545 5.148-16.284 6.303-22.879-3.957 2.485-7.432 12.48-9.766 12.395-.665-7.987 3.57-15.196 9.711-20.023 4.295-6.103 5.592-13.726 10.766-19.668 3.682-2.236 7.334-9.64.332-5.09-1.986 2.132-12.423 8.474-7.201 1.898 7.458-6.538 15.446-13.113 25.314-15.402 4.373-2.868-9.113.935-10.72 2.678-2.702 2.714-13.52 9.784-7.272 1.785 4.27-4.627.674-2.58-1.303-2.067 4.72-6.925 8.986-13.93 17.967-16.697C59.856 1.91 70.485.587 80.371 2.8c-1.435-.61-2.088-1.093-2.244-1.532A49.854 48.123 0 0 0 67.795.11zm29.557 1.27c-5.654.096-18.615 4.919-6.604 4.86 1.793-2.961 6.122 2.556 10.068-.585 5.788-.258 3.324-.392-.052 2.074 5.528-.805 11.605 4.915 6.353 10.149.436 7.41 10.398 10.827 10.264 19.139.803 4.667 6.443 13.227 5.533 14.808-8.153-3.419-22.89.804-16.328 11.928 1.6 8.68 17.091 20.544 3.51 25.832-3.475-.024-7.541-4.892-7.627-1.264-3.126-3.829-9.313 2.24-2.66 1.475 4.568-1.703 7.51 1.883 7.978 4.672 7.482 1.906 2.738 8.84-3.178 7.64-4.858.65-16.192.705-16.324 4.336 8.033-1.245 16.49-2.892 24.479-1.4-.324 2.17-11.993 3.486-3.889 7.338 7.505-4.35 12.97 9.569 5.4 10.972-4.723-2.191-8.022 7.48-14.22 4.788-9.32-.093-18.148-3.842-27.239-5.309-3.326-3.056-15.667-2.672-6.884 1.854 8.558 2.165 13.655 9.2 21.062 13.003 4.18 1.57 9.663 5.672 9.268-.697 5.778-7.966 15.437-6.496 23.521-10.514 6.442-6.95 7.623-17.191 8.2-26.335-.202-10.03 2.96-20.145.89-30.063-1.216-6.351-9.902 1.605-8.322-5.537-3.694-.195-9.982 5.031-13.196-1.447-4.608-7.666 4.448-11.537 10.422-7.342 6.613 3.724 12.102-2.032 7.215-8.23-3.377-8.9-4.564-20.703-14.547-24.91-6.606-1.9 1.618-9.841 4.15-3.276-3.662-8.944 7.677 2.34 8.94 5.222 2.917 6.307 8.178 11.454 10.371 18.043a35.645 48.123 0 0 0-1.75-10.464c-.185 1.297-.786 1.146-1.593-3.03-.254-1.118-.626-2.291-.54-3.453a35.645 48.123 0 0 0-12.93-18.633c-.133.087-.27.153-.4.258-5.915-3.7-12.87-3.345-19.341-5.902zm-.557 1.012c3.136 3.172-4.833.968 0 0zm20.441 8.5c3.298 2.144 6.655 7.415 1.819 2.062l-1.819-2.062zM44.863 12.01c-4.284.425-7.031 6.023-1.435 1.847.024-.159 2.961-1.627 1.435-1.847zm12.373 3.78c-3.63-.14-12.726 1.557-3.726 1.835 11.357 1.365-4.03 13.838-.715 15.623 5.187-5.262 13.372-12.72 18.09-14.656-4.02-2.656-9.05-2.423-13.649-2.803zm1.416.726c3.155 1.718-4.292.044 0 0zm4.037.877c7.075 2-6.692 5.683-.441.062zm-16.037.123c-4.832.448 3.275 1.492 0 0zm-5.607.892c-7.254 1.232 3.185 2.667.574.078l-.447-.06zm84.95 5.139c4.41 3.668-1.533 5.105 0 0zM124.62 35.04c-.945 4.271 7.766 11.044 2.899 3.18-.627-1.273-1.346-2.825-2.899-3.18zm-96.435 3.875c6.374 1.925-10.156 11.089-2.862 3.99.912-1.354 1.42-3.048 2.862-3.99zM22.63 48.39c-.427 3.411-8.929 10.144-3.207 3.12.995-1.106 1.882-2.37 3.207-3.12zm67.703 4.254c-6.452 2.684-21.377 1.304-20.514 10.082-.787 5.616.793 7.475 6.076 4.47 3.07-.373-7.73-2.401-1.603-4.26 2.972-.14 8.258-1.385 4.11-3.521 3.406-4.02 19.622-7.002 12.343 1.766-2.942 1.176.34 5.39-4.35 1.797-.762 2.646-11.066 6.38-3.433 7.234 5.14-.158-3.443 4.7 2.807 3.049 6.49-2.982 6.256-12.317 11.634-16.649-.64-2.95-4.558-3.657-7.07-3.968zm25.174 5.025c-11.036 1.32 7.087 3.069 0 0zm21.242 2.24c.405 3.707.734 7.42.996 11.13.067.23.118.462.18.692a36.513 61.458 0 0 0-1.176-11.822zM48.187 69.922c2.968 3.983-2.681 10.553-1.199 2.603.164-.941.429-1.957 1.2-2.603zm-5.45 12.47c4.02 5.827-4.208 5.826 0 0zM24.058 86.59c-.623 7.498-5.784 14.962-1.998 22.484 6.193-5.66 6.021 12.567-1.444 7.02-1.995-2.606-.731-14.903-4.37-6.022.993 4.382-.017 15.253-4.323 6.3-2.731-3.358-5.589-17.038.207-8.237 2.847 3.231-2.8-6.283-.813-8.762 1.747-10.793.832 13.772 3.6 3.707 1.399-6.122 3.43-13.024 9.14-16.49zm93.677.43c-.471 3.784 1.849 14.588-5.066 8.681-6.039-4.309 3.78-5.103 5.066-8.681zM10.768 88.393c4.282 4.026-2.591 3.384 0 0zm-1.64 5c4.055 3.497-2.263 4.11 0 0zm19.302 1.673c4.94 3.11-4.334 19.652-1.95 8.424 1.528-2.76-.96-6.03 1.95-8.424zm6.074 1.266c7.727 2.247 6.837 12.295 9.19 17.404-4.565 4.555-8.21-3.247-6.42-6.634-3.01-2.246-3.148-7.288-2.77-10.77zm103.123 3.082a478.52 478.52 0 0 0-.48 3.356c-1.145 5.242.812 11.841 5.421 14.578zm-21.488 2.266c9.13 3.724-9.85 1.409 0 0zm-64.828 2.11c-5.185 1.635.126 3.587 0 0zm.326 2.103c.797 4.45 1.96 15.505 6.722 13.416-1.475-4.832-5.045-8.672-6.722-13.416zm-42.96 10.5c3.626 1.807-1.998 2.64 0 0zm16.833 1.056c4.033 2.981-5.837 10.154 0 0zm117.81 2.635c-2.203 1.832-.578 3.4 1.065 3.86zm-4.084 5.355c.296.968.79 1.556 1.305 1.893l1.906-.525c-.281-.46-1.199-.999-3.21-1.368zm-88 4.454c2.422 3.44 8.804 8.13 2.438 2.203l-2.438-2.203zm61.336 5.814c-6.031 3.725-11.577 5.816-10.2 13.893.46 4.06 2.635 11.071 4.179 3.433-1.949-8.483-.566-11.847 6.021-17.326zm-51.836 2.686c.176 2.363 4.783 3.616 1.493.896zm3.5 2.88c1.702 2.42 7.764 5.106 2.364 1.44l-1.182-.72zm10.377 6.577c-1.091 3.292 4.66-.062 0 0zm28.54 12.558c-10.664 2.633 5.54.92 0 0z" fill="#999"/><path d="M99.72 0a35.645 48.123 0 0 0-13.06 3.398 49.854 48.123 0 0 0-7.203-1.959c.678 3.846 13.689 2.375 17.197.37 6.919.288 14.015 2.934 20.62 4.675A35.645 48.123 0 0 0 99.72 0zm-2.925 2.393c-5.386 2.028 3.339 2.727 0 0zM40.732 8.756a49.854 48.123 0 0 0-1.039.623c.38-.11.734-.3 1.04-.623zm76.504 2.137c2.744 3.952 7.228 6.29 1.471 1.294zm-2.87 5.564c-.324.003-.645.05-.966.147 4.358 5.81-6.128-4.65-4.966 3.845 9.936 5.748 14.186 17.391 17.074 28.738 5.849 14.038-13.215 2.47-18.16 6.14-4.76 8.359 6.933 14.713 12.279 9.019 1.043 6.46 12.12.677 10.098 10.527-1.375 13.2-.863 26.702-3.815 39.707-1.154 10.398-10.55 15.066-20.023 16.086-8.024-.495-15.2 13.257-3.135 10.184 5.002-.391 13.464-8.33 5.756-1.235-6.711 6.409 3.09 18.915-7.729 22.268-10.043 1.6-14.544-10.417-24.1-12.578-9.45-5.211-19.133-11.025-25.292-20.162 1.123-8.04 3.567-19.03-1.662-24.245.085-6.54-6.218 3.2-2.229 6.395.624 12.602-12.468 8.347-19.334 11.705-8.076.548-20.598 3.641-22.371-7.65-2.691-9.976-2.258-20.43-3.277-30.637.228-1.351.5-2.689.8-4.016A32.52 39.326 0 0 0 0 97.555a32.52 39.326 0 0 0 32.52 39.326 32.52 39.326 0 0 0 9.455-1.725l-1.588 4.719-30.377 21.29c15.838 14.377 36.542 23.562 57.873 26.333l4.361-12.965-.123 3.313-2.508 4.523 2.291 1.27-.158 4.25c3.913.365 7.834.577 11.742.502 18.856.065 37.728-5.559 53.471-15.848l-22.893-12.691.936-25.09L141 127.6c-.522-.334-1.119-.942-1.744-2.127 2.337.055 3.161 1.023 3.178 1.73l3.61-.994-.595-2.166c-1.804.708-5.437-.503-1.816-4.049.348.22.6.42.873.625l-1.1-3.99c-.152.593-.392 1.029-.89 1.03-7.137-5.21-5.861-13.528-4.63-21.07l-.493-1.794a36.513 61.458 0 0 0 1.609-14.89c-.556-6.284-1.839-12.545-1.969-18.909-1.406-10.465-2.33-21.76-9.664-30.039-3.135-4.487-8.16-14.542-13.004-14.5zm-55.714.059c-5.953.652 3.69 1.271 0 0zm-4.982.748c-8.319-.185-23.391 5.669-20.662 10.64 6.69-3.925 13.06-8.655 20.851-10.068l1.377-.453a13.561 13.561 0 0 0-1.566-.12zm9.02.129c-7.773 5.156 6.896 3.4 0 0zm-35.42 4.802A49.854 48.123 0 0 0 20.578 37.7c1.166-2.712 2.288-5.438 3.291-8.205 1.085-2.268 2.221-4.804 3.402-7.299zm98.723 1.352c-1.298 4.06 3.858 4.158 0 0zm4.223 1.148c-1.544 4.152 4.153 13.72 1.615 4.133l-.607-2.148zm-5.596 10.346c4.796 1.99 5.357 12.298 1.2 3.635-.74-.843-2.544-2.488-1.2-3.635zm-96.435 3.875c-4.592 3.49-6.277 10.523-.176 3.436 1.883-.762 3.08-3.213.176-3.436zm-5.555 9.475c-4.37 2.066-6.905 10.587-1.73 2.988.068-1.291 2.25-1.556 1.73-2.988zm68.094 6.798c-5.918-.19-13.664 3.837-12.39 6.82-11.778 5.203 7.073 7.95 9.097.971 2.704 5.003 2.045-3.935 6.164-5.716-.166-1.335-1.898-1.636-2.871-2.075zm24.783 2.48c5.43 3.457-10.436.79 0 0zm-67.32 12.253c-4.178 4.907 2 9.943.498 1.52l-.07-.88zM36.53 78.455C29.597 80.695 24.993 98.2 35.117 93.2c3.119-2.252.32-10.637 1.414-14.744zm6.205 3.938c-4.133 4.92 4.297 6.79 0 0zM24.06 86.59c-7.575 2.502-7.435 17.283-10.952 18.431.136-3.624-.918-12.514-2.334-4.289.362 4.672 4.673 11.96-1.048 4.625-4.148 3.74 7.587 23.682 6.877 8.059-2.185-6.48 5.015-9.127 2.652-1.223 1.645 13.007 14.102-5.931 2.531-4.328-3.388-7.022 1.987-15.309 2.274-21.275zm77.857.38c-6.689 2.204 7.766 1.237 0 0zm15.82.05c-7.797 1.637-6.215 13.537-.287 9.95.19-3.313.184-6.634.287-9.95zM28.43 95.065c-2.8 3.976-3.288 20.68.6 8.17.289-2.369 2.123-6.666-.6-8.17zm6.074 1.266c.205 5.282 1.802 23.049 9.373 16.84-3.194-5.198-1.159-14.117-9.373-16.84zm81.635 5.348c-11.301.802 8.917 4.42 0 0zM8.678 116.393c-2.137 2.542 3.581 1.93 0 0zm16.832 1.056c-6.228 7.116 3.52 7.136 0 0z" fill="#fff"/></svg>