<?xml version="1.0" encoding="UTF-8"?>
<svg id="Ebene_2" xmlns="http://www.w3.org/2000/svg" viewBox="0 0 64 64">
    <defs>
        <style>
            .cls-1{fill:#ff4208;stroke-width:0px;}.cls-2,.cls-3{fill:none;stroke:#fff;stroke-miterlimit:10;stroke-width:1px;}.cls-3{stroke-linecap:round;}
        </style>
    </defs>
    <rect class="cls-1" width="64" height="64"/>
    <path class="cls-3"
          d="M46.06,28.27h-.86v24.19h-3.62v-19.07s-4.29-1.75-9.54-1.75h-.2c-5.26,0-9.54,1.75-9.54,1.75v19.07h-3.62v-24.19h-.86l-.97-3.26v-3.49h2.14l12.98-9.98,12.91,9.98h2.28v3.48l-1.1,3.29h0Z"/>
    <polyline class="cls-2" points="19.43 25.23 31.98 15.63 44.54 25.14"/>
    <polyline class="cls-3" points="24.86 32.58 24.86 51.2 22.29 51.2"/>
    <polyline class="cls-3" points="38.99 32.58 38.99 51.2 41.56 51.2"/>
    <line class="cls-2" x1="16.96" y1="25.17" x2="47.24" y2="25.17"/>
    <line class="cls-3" x1="18.61" y1="28.27" x2="45.31" y2="28.27"/>
</svg>