<?xml version="1.0" encoding="UTF-8"?>
<svg id="Liszt-Portal-Icon" xmlns="http://www.w3.org/2000/svg" viewBox="0 0 32 32">
    <g id="Ebene_1-2" >
        <rect fill="#ff4208" stroke-width="0px" width="32" height="32"/>
        <path fill="#fff" stroke-width="0px" d="M24.14,9.5l-8.14-5.09-8.14,5.09h-1.35v2.61l1,2v13.38h3.99v-10.19c.54-.25,2.03-.81,4.5-.81s3.96.56,4.5.81v10.19h3.99v-13.38l1-2v-2.61h-1.35ZM8.14,10.5l7.86-4.91,7.86,4.91h.65v1.01H7.5v-1.01h.65ZM8.31,13.5l-.5-1.01h16.39l-.5,1.01h-15.39ZM23.5,26.5h-2.01v-9.78l-.23-.15c-.07-.04-1.77-1.07-5.26-1.07s-5.19,1.03-5.26,1.07l-.23.15v9.78h-2.01v-12.01h15.01v12.01Z"/>
    </g>
</svg>
