<svg>
    <symbol id="manuscript" xmlns="http://www.w3.org/2000/svg" xmlns:xlink="http://www.w3.org/1999/xlink"
         viewBox="0 0 26.9 26.91">
        <defs>
            <style>.cls-1{clip-path:url(#clippath);}.cls-2{fill:none;}.cls-2,.cls-3{stroke-width:0px;}.cls-3{fill:#000;}
            </style>
            <clipPath id="clippath">
                <rect class="cls-2" y="0" width="26.9" height="26.91"/>
            </clipPath>
        </defs>
        <g id="Ebene_1-2">
            <g class="cls-1">
                <path class="cls-3"
                      d="M4.83,23.11c0,.39-.02.75,0,1.11.03.61-.07,1.18-.45,1.72h.18c1.73,0,3.46,0,5.19,0,2.6,0,5.21,0,7.81.01.74,0,1.49,0,2.23-.01.54,0,1.11-.38,1.25-.91.08-.33.08-.68.1-1.02.01-.3,0-.6,0-.9H4.83ZM11.97,13.17s.01.04.02.06c.29-.02.58-.03.87-.07.64-.08,1.28-.15,1.92-.27,1.59-.3,3.05-.94,4.39-1.82.53-.35,1.04-.74,1.52-1.17.5-.44.99-.91,1.41-1.42.48-.59.92-1.23,1.32-1.88.31-.5.56-1.04.78-1.59.37-.89.69-1.79,1.03-2.69.13-.35.26-.7.4-1.08-.59.17-1.13.33-1.68.48-1.06.3-2.12.57-3.16.9-.85.26-1.68.62-2.47,1.05-1.04.56-1.98,1.25-2.83,2.06-.36.34-.67.73-1.01,1.09-.57.61-1,1.31-1.41,2.03-.53.94-.94,1.93-1.22,3.01.34-.31.63-.63.97-.88.62-.46,1.25-.88,1.89-1.31.38-.25.77-.49,1.17-.71.22-.12.51-.01.61.2.13.26.06.51-.17.65-.72.45-1.44.89-2.14,1.37-.83.56-1.55,1.25-2.22,1.99M18.25,12.75s-.06,0-.09.02c-1.01.46-2.05.86-3.14,1.09-.89.18-1.78.31-2.68.33-.35,0-.71,0-1.06,0-.06,0-.14.04-.17.08-.25.38-.51.75-.73,1.15-.28.52-.53,1.06-.78,1.59-.14.31-.42.36-.66.26-.23-.1-.33-.41-.22-.67.41-.98.89-1.92,1.5-2.79.11-.16.23-.32.28-.5.19-.72.34-1.45.54-2.16.34-1.19.85-2.32,1.52-3.37.41-.64.89-1.23,1.37-1.83.58-.72,1.27-1.34,2-1.91.69-.54,1.43-1.01,2.21-1.4.05-.03.11-.1.12-.15,0-.5,0-1,0-1.5H.98v.29c0,7.48,0,14.96,0,22.45,0,.31.03.61.04.92.03.75.77,1.35,1.52,1.28.76-.07,1.33-.72,1.32-1.44-.01-.61,0-1.21,0-1.82,0-.37.19-.56.56-.56h13.83v-9.37ZM19.25,22.12h2.34c.35,0,.52.18.52.52,0,.67.01,1.34,0,2.02-.02.89-.64,1.75-1.45,2.08-.31.13-.62.17-.96.17-5.77,0-11.54,0-17.31,0-.62,0-1.15-.21-1.6-.62-.46-.42-.73-.94-.75-1.58-.02-.35-.04-.7-.04-1.06,0-2.22,0-4.45,0-6.67v-5.43C0,7.97,0,4.38,0,.8,0,.65.02.49.05.34.1.15.32.02.61,0,.66,0,.72,0,.78,0h17.78c.06,0,.12,0,.18,0,.39.06.5.2.5.6v1.52c.42-.14.82-.29,1.22-.41,1.07-.31,2.15-.61,3.22-.92.83-.24,1.66-.48,2.5-.72.33-.1.55-.05.67.22.06.12.06.31.01.43-.33.91-.67,1.81-1.02,2.72-.25.66-.49,1.33-.76,1.98-.33.8-.71,1.57-1.21,2.28-.32.46-.63.92-.97,1.36-.25.32-.52.62-.81.9-.35.34-.72.67-1.1.98-.53.41-1.09.79-1.63,1.2-.06.05-.13.14-.13.22,0,3.22,0,6.44,0,9.66,0,.03,0,.06.01.11"/>
            </g>
        </g>
    </symbol>
    <symbol id="print" xmlns="http://www.w3.org/2000/svg" xmlns:xlink="http://www.w3.org/1999/xlink"
     viewBox="0 0 29.59 20.35">
    <defs>
        <style>
            .cls-1{clip-path:url(#clippath);}.cls-2,.cls-3{stroke-width:0px;}.cls-2,.cls-4{fill:none;}.cls-3{fill:#000;}.cls-4{stroke:#000;stroke-miterlimit:10;stroke-width:.25px;}
        </style>
        <clipPath id="clippath">
            <rect class="cls-2" x="0" y="0" width="29.59" height="20.35"/>
        </clipPath>
    </defs>
    <g id="Ebene_1-2">
        <g class="cls-1">
            <path class="cls-3"
                  d="M28.98,18.51h-13.47c3.22-.98,9.8-1.88,11.56-1.11.08.03.16.03.23-.02.07-.05.11-.12.11-.2V2.12h1.57v16.38ZM14.8,19.74c-.46,0-.85-.32-.95-.74h1.91c-.11.42-.5.74-.96.74M.61,2.12h1.57v15.04c0,.08.04.15.1.2.06.05.15.05.23.03,2.53-.91,9.13.25,11.65,1.11H.61V2.12ZM2.68.89c2.78-.85,9.75.46,11.87,1.3v15.93c-1.83-.67-6.16-1.54-9.39-1.54-.95,0-1.81.07-2.48.26V.89ZM26.91.88v15.94c-2.41-.66-9.05.4-11.87,1.31V2.2c2.93-1,9.82-2.01,11.87-1.32M29.22,1.64h-1.82v-.92c0-.1-.06-.18-.15-.22-2.11-.92-9.66.3-12.45,1.28C12.61.87,5.2-.54,2.36.48c-.1.04-.16.13-.16.23v.92H.37c-.13,0-.25.11-.25.24v16.87c0,.13.11.24.25.24h12.98c.12.69.72,1.23,1.45,1.23s1.33-.53,1.45-1.23h12.98c.13,0,.25-.11.25-.24V1.88c0-.13-.11-.24-.25-.24"/>
            <path class="cls-4"
                  d="M28.98,18.51h-13.47c3.22-.98,9.8-1.88,11.56-1.11.08.03.16.03.23-.02.07-.05.11-.12.11-.2V2.12h1.57v16.38ZM14.8,19.74c-.46,0-.85-.32-.95-.74h1.91c-.11.42-.5.74-.96.74ZM.61,2.12h1.57v15.04c0,.08.04.15.1.2.06.05.15.05.23.03,2.53-.91,9.13.25,11.65,1.11H.61V2.12ZM2.68.89c2.78-.85,9.75.46,11.87,1.3v15.93c-1.83-.67-6.16-1.54-9.39-1.54-.95,0-1.81.07-2.48.26V.89ZM26.91.88v15.94c-2.41-.66-9.05.4-11.87,1.31V2.2c2.93-1,9.82-2.01,11.87-1.32ZM29.22,1.64h-1.82v-.92c0-.1-.06-.18-.15-.22-2.11-.92-9.66.3-12.45,1.28C12.61.87,5.2-.54,2.36.48c-.1.04-.16.13-.16.23v.92H.37c-.13,0-.25.11-.25.24v16.87c0,.13.11.24.25.24h12.98c.12.69.72,1.23,1.45,1.23s1.33-.53,1.45-1.23h12.98c.13,0,.25-.11.25-.24V1.88c0-.13-.11-.24-.25-.24Z"/>
        </g>
    </g>
</symbol>

<symbol id="triangle" xmlns="http://www.w3.org/2000/svg" xmlns:xlink="http://www.w3.org/1999/xlink" viewBox="0 0 19.63 17">
    <defs>
        <style>.cls-1{clip-path:url(#clippath);}.cls-2{stroke-width:0px;}.cls-2,.cls-3{fill:none;}.cls-3{stroke:#000;}
        </style>
        <clipPath id="clippath">
            <rect class="cls-2" x="0" width="19.63" height="17"/>
        </clipPath>
    </defs>
    <g id="Ebene_1-2">
        <g class="cls-1">
            <polygon class="cls-3" points="9.82 1 .87 16.5 18.76 16.5 9.82 1"/>
        </g>
    </g>
</symbol>

<symbol id="rings" xmlns="http://www.w3.org/2000/svg" xmlns:xlink="http://www.w3.org/1999/xlink"
     viewBox="0 0 25.62 16.5">
    <defs>
        <style>.cls-1{clip-path:url(#clippath);}.cls-2{stroke-width:0px;}.cls-2,.cls-3{fill:none;}.cls-3{stroke:#000;}
        </style>
        <clipPath id="clippath">
            <rect class="cls-2" width="25.62" height="16.5"/>
        </clipPath>
    </defs>
    <g id="Ebene_1-2">
        <g class="cls-1">
            <circle class="cls-3" cx="8.25" cy="8.25" r="7.75"/>
            <circle class="cls-3" cx="17.37" cy="8.25" r="7.75"/>
        </g>
    </g>
</symbol>


<symbol id="share" stroke="currentColor" fill="#fff" xmlns="http://www.w3.org/2000/svg" xmlns:xlink="http://www.w3.org/1999/xlink"
     viewBox="0 0 21.8 23.36">
    <defs>
        <style>
            .cls-1{clip-path:url(#clippath);}.cls-2,.cls-3{stroke-width:0px;}.cls-2,.cls-4{fill:none;}.cls-3{fill:#fff;}.cls-4{stroke:#000;stroke-width:.98px;}
        </style>
        <clipPath id="clippath">
            <rect class="cls-2" width="21.8" height="23.35"/>
        </clipPath>
    </defs>
    <g id="Ebene_1-2">
        <line class="cls-4" x1="6.05" y1="11.17" x2="15.98" y2="5.4"/>
        <line class="cls-4" x1="6.05" y1="12.85" x2="15.98" y2="18.62"/>
        <g class="cls-1">
            <path class="cls-3"
                  d="M4.18,15.33c2.04,0,3.69-1.65,3.69-3.69s-1.65-3.69-3.69-3.69S.49,9.6.49,11.64s1.65,3.69,3.69,3.69"/>
            <circle class="cls-4" cx="4.18" cy="11.64" r="3.69"/>
            <path class="cls-3"
                  d="M17.61,7.87c2.04,0,3.69-1.65,3.69-3.69s-1.65-3.69-3.69-3.69-3.69,1.65-3.69,3.69,1.65,3.69,3.69,3.69"/>
            <circle class="cls-4" cx="17.61" cy="4.18" r="3.69"/>
            <path class="cls-3"
                  d="M17.61,22.86c2.04,0,3.69-1.65,3.69-3.69s-1.65-3.69-3.69-3.69-3.69,1.65-3.69,3.69,1.65,3.69,3.69,3.69"/>
            <circle class="cls-4" cx="17.61" cy="19.17" r="3.69"/>
        </g>
    </g>
</symbol>

<symbol id="printer" xmlns="http://www.w3.org/2000/svg" xmlns:xlink="http://www.w3.org/1999/xlink"
     viewBox="0 0 25.01 23.29">
    <defs>
        <style>.cls-1{clip-path:url(#clippath);}.cls-2{fill:none;}.cls-2,.cls-3{stroke-width:0px;}.cls-3{fill:#000;}
        </style>
        <clipPath id="clippath">
            <rect class="cls-2" width="25.01" height="23.29"/>
        </clipPath>
    </defs>
    <g id="Ebene_1-2">
        <rect class="cls-3" x="6.04" y="17.25" width="12.94" height=".86"/>
        <rect class="cls-3" x="6.04" y="19.84" width="12.94" height=".86"/>
        <g class="cls-1">
            <path class="cls-3"
                  d="M24.15,18.11c0,.95-.78,1.73-1.73,1.73h-1.73v-5.18H4.31v5.18h-1.72c-.95,0-1.73-.78-1.73-1.73v-7.76c0-.95.78-1.73,1.73-1.73h19.84c.95,0,1.73.78,1.73,1.73v7.76ZM19.84,21.56c0,.43-.35.86-.86.86H6.04c-.43,0-.86-.35-.86-.86v-6.04h14.66v6.04ZM5.18,1.73c0-.43.34-.86.86-.86h12.94c.43,0,.86.34.86.86v6.04H5.18V1.73ZM22.43,7.76h-1.73V1.73C20.7.78,19.93,0,18.98,0H6.04C5.09,0,4.31.78,4.31,1.73v6.04h-1.72c-1.47,0-2.59,1.12-2.59,2.59v7.76c0,1.47,1.12,2.59,2.59,2.59h1.72v.86c0,.95.78,1.73,1.73,1.73h12.94c.95,0,1.73-.78,1.73-1.73v-.86h1.73c1.47,0,2.59-1.12,2.59-2.59v-7.76c0-1.47-1.12-2.59-2.59-2.59"/>
            <path class="cls-3" d="M19.84,10.35c.48,0,.86.39.86.86s-.39.86-.86.86-.86-.39-.86-.86.39-.86.86-.86"/>
        </g>
    </g>
</symbol>

<symbol id="xml" xmlns="http://www.w3.org/2000/svg" xmlns:xlink="http://www.w3.org/1999/xlink"
     viewBox="0 0 25.22 22.7">
    <defs>
        <style>.cls-1{clip-path:url(#clippath);}.cls-2{fill:none;}.cls-2,.cls-3{stroke-width:0px;}.cls-3{fill:#000;}
        </style>
        <clipPath id="clippath">
            <rect class="cls-2" width="25.22" height="22.7"/>
        </clipPath>
    </defs>
    <g id="Ebene_1-2">
        <polygon class="cls-3"
                 points="11.77 10.93 10.51 13.12 9.25 10.93 8.41 10.93 10.09 13.87 8.41 16.81 9.25 16.81 10.51 14.63 11.77 16.81 12.61 16.81 10.93 13.87 12.61 10.93 11.77 10.93"/>
        <g class="cls-1">
            <path class="cls-3"
                  d="M24.38,16.81c0,.93-.76,1.68-1.68,1.68h-14.29c-.93,0-1.68-.76-1.68-1.68v-5.88c0-.93.76-1.68,1.68-1.68h14.29c.92,0,1.68.76,1.68,1.68v5.88ZM15.13,21.02c0,.42-.34.84-.84.84H1.68c-.42,0-.84-.34-.84-.84V1.68c0-.42.34-.84.84-.84h8.41v4.2c0,.92.76,1.68,1.68,1.68h3.36v1.68h-6.73c-1.43,0-2.52,1.09-2.52,2.52v5.88c0,1.43,1.09,2.52,2.52,2.52h6.73v1.68ZM10.93,1.26l3.95,4.62h-3.11c-.42,0-.84-.42-.84-.84V1.26ZM22.7,8.41h-6.73v-2.52L10.93,0H1.68C.76,0,0,.76,0,1.68v19.34c0,.93.76,1.68,1.68,1.68h12.61c.92,0,1.68-.76,1.68-1.68v-1.68h6.73c1.43,0,2.52-1.09,2.52-2.52v-5.88c0-1.43-1.09-2.52-2.52-2.52"/>
        </g>
        <polygon class="cls-3"
                 points="16.81 10.93 15.55 13.45 14.29 10.93 13.87 10.93 13.45 10.93 13.45 16.81 14.29 16.81 14.29 12.61 15.13 14.29 15.55 14.29 15.97 14.29 16.81 12.61 16.81 16.81 17.66 16.81 17.66 10.93 17.23 10.93 16.81 10.93"/>
        <polygon class="cls-3"
                 points="19.34 10.93 18.5 10.93 18.5 16.81 22.7 16.81 22.7 15.97 19.34 15.97 19.34 10.93"/>
    </g>
</symbol>

<symbol id="pdf" xmlns="http://www.w3.org/2000/svg" xmlns:xlink="http://www.w3.org/1999/xlink"
     viewBox="0 0 25.22 22.7">
    <defs>
        <style>.cls-1{clip-path:url(#clippath);}.cls-2{fill:none;}.cls-2,.cls-3{stroke-width:0px;}.cls-3{fill:#000;}
        </style>
        <clipPath id="clippath">
            <rect class="cls-2" width="25.22" height="22.7"/>
        </clipPath>
    </defs>
    <g id="Ebene_1-2">
        <g class="cls-1">
            <path class="cls-3"
                  d="M10.93,13.45h-1.68v-1.68h1.68c.5,0,.84.34.84.84s-.34.84-.84.84M10.93,10.93h-2.52v5.89h.84v-2.52h1.68c.93,0,1.68-.76,1.68-1.68s-.76-1.68-1.68-1.68"/>
            <path class="cls-3"
                  d="M16.81,15.13c0,.5-.34.84-.84.84h-1.68v-4.2h1.68c.5,0,.84.34.84.84v2.52ZM15.97,10.93h-2.52v5.89h2.52c.92,0,1.68-.76,1.68-1.68v-2.52c0-.92-.76-1.68-1.68-1.68"/>
            <path class="cls-3"
                  d="M24.38,16.81c0,.93-.76,1.68-1.68,1.68h-14.29c-.93,0-1.68-.76-1.68-1.68v-5.88c0-.93.76-1.68,1.68-1.68h14.29c.92,0,1.68.76,1.68,1.68v5.88ZM15.13,21.02c0,.42-.34.84-.84.84H1.68c-.42,0-.84-.34-.84-.84V1.68c0-.42.34-.84.84-.84h8.41v4.2c0,.93.76,1.68,1.68,1.68h3.36v1.68h-6.73c-1.43,0-2.52,1.09-2.52,2.52v5.88c0,1.43,1.09,2.52,2.52,2.52h6.73v1.68ZM10.93,1.26l3.95,4.62h-3.11c-.42,0-.84-.42-.84-.84V1.26ZM22.7,8.41h-6.73v-2.52L10.93,0H1.68C.76,0,0,.76,0,1.68v19.34c0,.93.76,1.68,1.68,1.68h12.61c.92,0,1.68-.76,1.68-1.68v-1.68h6.73c1.43,0,2.52-1.09,2.52-2.52v-5.88c0-1.43-1.09-2.52-2.52-2.52"/>
        </g>
        <polygon class="cls-3"
                 points="18.5 16.81 19.34 16.81 19.34 14.29 21.86 14.29 21.86 13.45 19.34 13.45 19.34 11.77 22.7 11.77 22.7 10.93 18.5 10.93 18.5 16.81"/>
    </g>
</symbol>

</svg>