<?xml version="1.0" encoding="utf-8"?>
<!-- Generator: Adobe Illustrator 28.3.0, SVG Export Plug-In . SVG Version: 6.00 Build 0)  -->
<svg version="1.1" id="Ebene_1" xmlns="http://www.w3.org/2000/svg" xmlns:xlink="http://www.w3.org/1999/xlink" x="0px" y="0px"
	 viewBox="0 0 192.8 102" style="enable-background:new 0 0 192.8 102;" xml:space="preserve">
<style type="text/css">
	.st0{fill:#1D1D1B;}
</style>
<g id="Ebene_1_00000047744374931805625590000017589563412683235002_">
	<path class="st0" d="M114.7,83c0.5,1.6,1.4,2.3,3.1,2.3c1.4,0,2.6-0.8,2.6-2.3c0-1.2-0.5-1.8-2.9-2.8c-1.6-0.6-1.8-1-1.8-1.6
		c0-1,0.7-1.6,1.7-1.6c1.1,0,1.8,0.7,2.1,1.6l0.7-0.2c-0.4-1.3-1.4-2.1-2.8-2.1c-1.6,0-2.5,1-2.5,2.2c0,2.9,4.7,2,4.7,4.3
		c0,1-0.6,1.7-1.7,1.7c-1.4,0-2.1-0.6-2.5-1.9L114.7,83L114.7,83z M127.3,85.2v-0.6H123V81h3v-0.6h-3v-3.2h4.1v-0.6h-4.9v8.6
		L127.3,85.2L127.3,85.2z M128.9,85.2h0.8v-8.6h-0.8V85.2L128.9,85.2z M131.4,77.2h2.6v8h0.8v-8h2.6v-0.6h-5.9v0.6H131.4z
		 M145.3,85.2v-0.6h-1.4v-8.1h-0.5l-1.9,0.6v0.5l1.7-0.2v7.3h-1.5v0.6h3.6V85.2z M146.1,83.6c0.5,1.2,1.5,1.7,2.9,1.7
		c1.7,0,3-0.7,3-2.6c0-1.2-0.7-1.8-1.7-2.2c1-0.5,1.4-1,1.4-2c0-1.6-1.5-2.1-2.6-2.1c-0.9,0-1.8,0.4-2.6,1.4l0.6,0.4
		c0.6-0.8,1.2-1.1,2-1.1c1.2,0,1.9,0.5,1.9,1.5c0,1.2-0.8,1.7-2.4,1.7H148v0.6h0.8c1.6,0,2.5,0.6,2.5,1.8c0,1.2-0.7,1.9-2.1,1.9
		c-1.1,0-1.8-0.3-2.3-1.4L146.1,83.6L146.1,83.6z M156.5,76.4c-1.6,0-2.7,0.7-2.7,2.2c0,0.9,0.6,1.6,1.7,2c-1.5,0.7-2,1.5-2,2.3
		c0,1.7,1.2,2.3,3,2.3s3-0.6,3-2.3c0-0.9-0.5-1.7-2-2.3c1.1-0.4,1.7-1.1,1.7-2C159.2,77.2,158.1,76.4,156.5,76.4L156.5,76.4z
		 M154.2,83c0-0.9,0.8-1.4,2.3-2c1.4,0.6,2.3,1.1,2.3,2c0,1.2-1,1.7-2.3,1.7S154.2,84.1,154.2,83L154.2,83z M154.5,78.6
		c0-1,0.8-1.5,1.9-1.5c1.1,0,1.9,0.5,1.9,1.5c0,0.9-0.8,1.5-1.9,1.8C155.4,80.1,154.5,79.5,154.5,78.6L154.5,78.6z M166.2,77.2
		c-0.6-0.5-1.3-0.7-2-0.7c-2.4,0-3.5,2.6-3.5,4.8c0,2,0.6,4.1,3,4.1c1.6,0,2.9-1,2.9-2.7c0-1.6-1-2.8-2.8-2.8
		c-0.9,0-1.8,0.5-2.3,1.1c0-1.6,0.7-3.9,2.6-3.9c0.7,0,1.3,0.1,1.7,0.7L166.2,77.2L166.2,77.2z M165.9,82.5c0,1.3-0.8,2.2-2.1,2.2
		s-2.2-1-2.2-2.6c0-0.3,0.9-1.7,2.2-1.7C165.1,80.4,165.9,81.3,165.9,82.5L165.9,82.5z"/>
	<path class="st0" d="M115.3,64.6h4.1l-4.5,7.4v0.6h5.6V72h-4.6l4.5-7.3V64h-5.1V64.6L115.3,64.6z M122.2,64v5.8c0,2,1,2.9,3.1,2.9
		s3.1-1,3.1-2.9V64h-0.8v5.9c0,1.7-0.8,2.2-2.3,2.2s-2.3-0.6-2.3-2.2V64H122.2L122.2,64z M130.8,72.6h0.8v-2.9l1.6-1.9l2.7,4.8h0.9
		l-3.1-5.3l2.8-3.3h-1l-4,4.7V64h-0.8v8.6H130.8z M138.2,64v5.8c0,2,1,2.9,3.1,2.9s3.1-1,3.1-2.9V64h-0.8v5.9c0,1.7-0.8,2.2-2.3,2.2
		s-2.3-0.6-2.3-2.2V64H138.2L138.2,64z M146.8,72.6h0.8v-8l0,0l4.6,8h0.8V64h-0.8v7.2l0,0l-4.1-7.2h-1.3V72.6L146.8,72.6z
		 M156.2,72.6v-4.2h3.1v-0.6h-3.1v-3.2h4.3V64h-5.1v8.6H156.2L156.2,72.6z M161.3,64.6h2.6v8h0.8v-8h2.6V64h-5.9v0.6H161.3z"/>
	<path class="st0" d="M116.6,60.1v-3.9h3.5v3.9h1.7v-9h-1.7v3.6h-3.5v-3.6h-1.7v9H116.6L116.6,60.1z M130,60.1v-1.4h-4.4v-2.5h3.1
		v-1.4h-3.1v-2.2h4.3v-1.4h-6v9L130,60.1L130,60.1z M133.4,60.1v-9h-1.7v9H133.4L133.4,60.1z M135.6,60.1h3c2.4,0,4-1.3,4-4.5
		s-1.7-4.5-4-4.5h-3V60.1L135.6,60.1z M137.4,52.5h1.2c2,0,2.4,1.4,2.4,3.1s-0.5,3.1-2.4,3.1h-1.2V52.5L137.4,52.5z M150.2,60.1
		v-1.4h-4.4v-2.5h3.1v-1.4h-3.1v-2.2h4.2v-1.4h-6v9L150.2,60.1L150.2,60.1z M157.3,60.1v-1.4h-3.9v-7.6h-1.7v9H157.3L157.3,60.1z
		 M158.6,60.1h3.3c2.3,0,3.3-1,3.3-2.4s-0.4-1.9-1.6-2.4c1-0.4,1.4-1.1,1.4-2c-0.1-1.6-1.3-2.2-3.1-2.2h-3.3L158.6,60.1L158.6,60.1z
		 M160.3,56.1h1.7c1,0,1.4,0.5,1.4,1.3c0,0.9-0.4,1.3-1.4,1.3h-1.7V56.1L160.3,56.1z M160.3,52.5h1.7c0.8,0,1.2,0.5,1.2,1.1
		s-0.4,1.1-1.2,1.1h-1.7V52.5L160.3,52.5z M173.1,60.1v-1.4h-4.4v-2.5h3.1v-1.4h-3.1v-2.2h4.2v-1.4h-6v9L173.1,60.1L173.1,60.1z
		 M176.3,60.1v-3.7h1.5l1.7,3.7h1.9l-2-4c1.1-0.3,1.7-1.2,1.6-2.3c0-1.5-0.8-2.7-2.9-2.7h-3.6v9H176.3L176.3,60.1z M176.3,52.5h1.6
		c1,0,1.5,0.4,1.5,1.3c0,0.9-0.4,1.3-1.8,1.3h-1.3V52.5L176.3,52.5z M189.3,53.2c-0.4-1.3-1.5-2.3-3.3-2.3c-2.9,0-3.8,2.5-3.8,4.8
		c0,2.5,1.1,4.5,3.6,4.5c0.9,0,1.6-0.2,2.3-1v0.9h1.2v-4.6h-3.4V57h1.7c0,1-0.8,1.8-1.9,1.8c-1.2,0-1.9-1.2-1.9-3.1
		c0-2,0.6-3.3,1.9-3.3c0.9,0,1.4,0.4,1.8,1.3L189.3,53.2L189.3,53.2z"/>
	<path class="st0" d="M120.1,43.9c0,1.5-0.6,2-1.7,2c-1.2,0-1.7-0.5-1.7-2v-5.7H115v5.6c0,2.6,1.6,3.5,3.5,3.5
		c1.8,0,3.5-0.9,3.5-3.5v-5.6h-1.7v5.7H120.1z M125.5,47.2v-6.4l0,0l3.7,6.4h1.7v-9h-1.6v6.1l0,0l-3.6-6.1h-1.8v9H125.5L125.5,47.2z
		 M134.8,47.2v-9h-1.7v9H134.8L134.8,47.2z M138.6,47.2h1.9l2.4-9h-1.7l-1.7,6.6l0,0l-1.6-6.6h-1.7L138.6,47.2L138.6,47.2z
		 M150.2,47.2v-1.4h-4.4v-2.5h3.1v-1.4h-3.1v-2.2h4.2v-1.4h-6v9L150.2,47.2L150.2,47.2z M153.3,47.2v-3.7h1.5l1.7,3.7h1.9l-2-4
		c1.1-0.3,1.7-1.2,1.6-2.3c0-1.5-0.8-2.7-2.9-2.7h-3.6v9H153.3L153.3,47.2z M153.3,39.6h1.6c0.9,0,1.5,0.4,1.5,1.3
		c0,0.9-0.4,1.3-1.8,1.3h-1.3V39.6L153.3,39.6z M165.8,40.1c-0.5-1.3-1.7-2-3.2-2c-1.6,0-2.9,0.9-2.9,2.5c0,2.8,4.7,2.4,4.7,4.2
		c0,0.9-0.7,1.2-1.5,1.2c-1,0-1.6-0.6-2-1.4l-1.4,0.6c0.5,1.3,1.9,2.1,3.4,2.1c2,0,3.2-0.9,3.2-2.8c0-2.9-4.7-2.6-4.7-4.2
		c0-0.7,0.5-1,1.3-1s1.4,0.5,1.6,1.2L165.8,40.1L165.8,40.1z M169.5,47.2v-9h-1.7v9H169.5L169.5,47.2z M171,38.2v1.4h2.4v7.6h1.7
		v-7.6h2.4v-1.4H171L171,38.2z M180.9,39.9L180.9,39.9l1,3.9h-2.1L180.9,39.9L180.9,39.9z M177.2,47.2h1.7l0.5-1.9h2.8l0.5,1.9h1.7
		l-2.6-9h-2.2L177.2,47.2L177.2,47.2z M178.9,36.1v1.4h1.5v-1.4H178.9L178.9,36.1z M181.3,36.1v1.4h1.5v-1.4H181.3L181.3,36.1z
		 M184.2,38.2v1.4h2.4v7.6h1.7v-7.6h2.4v-1.4H184.2L184.2,38.2z"/>
	<polygon class="st0" points="107.6,100.6 107.6,1.4 107.9,1.4 107.9,100.6 	"/>
</g>
<g id="Ebene_21">
	<g>
		<g>
			<g>
				<path class="st0" d="M51,1.4C23.6,1.4,1.4,23.6,1.4,51s22.2,49.6,49.6,49.6s49.6-22.2,49.6-49.6S78.4,1.4,51,1.4z M56.4,12.4
					c0.4,0.1,0.9,0.1,1.3,0.2v2.8l-1.3-2V12.4z M58.1,86.8l-0.5,0.4v0.5h0.5v0.6h-0.5v0.5H57v-0.5h-0.5v-0.6H57v-0.5l0,0l-0.5-0.4
					h-1.7l-0.5,0.4l0,0v0.5H55v0.6h-0.5v0.5h-0.6v-0.5h-0.5v-0.6h0.5v-0.5l-0.5-0.4h-1.6l-0.5,0.4v0.5h0.5v0.6h-0.5v0.5h-0.6v-0.5
					h-0.5v-0.6h0.5v-0.5l0,0l-0.5-0.4h-1.6l-0.5,0.4v0.5h0.5v0.6h-0.5v0.5h-0.6v-0.5H47v-0.6h0.5v-0.5L47,86.8h-1.6L45,87.2v0.5h0.5
					v0.6H45v0.5h-0.6v-0.5h-0.5v-0.6h0.5v-0.5L44,86.8h-4.7c0.2,0.2,1.7,1.5,2.4,2.1c-1.3-0.3-2.6-0.7-3.9-1.2l0,0V87l0.3-0.3L39,86
					h8.5c0.2,0.2,0.5,0.4,0.8,0.5c0.1,0,0.1,0,0.2,0c0.2,0,0.4,0,0.5-0.1c0.2,0,0.3-0.1,0.5-0.2c0.1,0,0.2-0.1,0.4-0.2l0,0h3.9
					c0.1,0.1,0.1,0.1,0.2,0.2c0.4,0.3,0.8,0.4,1.1,0.4l0,0c0.4,0,0.7-0.1,0.9-0.2c0.1,0,0.2-0.1,0.3-0.3H63l1.2,1.1V88
					c-0.1,0-0.2,0.1-0.3,0.1c-1.2,0.4-2.4,0.8-3.6,1.1c0.6-0.6,1.8-1.8,2.1-2.2h-4.3V86.8z M58.7,89.3c-2.5,0.5-5,0.8-7.7,0.8
					c-2.6,0-5.2-0.3-7.7-0.8H58.7z M47.2,22.8v2.4h-4.8v-2.4H47.2z M44.4,22.3v-3.9c0-0.2,0.1-0.3,0.2-0.4c0.1-0.1,0.3-0.2,0.5-0.2
					c0.3,0,0.6,0.3,0.6,0.6v3.9H44.4z M46.2,18.4c0-0.2,0.1-0.3,0.2-0.5c0.1-0.1,0.2-0.2,0.3-0.2s0.3,0.1,0.4,0.2
					c0.1,0.1,0.2,0.3,0.2,0.4l0,0v3.9h-1L46.2,18.4L46.2,18.4z M51,22.8L51,22.8h3v2.4h-6v-2.4H51z M48,22.3v-3.9l0,0
					c0-0.4,0.3-0.6,0.5-0.6c0.1,0,0.2,0.1,0.3,0.2s0.2,0.3,0.2,0.4v3.9H48z M49.6,22.3v-3.9c0-0.3,0.3-0.6,0.6-0.6s0.6,0.3,0.6,0.6
					l0,0v3.9H49.6z M51.3,22.3v-3.9l0,0c0-0.4,0.3-0.6,0.6-0.6s0.6,0.3,0.6,0.6v3.9H51.3z M51,41L51,41L51,41L51,41
					c-0.6,0-1.2,0.1-1.7,0.2l1.7-2.6l1.7,2.6C52.2,41,51.6,41,51,41z M52.4,41.6v2.9c-0.4-0.1-0.7-0.1-1.1-0.2v-2.9
					C51.7,41.5,52,41.6,52.4,41.6z M50.7,41.5v2.9c-0.4,0-0.9,0.1-1.3,0.2v-2.9C49.9,41.6,50.3,41.5,50.7,41.5z M51,37.6l-2.5,3.8
					c-0.2,0.1-0.3,0.1-0.5,0.2v-1l3-4.6l3,4.5v1.1c-0.2-0.1-0.3-0.1-0.5-0.2L51,37.6z M51,33.4l3,4.5v1.6L51,35l-3,4.6v-1.5L51,33.4
					z M48,37v-7.7c0-0.3,0.3-0.6,0.6-0.6s0.6,0.3,0.6,0.6v5.8L48,37z M50.8,30v2.1h-0.9v-2.8c0-0.2,0.1-0.4,0.3-0.6
					c0.2-0.1,0.4-0.2,0.6-0.2v0.6c-0.2,0.1-0.2,0.3-0.2,0.4C50.5,29.8,50.6,29.9,50.8,30z M50.6,33l-0.8,1.3v-1.8
					C50,32.7,50.3,32.9,50.6,33z M51.3,29.2v-0.6c0.2,0,0.4,0.1,0.6,0.2c0.2,0.2,0.3,0.3,0.3,0.6l0,0v2.8h-0.9V30
					c0.1-0.1,0.2-0.3,0.2-0.4C51.5,29.4,51.4,29.2,51.3,29.2z M52.2,32.5v1.7L51.4,33C51.7,32.9,52,32.7,52.2,32.5z M52.8,35.1v-5.7
					c0-0.3,0.3-0.6,0.6-0.6s0.6,0.3,0.6,0.6V37L52.8,35.1z M53,41.8c0.4,0.1,0.8,0.2,1.1,0.4v3c-0.4-0.2-0.7-0.4-1.1-0.5V41.8z
					 M54,22.3h-1v-3.9l0,0c0-0.2,0.1-0.3,0.2-0.5c0.1-0.1,0.2-0.2,0.3-0.2s0.3,0.1,0.4,0.2c0.1,0.1,0.2,0.3,0.2,0.4v4H54z M54,25.8
					v2.6c-0.2-0.1-0.4-0.2-0.6-0.2c-0.3,0-0.7,0.2-0.9,0.4c-0.1-0.1-0.2-0.2-0.3-0.3c-0.3-0.2-0.6-0.3-0.9-0.3v-0.3h0.5v-0.5h-0.5
					v-0.5h-0.5v0.5h-0.5v0.5h0.5V28c-0.4,0-0.7,0.1-0.9,0.3c-0.1,0.1-0.2,0.2-0.3,0.3c-0.2-0.2-0.5-0.4-0.9-0.4
					c-0.2,0-0.4,0.1-0.6,0.2v-2.6H54z M48.9,41.8v3c-0.4,0.1-0.7,0.3-1.1,0.5v-3.1C48.2,42.1,48.5,41.9,48.9,41.8z M51,44.9
					c1.6,0,3,0.6,4,1.6s1.7,2.4,1.7,3.8c0,2.1-1.3,3.9-3.3,5c0-0.1,0-0.2,0-0.4c0.1-0.7,0.8-2,0.8-2s0.5,0.1,0.7-0.3
					c0.2-0.4,0-0.7,0-0.7s0.5-0.2,0.6-0.6c0.1-0.7-0.5-0.8-0.5-0.8s0.3-0.3,0.1-0.8s-0.8-0.4-0.8-0.4s0.1-0.3-0.3-0.6
					c-0.4-0.3-0.7-0.1-0.7-0.1s-0.1-0.2-0.4-0.3c-0.3-0.1-0.5,0-0.5,0s-0.1-0.1-0.4-0.2c-0.3,0-0.5,0.1-0.5,0.1s-0.3-0.3-0.6-0.3
					s-0.6,0.3-0.6,0.3s0.1-0.2-0.2-0.2c-0.3,0-0.5,0.2-0.5,0.2s-0.2-0.1-0.5,0s-0.4,0.4-0.4,0.4s-0.2-0.2-0.7,0.1
					c-0.4,0.2-0.3,0.6-0.3,0.6s-0.4-0.1-0.7,0.3c-0.3,0.4,0,0.9,0,0.9s-0.6,0.1-0.5,0.8c0.1,0.6,0.6,0.8,0.6,0.8s-0.1,0.4,0.1,0.7
					C47.3,53,47.7,53,48,53c0.1,0.2,0.4,1.7,0.5,2.2l0,0c-0.3-0.2-0.6-0.4-0.6-0.4c-1.6-1.1-2.4-2.7-2.4-4.4c0-1.5,0.6-2.8,1.6-3.8
					S49.5,44.9,51,44.9z M62.7,29.7v-0.5h-0.5v0.5h-0.5v0.5h0.5v1.6l-1.4,2.1V23.4l3.2,4.8v5.6l-1.3-2v-1.6h0.5v-0.5
					C63.2,29.7,62.7,29.7,62.7,29.7z M62.4,32.4l1.6,2.4v1.4c-0.2-0.1-0.4-0.2-0.6-0.2c-0.4,0-0.7,0.2-0.9,0.4
					c-0.2-0.3-0.6-0.4-0.9-0.4c-0.2,0-0.5,0.1-0.7,0.2v-1.3L62.4,32.4z M64,37v12.7l-1.3-2V37.1l0,0c0-0.3,0.3-0.6,0.7-0.6
					C63.7,36.5,64,36.7,64,37z M60.8,37.1c0-0.3,0.3-0.6,0.7-0.6s0.6,0.3,0.7,0.6v10.6l-1.3,2L60.8,37.1L60.8,37.1z M62.4,48.3
					l1.6,2.4v4.6c-0.2-0.1-0.4-0.2-0.6-0.2c-0.4,0-0.7,0.2-1,0.4c-0.2-0.3-0.6-0.4-1-0.4c-0.2,0-0.4,0.1-0.6,0.2v-4.6L62.4,48.3z
					 M62.7,81.6V69.5H64V78l-1.3,2.3V81.6C62.7,81.7,62.7,81.6,62.7,81.6z M62.7,84.5v0.6h-0.4l0.1-0.1
					C62.6,84.9,62.7,84.7,62.7,84.5z M62.7,68.3v-12l0,0c0-0.2,0.1-0.3,0.2-0.4c0.1-0.1,0.3-0.2,0.5-0.2c0.3,0,0.6,0.3,0.6,0.6l0,0
					v11.9h-1.3V68.3z M61.4,55.7c0.2,0,0.4,0.1,0.5,0.2c0.1,0.1,0.2,0.3,0.2,0.4v11.9h-1.3v-12C60.9,55.9,61.1,55.7,61.4,55.7z
					 M62.1,69.5v11.7c0-0.1-0.1-0.2-0.1-0.2c-0.5-0.4-0.9-0.9-1.1-1.3l0,0l0,0l0,0V69.5H62.1z M61.6,81.4c0.4,0.4,0.8,0.7,1,0.9
					c-0.1,0.6-0.2,1.3-0.3,1.8c-0.1,0.3-0.2,0.5-0.3,0.6s-0.2,0.2-0.3,0.2c-0.2,0-0.3-0.1-0.4-0.2c-0.3-0.4-0.4-1.4-0.4-1.9v-0.5
					l0,0l0,0c-0.4-0.2-0.9-0.3-1.5-0.9c-0.5-0.5-1.1-1.5-1.4-3.4c-0.1-0.7-0.2-2.1-0.4-3.5s-0.4-2.9-0.7-3.7L56.5,71
					c0.3,0.6,0.5,2.1,0.7,3.5s0.3,2.9,0.4,3.5c0.3,1.9,0.9,3,1.5,3.7c0.5,0.5,1,0.7,1.4,0.9c-0.1,0.1-0.3,0.3-0.4,0.5
					c-0.3,0.4-0.7,0.9-1.1,1.4c-0.4,0.4-0.8,0.7-1.1,0.7c-0.2,0-0.4-0.1-0.6-0.3c-0.9-0.9-1.8-1.3-2.7-1.3c-0.6,0-1.3,0.2-1.8,0.7
					c-0.3,0.3-0.6,0.4-0.9,0.4c-0.3,0-0.7-0.1-1.1-0.6c-0.1-0.1-0.5-0.5-0.4-0.4s-0.4-0.4-0.7-0.5s-0.6-0.1-0.8-0.1s-0.5,0-1,0.2
					s-1,0.5-1.7,1.1c-0.5,0.4-0.9,0.5-1.3,0.5c-0.5,0-1-0.3-1.3-0.7c-0.3-0.4-0.5-0.6-0.7-0.7s-0.4-0.2-0.6-0.2
					c0.9-2.3,2.4-6.7,2.8-8.4c0.2-1,0.5-2,0.7-3c0.2-0.8,0.5-1.8,1.4-2.4c0.4-0.1,0.7-0.2,1.1-0.2c0.2,0,0.4,0,0.5,0.1
					c0.4,0.2,1,0.5,1.5,0.9c0.6,0.3,1.2,0.7,1.8,0.7c1.2,0,2.5-0.7,2.8-0.9c0.1-0.1,0.2-0.1,0.4-0.2s0.3-0.1,0.5-0.2
					c0,0,0.1,0,0.1-0.1c0.2-0.1,0.5-0.2,0.8-0.2c0.1,0,0.3,0,0.4,0.1c0.1,0,0.3,0.2,0.5,0.5c0.5,0.9,0.9,2.6,1,3.5
					c0.2,1.2,0.5,3,0.9,4.5c0.1,0.4,0.3,0.9,0.5,1.3c0.1,0.2,0.2,0.4,0.3,0.5c0,0,0,0,0.1,0.1C60.7,80.5,61.1,81,61.6,81.4z
					 M61,85.1h-1.9c0.2-0.2,0.4-0.5,0.6-0.7c0.3-0.3,0.5-0.7,0.7-0.9c0,0.3,0.1,0.5,0.1,0.8C60.6,84.6,60.7,84.8,61,85.1
					C60.9,85.1,61,85.1,61,85.1z M56.6,85.1h-0.4c0-0.1-0.1-0.3-0.2-0.5C56.3,84.8,56.4,85,56.6,85.1z M55.2,84.4
					c0.4,0.6,0.5,1,0.5,1.2c0,0.1,0,0.2,0,0.2l0,0c-0.1,0.1-0.3,0.2-0.6,0.2c-0.2,0-0.5-0.1-0.8-0.3c-0.3-0.2-0.6-0.6-0.7-0.8
					c-0.1-0.1-0.1-0.2-0.2-0.3c0.4-0.3,0.8-0.4,1.2-0.4l0,0l0.4,1.1l0.5-0.2L55.2,84.4z M53.1,85.1h-0.6c0.2-0.1,0.3-0.2,0.5-0.3
					C53,85,53,85.1,53.1,85.1z M51.3,85.1h-1c0-0.2,0-0.4,0-0.6v-0.1c0,0,0.1,0,0.1,0.1C50.7,84.8,51,85,51.3,85.1z M49.2,85.3
					l0.4-1.3l0.1,0.1c0,0.1,0,0.3,0,0.5c0,0.3,0,0.7-0.1,0.8c0,0-0.1,0.1-0.2,0.2c-0.1,0.1-0.2,0.2-0.3,0.2c0,0-0.1,0.1-0.3,0.1
					c-0.1,0-0.3,0.1-0.4,0.1h-0.1c-0.2,0-0.4-0.2-0.6-0.4c-0.1-0.1-0.1-0.2-0.1-0.4c0-0.4,0.2-0.9,0.4-1.2l0.1-0.1
					c0.1,0,0.2-0.1,0.3-0.1l0,0c0.1,0,0.1,0,0.2,0c0.1,0,0.2,0,0.3,0h0.2l-0.5,1.4L49.2,85.3z M47.1,85.1H46
					c0.1-0.1,0.3-0.2,0.4-0.3c0.3-0.2,0.6-0.4,0.8-0.6C47.2,84.5,47.1,84.8,47.1,85.1L47.1,85.1z M39.6,82c1.1-1,2.2-2.7,2.9-4
					c1.1-1.9,1.7-4.5,2-5.5c0.4-1.3,0.8-1.8,1.3-2.2c-0.3,0.5-0.4,1.1-0.6,1.5c-0.3,1-0.5,2-0.7,3c-0.4,1.8-2.1,6.9-3,8.9
					c-0.2,0.2-0.3,0.5-0.4,0.7c-0.1,0.2-0.3,0.4-0.6,0.5h-0.1c-0.2,0-0.4-0.1-0.6-0.6C39.7,83.8,39.6,83,39.6,82z M39.8,85.1h-0.5
					v-0.9c0,0.1,0,0.2,0.1,0.2C39.5,84.7,39.6,85,39.8,85.1z M41.2,69.5v9.6c-0.4,0.6-0.9,1.2-1.3,1.8V69.5H41.2z M39.9,68.3v-12
					c0-0.2,0.1-0.3,0.2-0.4c0.1-0.1,0.3-0.2,0.5-0.2c0.3,0,0.6,0.3,0.6,0.6v12C41.2,68.3,39.9,68.3,39.9,68.3z M41.2,49.7l-1.3-2
					V37.1l0,0c0-0.3,0.3-0.6,0.6-0.6c0.2,0,0.4,0.1,0.5,0.2c0.1,0.1,0.2,0.3,0.2,0.4V49.7z M45,27.2v-0.5h-0.5v0.5H44v0.5h0.5v1
					l-2,3.1v-6h4.8v6.3L45,28.7v-1h0.5v-0.5H45z M44.7,29.3l2.5,3.8l0,0c-0.3-0.3-0.7-0.4-1.1-0.4c-0.5,0-1,0.3-1.3,0.7
					c-0.3-0.4-0.7-0.7-1.3-0.7c-0.4,0-0.7,0.1-1,0.4v-0.3L44.7,29.3z M46.5,54.9c0.6,0,1,0.4,1,1L47.2,56l0.1,0.3c0,0.1,0,0.1,0,0.1
					c0,0.2-0.1,0.2-0.2,0.2c-0.1,0-0.2-0.1-0.3-0.2v-0.1l-0.1-0.2l-1.1,0.4c-0.1-0.2-0.2-0.4-0.2-0.6C45.4,55.3,45.9,54.9,46.5,54.9
					z M46.4,54.6v-0.3c0.1,0.1,0.2,0.2,0.3,0.3C46.6,54.6,46.5,54.6,46.4,54.6L46.4,54.6z M47.8,56.4L47.8,56.4l0.3-0.1l0.7,1.8
					l-0.2,0.1c-0.2-0.2-0.4-0.4-0.7-0.4c-0.4,0-0.8,0.3-0.9,0.8l0,0l-0.3,0.1l-0.6-1.9l0.3-0.1c0.2,0.2,0.4,0.4,0.7,0.4
					c0.2,0,0.4-0.1,0.5-0.2C47.7,56.8,47.8,56.6,47.8,56.4z M47.7,55.4c0.1,0.1,0.2,0.2,0.4,0.3l-0.3,0.1
					C47.8,55.6,47.7,55.5,47.7,55.4z M54.2,56.3v0.4c-0.2-0.3-0.4-0.6-0.6-0.8c0.2-0.1,0.4-0.2,0.6-0.4c0,0.1-0.1,0.3-0.1,0.4
					C54.1,56,54.2,56.2,54.2,56.3z M53.9,57.2c-0.1,0.1-0.4,0.4-0.6,0.6c-0.3,0.3-0.7,0.6-0.8,1.2c0,0,0,0.1,0,0.2
					c0,0.2,0.2,0.5,0.4,1.1c0.3,0.8,0.8,1.8,1.3,2.8c0.2,0.5,0.5,0.9,0.7,1.2c0.2,0.3,0.3,0.6,0.6,0.7c0.2,0.2,0.4,0.3,0.7,0.4
					c0.7,0.2,1.3,0.4,1.5,1l0.5-0.2c-0.4-0.9-1.2-1.1-1.9-1.3c0,0,0,0-0.1,0v-0.1c0-0.5,0.2-1.5,0.2-1.9l-0.5-0.1
					c-0.1,0.4-0.2,1.1-0.2,1.8c-0.1-0.1-0.2-0.2-0.2-0.4c-0.3-0.6-0.5-1.5-0.5-2.4c-0.1-0.9-0.1-1.7-0.2-2.2l-0.5,0.1
					c0.1,0.5,0.1,1.6,0.2,2.7c-0.1-0.3-0.2-0.5-0.4-0.8c-0.3-0.6-0.5-1.1-0.7-1.5s-0.3-0.7-0.3-0.8c0,0,0,0,0-0.1
					c0-0.2,0.2-0.5,0.6-0.8c0.2-0.2,0.4-0.3,0.6-0.5c2.1,2.8,4.1,6.4,4.5,8.1c0,0.1,0,0.3,0,0.4c0,0.8-0.5,1.4-1,1.8
					c-0.2,0.1-0.3,0.2-0.5,0.3c0-0.1,0-0.1,0-0.2c0-0.3-0.1-0.8-0.3-1.2c-0.1-0.2-0.3-0.3-0.4-0.4c-0.3-0.2-0.7-0.4-1.2-0.5l0,0
					h-0.1l0,0l0,0h-0.1l0,0c0,0-0.2-0.1-0.3-0.3c-0.4-0.7-1.1-2.1-1.7-3.8c-0.5-1.5-0.9-3.1-1.1-4c0.2-0.1,0.4-0.2,0.6-0.3
					c0.2-0.1,0.4-0.4,0.5-0.7c0-0.2,0.1-0.3,0.1-0.5C53.5,56.7,53.7,57,53.9,57.2z M55.5,54.9c0.6,0,1,0.5,1,1c0,0.6-0.5,1-1,1
					c-0.6,0-1-0.5-1-1C54.4,55.3,54.9,54.9,55.5,54.9z M55.4,54.6c0.1-0.1,0.1-0.1,0.2-0.2v0.2C55.5,54.6,55.5,54.6,55.4,54.6
					L55.4,54.6z M57,44.4V49c-0.2-0.7-0.5-1.4-0.9-2v-3.5C56.4,43.8,56.7,44.1,57,44.4z M56.1,42.8l0.9-1.4v2.2
					C56.7,43.3,56.4,43,56.1,42.8z M57,56.4v4.5c-0.3-0.5-0.6-1-0.9-1.5l0,0v-2.3c0.4-0.2,0.7-0.7,0.7-1.2s-0.3-0.9-0.7-1.2v-1
					c0.4-0.6,0.7-1.2,0.9-1.9v3.6c-0.1,0.1-0.1,0.3-0.1,0.5S57,56.2,57,56.4z M55.5,57.2v1.3c-0.3-0.4-0.5-0.8-0.8-1.1V57
					C54.9,57.2,55.2,57.2,55.5,57.2L55.5,57.2z M58.3,68.3c0.5-0.5,1-1.2,1-2.1c0-0.2,0-0.3,0-0.5l0,0l0,0c-0.1-0.4-0.3-0.9-0.5-1.5
					v-7.1c0.4-0.2,0.7-0.6,0.8-1.1v12.3C59.6,68.3,58.3,68.3,58.3,68.3z M59.6,69.5V76c-0.2-0.9-0.3-1.9-0.5-2.6
					c-0.1-0.6-0.3-1.6-0.6-2.4c-0.1-0.4-0.3-0.9-0.5-1.2c-0.1-0.1-0.1-0.2-0.2-0.3H59.6z M57.6,44.2v-2.8l2,3.1v3.8
					C59.1,46.7,58.4,45.3,57.6,44.2z M59.6,52.2v3.7c0-0.5-0.3-0.9-0.8-1.1v-7.1C59.3,48.9,59.6,50.5,59.6,52.2z M58.3,46.3v8.3l0,0
					c-0.3,0-0.5,0.1-0.7,0.2v-9.6C57.8,45.5,58,45.9,58.3,46.3z M57.6,40.4v-1.9l2,3.1v1.9L57.6,40.4z M57.6,37.5v-3.3l0,0l0,0v-0.1
					c0-0.5,0.4-1,1-1s1,0.4,1,1l0,0v6.4L57.6,37.5z M58.5,32.7c-0.5,0-1,0.3-1.3,0.7c-0.3-0.4-0.8-0.7-1.3-0.7
					c-0.4,0-0.8,0.2-1.1,0.4l2.5-3.8l2.2,3.4V33C59.3,32.8,58.9,32.7,58.5,32.7z M58.3,54.9c0.6,0,1,0.5,1,1c0,0.6-0.5,1-1,1
					c-0.6,0-1-0.5-1-1C57.2,55.3,57.7,54.9,58.3,54.9z M58.3,57.2V63c-0.2-0.4-0.4-0.8-0.7-1.3V57C57.8,57.2,58,57.2,58.3,57.2
					L58.3,57.2z M55.2,68l-2.1,1.1c0,0,0-0.1,0-0.2s0-0.2,0-0.2l1.8-1l-0.2-0.3l-1.6,0.8c0.1-0.2,0.4-0.6,0.5-0.7
					c0.2-0.2,0.5-0.3,1.6-1h0.1c0.2,0.1,0.6,0.2,0.9,0.4c0.4,0.3,0.5,0.8,0.5,1.2c0,0.1,0,0.2,0,0.4c-0.3,0.2-1.1,0.5-1.1,0.5
					l-0.1-0.3l-1.9,1.1c0,0-0.2-0.2-0.3-0.3l2-1.2L55.2,68z M50.8,68.9h-0.2c-0.7-0.1-1.3-0.6-1.3-1.3c0-0.1,0-0.1,0-0.2
					c0.1-0.7,0.6-1.2,1.4-1.2c0.1,0,0.2,0,0.3,0h0.2l0.1-0.1c0.2-0.3,0.6-0.5,1-0.6c0.3,0,0.6,0,0.9,0.2c0.6,0.3,0.6,0.9,0.7,1.1
					c-0.1,0.1-0.3,0.2-0.6,0.3c0,0,0,0,0-0.1c0-0.5-0.4-0.9-0.9-0.9c-0.4,0-0.7,0.2-0.8,0.5l-0.3,0.1c-0.1-0.1-0.3-0.1-0.4-0.1
					c-0.5,0-0.9,0.4-0.9,0.9s0.4,0.9,0.9,0.9c0.1,0,0.2,0,0.2,0l0.1,0.1l0,0c0,0.5,0.4,0.9,0.9,0.9c0.2,0,0.3-0.1,0.5-0.2v0.1
					c0.1,0.3,0.4,0.5,0.5,0.6C53,70,52.6,70,52.4,70.1c-0.1,0-0.4,0-0.5,0c-0.5-0.1-1-0.3-1.2-1.1L50.8,68.9z M50.8,70
					c-0.1,0-0.2-0.1-0.2-0.1c-0.3-0.2-0.5-0.3-0.8-0.5h0.6l0,0C50.5,69.7,50.6,69.9,50.8,70z M43.7,54.9c0.6,0,1,0.5,1,1
					c0,0.6-0.5,1-1,1c-0.6,0-1-0.5-1-1C42.7,55.3,43.2,54.9,43.7,54.9z M43.7,54.6v-8.1c0.2-0.5,0.5-0.9,0.8-1.3v9.6
					C44.2,54.7,44,54.6,43.7,54.6L43.7,54.6z M44.4,57v5.4c-0.1,0.3-0.3,0.5-0.4,0.8c-0.1,0.2-0.2,0.5-0.3,0.7v-6.6l0,0
					C44,57.2,44.2,57.2,44.4,57z M43.4,66.1L43.4,66.1L43.4,66.1c0-0.4,0.5-1.4,1.1-2.6c0.6-1.1,1.3-2.3,2-3.5l0.6,1.8l1.2-0.4
					l-0.1-0.2v-0.1c0-0.2,0.1-0.3,0.3-0.3c0.1,0,0.2,0,0.3,0.2l0.1,0.3l0,0c-0.3,0.9-0.9,2.5-1.2,3.2c-0.6,0.5-1.4,1.7-1.8,2.2
					c0.1-1.3,0.7-4.2,0.9-4.7l-0.5-0.2c-0.3,0.9-0.9,3.7-0.9,5.2c0,0.3,0,0.6,0.1,0.8c0.1,0.4,0.5,0.8,1,0.8l0,0
					c0.4,0,0.9-0.2,1.4-0.7c-0.3,0.6-0.9,1.1-1.7,1.3c-0.1,0-0.2,0-0.3,0c-0.5,0-1.2-0.4-1.8-1s-1-1.3-0.9-1.9
					C43.3,66.3,43.3,66.2,43.4,66.1z M47.6,58.7c0-0.2,0.1-0.3,0.3-0.3c0.1,0,0.2,0,0.3,0.2v0.1c0,0.2-0.2,0.3-0.3,0.3
					S47.7,59,47.6,58.7L47.6,58.7C47.6,58.7,47.6,58.7,47.6,58.7z M47.8,59.5L47.8,59.5c0.4,0,0.9-0.3,0.9-0.8l0.3-0.1l0.6,1.8h-0.1
					h-0.1c-0.2-0.2-0.4-0.4-0.7-0.3c-0.4,0-0.8,0.3-0.8,0.8L47.6,61L47,59.2l0.3-0.1C47.3,59.4,47.6,59.5,47.8,59.5z M51.1,56.8
					L51.1,56.8c0.1,0,0.2,0,0.3,0l0,0c0.9-0.1,1.3-0.7,1.4-0.9c0,0.3,0,0.7-0.1,0.9l0,0l0,0c-0.1,0.2-0.1,0.3-0.3,0.4
					c-0.2,0.1-0.4,0.2-0.7,0.3l-0.2,0.1v0.2c0.1,0.2,0.1,0.5,0.2,0.9C51.5,58.9,51.2,59,51,59l0,0c-0.3,0-0.5,0-0.8-0.2
					c0.1-0.4,0.2-0.7,0.3-0.9l0.1-0.2l-0.2-0.1c-0.6-0.2-1-0.8-1.1-1c0-0.1,0-0.3-0.1-0.4c0-0.2,0-0.4,0-0.4S49.7,56.8,51.1,56.8z
					 M50.4,54.6h1.3c0,0.2-0.3,0.5-0.6,0.5C50.7,55.1,50.4,54.8,50.4,54.6z M49.8,59.6l0.2-0.3c0,0,0.5,0.2,0.9,0.2
					c0.5,0,1-0.3,1-0.3c0.2,0.7,1.3,4.9,2.8,7c0,0.1-0.1,0.1-0.3,0.2c-0.4-1.1-1-1.5-2.1-1.5c0-0.4,0-1-0.1-1.4
					c-0.2-0.4-0.4-0.8-0.4-1c-0.1-0.1-0.2-0.3-0.2-0.4c-0.2-0.2-0.3-0.4-0.6-0.4h-0.1h-0.2C50.5,61.5,50,60.3,49.8,59.6z M50.2,62.1
					c-0.1,0-0.2,0.1-0.2,0.1l0,0L49.5,61h0.1l0.2-0.1L50.2,62.1z M49.9,57.9c-0.1,0.3-0.2,0.6-0.3,1l-0.2-0.7l0,0L49,57.1
					C49.2,57.4,49.5,57.7,49.9,57.9z M49.5,62.5c-0.2,0.2-0.3,0.4-0.4,0.6c-0.2,0.3-0.3,0.6-0.5,0.7c0.2-0.5,0.5-1.2,0.7-1.8
					L49.5,62.5z M48.8,67.2L48.8,67.2C48.9,67.2,48.9,67.2,48.8,67.2C48.9,67.2,48.9,67.3,48.8,67.2c0,0.2,0,0.3,0,0.4
					c0,0.5,0.2,1,0.5,1.3h-1.1l0,0c-0.1,0-0.1,0-0.2,0C48.4,68.4,48.7,67.9,48.8,67.2z M49.1,66.4c-0.2,0.1-0.3,0.2-0.4,0.3
					c-0.1,0-0.1,0.1-0.2,0.1c0,0-0.1,0-0.1,0.1c-0.9,0.9-1.5,1.2-1.8,1.1c-0.2,0-0.3-0.1-0.5-0.4c0,0,0-0.1,0-0.2
					c0.2-0.3,0.6-0.9,1.1-1.5c0.5-0.7,1.1-1.4,1.5-1.5c0.5-0.2,0.7-0.7,0.9-1c0.2-0.4,0.4-0.7,0.6-0.7c0.2-0.1,0.8-0.2,0.9-0.3
					c0,0,0.1,0.1,0.2,0.2l-0.6,0.3l0.1,0.4l0.7-0.2c0,0.1,0.1,0.2,0.1,0.3v0.1L51,63.8V64l0.7-0.2c0,0.1,0,0.2,0.1,0.3l-0.6,0.3
					l0.1,0.3l0.5-0.1v0.1c0,0.1,0,0.1,0,0.1l0,0c-0.3,0.1-1.3,0.6-1.8,0.9l0,0C49.8,65.9,49.4,66.1,49.1,66.4z M52.6,68.3L52.6,68.3
					c0,0.2,0,0.4,0,0.5c-0.1,0.1-0.2,0.2-0.3,0.2c-0.2,0-0.4-0.2-0.4-0.4c0,0,0,0,0-0.1v-0.2L51.4,68l-0.1-0.1L51.2,68
					c-0.1,0-0.1,0-0.2,0c-0.2,0-0.4-0.2-0.4-0.4c0-0.2,0.2-0.4,0.4-0.4c0.1,0,0.2,0,0.2,0.1l0.1,0.1l0.6-0.2H52v-0.1
					c0.1-0.2,0.2-0.3,0.4-0.3s0.4,0.2,0.4,0.4c0,0.2-0.1,0.3-0.2,0.4l-0.1,0.1l-0.1,0.6L52.6,68.3L52.6,68.3z M53.2,53
					c0,0-0.1,0.2-0.2,0.5c-0.1,0.2-0.1,0.1-0.4,0.5c0,0-0.4-0.3-0.8-0.4c0-0.3,0-0.5,0-0.5h-0.2v0.5h-0.1v-0.1h-0.2c0,0,0,0.1,0,0.2
					c0,0.2-0.3,0.2-0.3,0c0-0.1,0-0.2,0-0.2h-0.2v0.1h-0.1v-0.5h-0.3v0.5c0,0-0.5,0.1-0.7,0.4c-0.1-0.1-0.7-0.3-0.7-0.9
					c-0.1,0-0.2,0-0.2,0s-0.3-0.7-0.4-1.6c0.3-0.1,0.6-0.6,0.6-0.8c0.2,0.1,0.3,0.2,0.5,0.2s0.5-0.2,0.6-0.3
					c0.2,0.1,0.8,0.3,1.1-0.2c0.1,0.1,0.3,0.3,0.5,0.3s0.6-0.1,0.6-0.1s0.2,0.3,0.6,0.3c0.4,0,0.5-0.2,0.5-0.2s0.4,0.6,0.8,0.8
					c-0.1,0.2-0.3,1.2-0.5,1.6C53.2,53,53.2,53,53.2,53z M45.9,54.7c-0.4,0.2-0.7,0.7-0.7,1.2c0,0.3,0.1,0.6,0.3,0.9l0,0l0.4,1.2
					l0,0v2c-0.3,0.5-0.6,1-0.9,1.5v-4.7l0,0v-0.4c0-0.1,0.1-0.3,0.1-0.4c0-0.1,0-0.3-0.1-0.4V55l0,0v-3.4c0.2,0.7,0.5,1.4,0.9,2
					V54.7z M45,43.6v-2.3l0.9,1.4C45.6,43,45.3,43.3,45,43.6z M45.9,43.5v3.6c-0.4,0.6-0.7,1.3-0.9,2v-4.7
					C45.3,44.1,45.6,43.8,45.9,43.5z M42.4,34.2c0-0.5,0.5-1,1-1s1,0.4,1,1l0,0v0.1v3.3l-2,3.1V34.2L42.4,34.2z M44.4,38.5v1.9
					l-2,3.1v-1.9L44.4,38.5z M44.4,41.4v2.9c-0.9,1.1-1.6,2.5-2,4v-3.8L44.4,41.4z M42.4,52.2c0-1.6,0.3-3.1,0.7-4.4v6.9
					c-0.4,0.2-0.6,0.5-0.7,0.9V52.2L42.4,52.2z M43.1,57.1V65c-0.2,0.4-0.3,0.7-0.3,0.9c0,0.2-0.1,0.3-0.1,0.5
					c0,0.6,0.3,1.3,0.7,1.8h-1.1v-12C42.5,56.6,42.8,56.9,43.1,57.1z M44.9,69.5c0.2,0.1,0.5,0.2,0.8,0.3l-0.1,0.1
					C45,70.3,44.4,71,44,72.3c-0.3,0.9-0.8,2.9-1.6,4.6v-7.5L44.9,69.5L44.9,69.5z M41.8,84.4c0.1-0.2,0.2-0.3,0.2-0.4
					c0.1-0.1,0.1-0.1,0.2-0.1c0.2,0,0.2,0,0.4,0.1c0.1,0.1,0.3,0.2,0.5,0.6c0.2,0.2,0.4,0.4,0.6,0.6h-2.5
					C41.5,84.9,41.7,84.6,41.8,84.4z M59.6,31.7l-2-3.1v-0.9h0.5v-0.5h-0.5v-0.5H57v0.5h-0.5v0.5H57v1l-2.2,3.4v-6.3h4.8V31.7z
					 M55.1,33.5c0.2-0.2,0.5-0.3,0.8-0.3c0.6,0,1.1,0.5,1.1,1v3.3l-2.2,3.4v-6.7C54.8,33.9,54.9,33.7,55.1,33.5z M57,38.5v1.9
					l-1.3,2.1c-0.3-0.2-0.6-0.4-0.9-0.5l0,0L57,38.5z M55.5,43v3.3c-0.3-0.3-0.6-0.6-0.9-0.8v-3.1C54.9,42.6,55.2,42.8,55.5,43z
					 M47.3,45.7c-0.3,0.2-0.6,0.5-0.9,0.8v-3.4c0.3-0.2,0.6-0.4,0.9-0.6V45.7z M46.3,42.5L45,40.4v-1.9l2.2,3.4
					C46.9,42.1,46.6,42.3,46.3,42.5z M45,37.5v-3.3c0-0.6,0.5-1,1.1-1c0.3,0,0.6,0.1,0.8,0.3s0.3,0.4,0.3,0.6v6.8L45,37.5z
					 M43.5,22.3h-1.1v-5l0,0l0,0l0,0l-0.3-0.6v-2h0.5v-0.5h-0.5v-0.5h-0.5v0.5h-0.5v0.5h0.5v2l-0.3,0.6l0,0v5.2L38,27.3v-13
					c1.8-0.6,3.6-1.1,5.5-1.5V22.3z M41.2,23.5v10.4l-1.3-2v-1.6h0.5v-0.5h-0.5v-0.5h-0.5v0.5h-0.5v0.5h0.5v1.6l-1.3,2v-5.5
					L41.2,23.5z M39.6,32.4l1.6,2.4v1.3c-0.2-0.1-0.4-0.2-0.7-0.2c-0.4,0-0.7,0.2-0.9,0.4c-0.2-0.3-0.6-0.4-0.9-0.4
					c-0.2,0-0.5,0.1-0.7,0.2v-1.3L39.6,32.4z M38.7,36.5c0.4,0,0.6,0.3,0.6,0.6v10.6l-1.3,2V37.1C38,36.8,38.3,36.5,38.7,36.5z
					 M39.6,48.3l1.6,2.4v4.6c-0.2-0.1-0.4-0.2-0.6-0.2c-0.4,0-0.7,0.2-1,0.4c-0.2-0.3-0.6-0.4-0.9-0.4c-0.2,0-0.5,0.1-0.7,0.2v-4.6
					L39.6,48.3z M38.7,55.7c0.4,0,0.7,0.3,0.7,0.6v11.9H38v-12C38,56,38.3,55.7,38.7,55.7z M39.3,69.5v12l0,0v-1.3L38,78v-8.5H39.3z
					 M38.5,80.5v4.9L37.9,86v-6.6L38.5,80.5z M63.6,85.4v-4.9l0.6-1.2v6.6L63.6,85.4z M64,27.2l-3.2-4.8v-5.1l0,0l0,0l0,0l0,0
					l-0.3-0.6v-2H61v-0.5h-0.5v-0.5H60v0.5h-0.5v0.5H60v2l-0.4,0.6l0,0v5h-1.1v-9.5c1.9,0.4,3.7,0.9,5.5,1.5V27.2z M59.6,22.8v2.4
					h-4.8v-2.4H59.6z M54.8,22.3v-3.9l0,0c0-0.4,0.3-0.6,0.5-0.6c0.1,0,0.2,0.1,0.3,0.2s0.2,0.3,0.2,0.4v3.9H54.8z M56.4,22.3v-3.9
					l0,0c0-0.3,0.3-0.6,0.6-0.6c0.2,0,0.3,0.1,0.5,0.2c0.1,0.1,0.2,0.3,0.2,0.4l0,0v3.9H56.4z M57.6,16.4v1
					c-0.2-0.1-0.4-0.2-0.7-0.2c-0.4,0-0.7,0.2-0.9,0.4c-0.2-0.2-0.5-0.4-0.8-0.4c-0.2,0-0.5,0.1-0.6,0.3v-1.3L56,14L57.6,16.4z
					 M54.7,11.1c0-0.3,0.3-0.6,0.6-0.6s0.6,0.3,0.6,0.6v2.3l-1.2,1.8L54.7,11.1L54.7,11.1L54.7,11.1z M53,2.7c1,0,1.9,0.1,2.9,0.2
					v5.2l-1.4-3.7L53,8.2V2.7z M53,10L53,10C53,10,53,9.9,53,10V9.7L54.4,6l1.4,3.6v0.6c-0.2-0.1-0.4-0.2-0.6-0.2
					c-0.3,0-0.6,0.2-0.8,0.4c-0.2-0.2-0.5-0.4-0.8-0.4c-0.2,0-0.4,0.1-0.6,0.2C53,10.2,53,10,53,10z M53,11.2c0-0.3,0.3-0.6,0.6-0.6
					s0.6,0.2,0.6,0.6l0,0v4.1L53,13.5V11.2z M54.1,16.2v1.3c-0.2-0.2-0.4-0.3-0.7-0.3s-0.6,0.2-0.8,0.4c-0.2-0.2-0.5-0.4-0.8-0.4
					c-0.2,0-0.4,0.1-0.6,0.2v-1.2l1.4-2.1L54.1,16.2z M51.3,15.2V10c0-0.4,0.3-0.6,0.6-0.6s0.5,0.2,0.6,0.6v3.5L51.3,15.2z
					 M49.6,2.7c0.5,0,1,0,1.4,0c0.5,0,0.9,0,1.4,0v3.9L51,2.9l-1.4,3.6V2.7z M49.6,8L51,4.4L52.4,8v1c-0.2-0.1-0.4-0.2-0.6-0.2
					c-0.3,0-0.6,0.2-0.8,0.4c-0.2-0.2-0.5-0.4-0.8-0.4c-0.2,0-0.4,0.1-0.6,0.2C49.6,9,49.6,8,49.6,8z M49.6,9.9
					c0-0.3,0.3-0.6,0.6-0.6s0.6,0.3,0.6,0.6l0,0v5.2l-1.2-1.8C49.6,13.3,49.6,9.9,49.6,9.9z M50.8,16.2v1.2
					c-0.2-0.1-0.4-0.2-0.6-0.2c-0.3,0-0.6,0.2-0.8,0.4c-0.2-0.2-0.5-0.4-0.8-0.4s-0.5,0.1-0.6,0.3v-1.3l1.4-2.2L50.8,16.2z
					 M47.9,15.2v-4.1c0-0.3,0.3-0.6,0.6-0.6s0.6,0.3,0.6,0.6v2.3L47.9,15.2z M46.2,2.9c0.9-0.1,1.9-0.2,2.9-0.2v5.4l-1.4-3.6
					l-1.4,3.7L46.2,2.9L46.2,2.9z M46.2,9.6L47.6,6L49,9.6v0.3c0,0,0,0,0,0.1l0,0v0.2c-0.2-0.1-0.4-0.2-0.6-0.2
					c-0.3,0-0.6,0.2-0.8,0.4c-0.2-0.2-0.5-0.4-0.9-0.4c-0.2,0-0.4,0.1-0.6,0.2L46.2,9.6L46.2,9.6z M46.2,11.2c0-0.3,0.3-0.6,0.6-0.6
					s0.6,0.3,0.6,0.6l0,0l0,0v4.1l-1.2-1.8C46.2,13.5,46.2,11.2,46.2,11.2z M47.3,16.2v1.3c-0.2-0.2-0.4-0.3-0.7-0.3
					s-0.6,0.2-0.8,0.4c-0.2-0.2-0.5-0.4-0.9-0.4c-0.2,0-0.5,0.1-0.7,0.2v-1l1.5-2.4L47.3,16.2z M44.4,15.4v-2.8
					c0.4-0.1,0.8-0.1,1.3-0.2v1.1L44.4,15.4z M19,60.4h-1.3c0.4-0.2,0.7-0.7,0.7-1.2s-0.3-1-0.7-1.2H19V60.4z M16.5,58
					c-0.4,0.2-0.7,0.7-0.7,1.2s0.3,1,0.7,1.2h-1.2V58H16.5z M15.3,57.2v-2.5l0,0c0-0.2,0.1-0.3,0.2-0.5c0.1-0.1,0.4-0.2,0.6-0.2
					c0.4,0,0.8,0.3,0.8,0.7v2.5H15.3z M16,59.2c0-0.6,0.5-1,1-1c0.6,0,1,0.5,1,1c0,0.6-0.5,1-1,1S16,59.8,16,59.2z M19,57.2h-1.6
					v-2.5c0-0.3,0.3-0.7,0.8-0.7c0.2,0,0.4,0.1,0.6,0.2c0.2,0.1,0.2,0.3,0.2,0.5l0,0V57.2z M19,53.7c-0.2-0.2-0.5-0.3-0.8-0.3
					c-0.4,0-0.8,0.2-1.1,0.5c-0.2-0.3-0.6-0.5-1-0.5c-0.3,0-0.6,0.1-0.8,0.3v-1.3l1.9-2.8l1.9,2.9l0,0v1.2H19z M19,51.5L17.4,49v-1
					h0.5v-0.5h-0.5V47h-0.5v0.5h-0.5V48h0.5v1l-1.6,2.4v-3.9l3.8-5.4L19,51.5L19,51.5z M19,41.2l-3.8,5.4v-6.5l0,0l0,0l-0.4-0.7
					l-0.4,0.7l0,0l0,0v21.1H19v12.2c-4.4-6.3-7-14-7-22.4c0-8.3,2.6-16,7-22.3V41.2z M19,25.9L19,25.9L19,25.9L19,25.9L19,25.9v1.9
					c-4.8,6.5-7.6,14.6-7.6,23.3s2.8,16.8,7.6,23.3v13c-0.8-0.7-1.5-1.4-2.2-2.1C8.1,76.5,2.7,64.4,2.7,51s5.4-25.4,14.2-34.2
					C24.4,9.3,34.4,4.2,45.6,3v8.9c-0.4,0.1-0.8,0.1-1.3,0.2V5.6l0,0L44,5l-0.4,0.5l0,0l0,0l0,0l0,0v6.6c-1.9,0.4-3.7,0.9-5.5,1.5
					v-1.4l0,0l-0.6-1l-0.6,1l0,0v1.9c-1.2,0.5-2.4,1-3.6,1.6v-1.5l-0.8,1.3V16c-2.8,1.5-5.3,3.3-7.6,5.3V20l-0.8,1.3v0.9
					c-1.3,1.2-2.5,2.5-3.6,3.9v-0.2l0,0l-0.6-1L19,25.9z M31.5,88.3v-0.6H32v-0.5h0.6v0.5h0.5v0.6h-0.5v0.5H32v-0.5H31.5z
					 M20.3,86.8V86h15.5l0.9,0.8H20.3z M28.9,88.3v-0.6h0.5v-0.5H30v0.5h0.5v0.6H30v0.5h-0.6v-0.5H28.9z M26.3,88.3v-0.6h0.5v-0.5
					h0.6v0.5h0.5v0.6h-0.5v0.5h-0.6v-0.5H26.3z M23.6,88.3v-0.6h0.5v-0.5h0.6v0.5h0.5v0.6h-0.5v0.5h-0.6v-0.5H23.6z M26,29.7l1,1.5
					v5.4h-0.7v-4.5l0.3-0.4L26,30.9l-0.5,0.8l0.3,0.4v4.5h-1v-5L26,29.7z M24.7,30.6v-8.4c0.3-0.3,0.7-0.6,1-0.9v7.8L24.7,30.6z
					 M32.4,31.6v5h-1v-4.5l0.3-0.4l-0.5-0.8l-0.5,0.8l0.3,0.4v4.5h-0.7v-5.4l1-1.5L32.4,31.6z M31.4,29.1V17.3
					c0.3-0.2,0.7-0.4,1-0.6v13.9L31.4,29.1z M30.4,53v1c-0.4-0.1-0.9-0.1-1.4-0.1l0,0l1.7-2.6l1.7,2.6v0.8c-0.4-0.2-0.9-0.3-1.4-0.5
					V53H30.4z M29,52.9v-7.3c0.1-0.2,0.4-0.3,0.6-0.3c0.5,0,0.8,0.3,0.8,0.7v4.7L29,52.9z M30.9,50.7V46l0,0c0-0.4,0.3-0.7,0.7-0.7
					c0.2,0,0.4,0.1,0.5,0.2c0.1,0.1,0.2,0.3,0.2,0.5l0,0v6.9L30.9,50.7z M31.6,44.8c-0.4,0-0.7,0.2-1,0.5c-0.2-0.3-0.6-0.5-1-0.5
					c-0.2,0-0.5,0.1-0.6,0.2v-0.3l1.6-4.6l1.8,4.8V45C32.1,44.9,31.9,44.8,31.6,44.8z M30.6,38.4L29,43v-5.8h3.4v6.1L30.6,38.4z
					 M30.8,23.8l-1-1.5l-1,1.5V19c0.6-0.5,1.3-0.9,2-1.3V23.8z M29.8,23.2l1,1.5v4.4l-0.7,1.1v-3.8h0.5v-0.5h-0.5v-1h-0.5v1h-0.5
					v0.5h0.5v3.8l-0.7-1.1v-4.4L29.8,23.2z M29.5,31.2v5.4h-0.7v-4.5l0.3-0.4l-0.5-0.8L28,31.8l0.3,0.4v4.5h-0.7v-5.4l1-1.5
					L29.5,31.2z M28.3,23.8l-1-1.5l-1,1.5v-2.9c0.6-0.5,1.3-1,2-1.5V23.8z M27.3,23.2l1,1.5v4.4l-0.7,1.1v-3.8h0.5v-0.5h-0.5v-1H27
					v1h-0.5v0.5H27v3.8l-0.7-1.1v-4.4L27.3,23.2z M28.1,37.2v6l-1.7-4.7l-1.7,4.7v-6H28.1z M26.4,40.1l1.7,4.7V45
					c-0.2-0.1-0.4-0.2-0.6-0.2c-0.4,0-0.8,0.2-1.1,0.5c-0.2-0.3-0.6-0.5-1-0.5c-0.3,0-0.5,0.1-0.7,0.2v-0.2L26.4,40.1z M28.1,45.6
					v7.3l-1.4-2.2V46c0-0.3,0.3-0.7,0.8-0.7C27.8,45.3,28,45.4,28.1,45.6z M25.4,45.3c0.4,0,0.7,0.3,0.7,0.7v4.7l-1.4,2.2v-7
					C24.8,45.6,25.1,45.3,25.4,45.3z M26.4,51.3l1.7,2.6l0,0c-0.5,0-1,0.1-1.4,0.1v-1h-0.5v1.2c-0.5,0.1-1,0.3-1.4,0.5V54L26.4,51.3
					z M28.5,54.4c3.8,0,5.8,1.7,6.9,3.5c0.6,1,0.9,2,1.1,2.7c-0.2-0.1-0.5-0.2-0.8-0.2l0,0h-0.1l0,0c-0.4,0-0.8,0.2-1.1,0.4
					c-0.2-1.3-0.9-2.7-1.8-3.7c-1.1-1.2-2.5-2.1-3.9-2.2c-0.1,0-0.1,0-0.2,0h-0.1l0,0l0,0l0,0l0,0c-0.2,0-0.4,0-0.6,0.1
					c-1.4,0.2-2.6,1.1-3.6,2.2c-0.9,1.1-1.6,2.4-1.9,3.7c-0.3-0.2-0.7-0.4-1.1-0.4l0,0c-0.3,0-0.6,0.1-0.8,0.2
					C20.7,60,21,59,21.6,58C22.7,56.2,24.8,54.4,28.5,54.4z M36,66v-5c0.2,0,0.3,0.1,0.4,0.2c0.2,0.1,0.3,0.3,0.3,0.5V78L36,79.3
					v-9.1c0,0,0,0,0-0.1V66L36,66z M34.6,54.8V56c-0.4-0.4-0.8-0.7-1.4-1l1.6-2.5l1.9,2.9v4c-0.2-0.6-0.5-1.1-0.8-1.7
					c-0.2-0.3-0.5-0.7-0.8-1v-1.8h-0.5V54.8z M35.2,52v-6c0-0.3,0.3-0.7,0.8-0.7c0.2,0,0.4,0.1,0.6,0.2c0.1,0.1,0.2,0.3,0.2,0.5v8.4
					L35.2,52z M36.8,45c-0.2-0.2-0.5-0.2-0.8-0.2c-0.4,0-0.8,0.2-1.1,0.5c-0.2-0.3-0.6-0.5-1-0.5c-0.2,0-0.5,0.1-0.7,0.2l1.8-4.9
					L36.8,45z M35.2,39.2V15.4c0.5-0.2,1-0.4,1.5-0.6v28.7L35.2,39.2z M34.7,39.3l-1.5,4.1V16.3c0.5-0.3,1-0.5,1.5-0.7V39.3z
					 M33.9,45.3c0.4,0,0.7,0.3,0.7,0.7v6l-1.4,2.2V46C33.2,45.6,33.5,45.3,33.9,45.3z M30.3,83.1c0,0.2,0,0.3,0,0.5
					c0,0.1,0,0.1,0,0.1l0,0c0,0,0,0.1-0.1,0.1V81c0-0.5,0.1-1,0.1-1.6l0.1,0.1l0,0l0,0l0.1,0.1c0.1,0.1,0.1,0.2,0.1,0.3
					c0,0.2-0.3,0.7-0.3,1.6C30.3,82,30.3,82.6,30.3,83.1z M24,81.5c0,0-0.1-0.7,0-1c0.1,0,0.1,0.1,0.3,0.1c0.2,0.1,0.3,0.1,0.5,0.1
					c0.4,0,0.8-0.1,1.1-0.1c0.1,0,0.2,0,0.3,0c0.4,0,0.7,0.2,0.9,0.3c0.1,0.1,0.2,0.1,0.3,0.2l0.1,1.5C26.8,82.5,25.1,82,24,81.5z
					 M26.8,83v2.2h-0.9v-2.5C26.2,82.8,26.5,82.9,26.8,83z M25.3,82.5v2.6h-0.9v-3c0,0,0,0,0.1,0C24.7,82.3,25,82.4,25.3,82.5z
					 M23.4,79.7c-0.2-0.1-0.4-0.1-0.5-0.1V61.9c0-0.2,0.1-0.4,0.3-0.6c0.2-0.1,0.4-0.2,0.6-0.3v18.8C23.7,79.8,23.6,79.8,23.4,79.7z
					 M23.8,83v1.1l-0.1-0.5C23.7,83.5,23.7,83.3,23.8,83z M23.1,83.7l0.3,1.1c-0.2-0.1-0.5-0.2-0.8-0.5c-0.2-0.2-0.3-0.6-0.3-1
					c0,0,0,0,0-0.1c0-0.3,0.1-0.8,0.2-1.2c0.1-0.4,0.2-0.7,0.2-0.7c0-0.1,0-0.1,0-0.2c0,0,0-0.1-0.1-0.3c0-0.2-0.1-0.4-0.1-0.5
					s0-0.2,0-0.2c0.1-0.2,0.1-0.2,0.2-0.2l0,0c0.1,0,0.2,0,0.4,0.1c0.1,0,0.2,0.1,0.3,0.1c0,0.1-0.1,0.3-0.1,0.6
					c0,0.2,0,0.5,0.2,0.9c0,0.1-0.1,0.1-0.1,0.2c-0.1,0.3-0.4,1.6-0.4,1.6C23.1,83.6,23.1,83.7,23.1,83.7z M22.1,81.3
					c-0.1,0.3-0.3,1.3-0.4,1.9c0,0,0,0,0,0.1c0,0.5,0.2,1,0.5,1.4c0.2,0.2,0.4,0.3,0.6,0.4h-1.2V61c0.5,0.1,0.7,0.4,0.7,0.8v17.8
					c-0.1,0.1-0.2,0.2-0.3,0.3c-0.1,0.1-0.1,0.3-0.1,0.4C21.9,80.8,22.1,81.2,22.1,81.3z M23,60.8c0.2-1.1,0.9-2.3,1.7-3.3
					c0.4-0.5,0.9-0.9,1.4-1.2c-0.2,0.3-0.3,0.7-0.4,1c-0.3,1.1-0.4,2.3-0.4,3.6c-0.3-0.2-0.7-0.4-1.2-0.4l0,0
					C23.7,60.5,23.3,60.6,23,60.8z M35.2,66.5l-0.5,0.4l-0.5-0.4H35.2z M34.7,66v-4.1c0-0.2,0.1-0.4,0.3-0.6
					c0.1-0.1,0.3-0.2,0.5-0.2V66H34.7z M34.5,67.1l-0.9,0.7l-0.8-0.6l0.7-0.6h0.2L34.5,67.1z M33.2,77.4v-4.2c0.2,0,0.4,0,0.5-0.1
					c0.2,0,0.3-0.1,0.4-0.1v11.1c-0.3-0.1-0.6-0.1-0.9-0.2l0,0v-3.1c0.3-0.8,0.5-1.6,0.5-2C33.7,78,33.4,77.5,33.2,77.4z M33.9,72.5
					L33.9,72.5c-0.1,0.1-0.5,0.1-0.9,0.1c-0.2,0-0.3,0-0.5,0l-0.3-0.8c0-0.1,0-0.2,0.3-0.3c0.3-0.2,0.8-0.4,1.1-0.5h0.1
					c0.1,0,0.1,0,0.2,0l0,0c0,0,0,0-0.1,0c-0.2,0.1-0.4,0.2-0.5,0.2s-0.1,0.1-0.2,0.1c-0.1,0-0.2,0.2-0.2,0.3v0.1
					c0,0.1,0.1,0.2,0.2,0.2c0.1,0,0.1,0,0.2,0c0.3,0,0.5-0.1,0.8-0.2c0.3-0.2,0.9-0.4,1.1-0.4l0,0c0,0,0,0.1-0.1,0.2
					c0,0.1-0.4,0.3-0.6,0.4C34.2,72.3,34,72.5,33.9,72.5z M32.8,80.2l-1.7-0.4c0-0.1-0.1-0.2-0.1-0.4l1.9-1.5
					c0.1,0.1,0.1,0.2,0.2,0.3l0.1,0.8v-0.2c0,0.1,0,0.1,0,0.2l0,0l0,0c0,0.1,0,0.2-0.1,0.3v-0.2C33,79.4,32.8,80.1,32.8,80.2z
					 M31.9,83.3L31,83.6c0,0,0,0-0.1,0c0-0.1,0-0.3,0-0.5c0-0.5,0-1.1,0-1.6c0-0.6,0.1-0.9,0.2-1.2l1.6,0.4L31.9,83.3z M32.7,83.6
					c-0.1-0.1-0.3-0.2-0.4-0.3c0.1-0.3,0.2-0.6,0.4-1.1V83.6z M30.4,77.6l0.2-0.3v-0.5l0.9-0.6l1.2,1.3L30.6,79
					c-0.1-0.1-0.2-0.2-0.3-0.3C30.4,78.5,30.4,77.8,30.4,77.6z M26.3,78.3c0.1,0.1,0.2,0.1,0.3,0.2c0,0.1,0,0.2,0.1,0.4
					c0.1,0.4,0.3,1,0.5,1.4c-0.2-0.1-0.5-0.2-0.9-0.3c-0.1,0-0.2,0-0.3,0c0,0,0,0-0.1,0v-7.8c0.1,0.2,0.2,0.5,0.3,0.7
					c0.2,0.6,0.4,1.2,0.5,1.3c0,0,0,0.2,0,0.3c0,0.1,0,0.3-0.1,0.4c-0.3,0.6-0.5,1.5-0.5,2.6C26,77.9,26.1,78.2,26.3,78.3z
					 M26.2,71.6c-0.1-0.2-0.1-0.3-0.2-0.4c0,0-0.1-0.3-0.2-0.6c-0.1-0.3-0.2-0.7-0.2-1.1c0-0.3,0-0.5,0.1-0.6
					c0.4-0.6,0.6-0.9,0.7-1.1c0,0,0.1-0.1,0.2-0.1s0.2-0.1,0.3-0.1c0,0.1,0.1,0.2,0.2,0.3c0.2,0.3,0.5,0.7,0.9,0.8
					c0.2,0,0.4,0.1,0.6,0.1c0.3,0,0.6-0.1,0.8-0.1c0.1,0.1,0.2,0.2,0.3,0.4c0.4,0.4,0.6,2.2,0.6,2.6l-0.6,0.2l-0.6-0.6
					c-0.4-0.4-0.8-0.9-1.8-2.1l-0.4,0.3c0.3,0.4,1.1,1.4,1.3,1.6l-1.6,1.5L26.2,71.6z M25.8,67.8v-1.1c0.1,0,0.1,0.1,0.2,0.1
					c0.3,0.1,0.6,0.2,0.8,0.2c0,0,0,0,0.1,0l0,0c-0.4,0.1-0.7,0.3-0.7,0.3s-0.1,0-0.1,0.1C26.1,67.4,26,67.6,25.8,67.8z M28.3,67.5
					c0.2,0.1,0.5,0.1,0.7,0.1c0.1,0,0.2,0,0.3,0l-0.1,0.5c0,0,0,0-0.1,0c-0.2,0-0.4,0.1-0.6,0.1s-0.3,0-0.4,0
					c-0.2,0-0.4-0.3-0.6-0.5c-0.1-0.1-0.1-0.2-0.2-0.3v-0.1l0,0C27.7,67.3,27.9,67.4,28.3,67.5z M27.8,66.8c0.1-0.1,0.3-0.2,0.4-0.3
					c0,0.1,0.1,0.2,0.1,0.3c0,0.1,0,0.1,0.1,0.2C28.1,66.9,28,66.9,27.8,66.8z M30.3,68.8v-1.2l0,0c0.1,0,0.2,0,0.4,0
					c0.1,0,0.3-0.2,0.4-0.4c0-0.1,0-0.1,0-0.2s0-0.2-0.1-0.3c0-0.1,0-0.1-0.1-0.2c0-0.1,0-0.2,0-0.3c0-0.1,0-0.1,0-0.2
					c0,0,0,0,0-0.1l0,0c0.1-0.1,0.1-0.2,0.2-0.3c0,0,0,0,0.1-0.1v5.8l-0.3,0.1l-0.1-0.6v-0.1C30.8,70.5,30.8,69.5,30.3,68.8z
					 M31.1,64.6c0-0.1,0-0.1-0.1-0.2l0,0c0-0.1,0.1-0.2,0.1-0.4c0-0.1,0-0.2-0.1-0.4c-0.1-0.1-0.2-0.3-0.3-0.4
					c0.1-0.2,0.2-0.4,0.2-0.7s-0.1-0.6-0.4-0.8c-0.1-0.1-0.2-0.1-0.3-0.1V61c0.2,0,0.4,0.1,0.6,0.3s0.3,0.4,0.3,0.6v3
					C31.2,64.8,31.1,64.7,31.1,64.6z M30.5,64C30.6,64,30.6,64,30.5,64c0,0.1,0,0.2-0.1,0.4l0,0c-0.3,0.1-0.4,0.3-0.4,0.5
					c0.1,0,0.3-0.1,0.5-0.1c0.1,0.1,0.1,0.3,0.2,0.4l0,0c0,0,0,0-0.1,0.1l0,0l-0.4,0.2c0,0.1,0.1,0.2,0.1,0.3c0,0.2-0.1,0.3-0.4,0.6
					l0.3,0.4c0,0,0.1,0,0.1-0.1c0,0.1,0,0.1,0.1,0.1c0,0.1,0,0.1,0,0.1l0,0c0,0-0.1,0-0.2,0h-0.1c-0.1,0-0.1,0-0.1,0
					c-0.1,0-0.2,0-0.8,0l0,0c-0.1,0-0.1,0-0.2,0l0,0c-0.1,0-0.1-0.1-0.2-0.1l0,0c0-0.1-0.1-0.3-0.2-0.6c0.2-0.1,0.4-0.2,0.7-0.5
					c0.7-0.6,0.8-1.6,0.9-2.1C30.4,63.8,30.5,63.9,30.5,64z M27.3,73l1.5-1.5l0.1,0.1c0.1,0.1,0.6,0.6,0.6,0.6L28.8,74
					C28.6,73.8,27.4,73,27.3,73z M28,74.1h-0.9l0,0c0,0-0.1-0.3-0.3-0.8l0,0C27,73.5,27.5,73.8,28,74.1L28,74.1z M27,75.1
					c0.1-0.2,0.1-0.3,0.1-0.5h1.8l0.1,0.1l0,0c0.1,0,0.2,0.1,0.3,0.2c0.2,0.1,0.5,0.3,0.5,0.5v0.1c-0.4,0.1-1,0.3-1.5,0.4
					s-1.3,0.3-1.7,0.4C26.7,75.8,26.9,75.4,27,75.1z M29.5,73.9l0.5-1.6l1.7-0.5l0.4,1.1L29.5,73.9z M32.7,66h-0.9v-4.1l0,0
					c0-0.2,0.1-0.4,0.3-0.6c0.2-0.1,0.4-0.2,0.6-0.3V66z M33.1,66.5l-0.5,0.4L32,66.5H33.1z M32.3,67.1l-0.6,0.5v-0.9L32.3,67.1z
					 M32.6,67.2l0.8,0.6l-0.9,0.7l-0.8-0.6v-0.1L32.6,67.2z M32.3,68.7l-0.6,0.4v-0.9L32.3,68.7z M32.5,68.9l0.8,0.7l-0.9,0.7
					l-0.7-0.6v-0.2L32.5,68.9z M32.1,71.2c0-0.1-0.1-0.1-0.1-0.2l0.5-0.4l0.3,0.2c-0.2,0.1-0.4,0.2-0.5,0.3
					C32.2,71.1,32.1,71.2,32.1,71.2z M32.7,73.2v3.5c-0.3-0.4-0.7-0.8-0.9-1.1v-2.1L32.7,73.2z M32.2,70.4l-0.4,0.3
					c-0.1-0.2-0.1-0.4-0.1-0.6V70L32.2,70.4z M31,73.9l0.2-0.1V75c-0.1-0.2-0.2-0.3-0.2-0.3V73.9z M34.5,71.2
					C34.5,71.2,34.5,71.1,34.5,71.2c0-0.2-0.1-0.3-0.1-0.4l0.3-0.2l0.5,0.4C35,71,34.8,71.1,34.5,71.2z M34.1,70.6
					c-0.1-0.1-0.2-0.1-0.4-0.1c-0.1,0-0.2,0-0.3,0s-0.3,0.1-0.4,0.1l-0.4-0.3l0.9-0.7l0.8,0.7L34.1,70.6z M33.6,69.4l-0.8-0.7
					l0.9-0.7l0.8,0.7L33.6,69.4z M34.1,66h-0.9v-5c0.2,0,0.4,0.1,0.6,0.3c0.2,0.2,0.3,0.4,0.3,0.6C34.1,61.9,34.1,66,34.1,66z
					 M32.9,60.5L32.9,60.5c-0.5,0-0.9,0.1-1.2,0.4c0-1.2-0.1-2.5-0.4-3.6c-0.1-0.4-0.2-0.7-0.4-1c0.5,0.3,1,0.8,1.5,1.3
					c0.8,0.9,1.4,2.1,1.7,3.3C33.7,60.6,33.3,60.5,32.9,60.5z M31.2,60.8c-0.3-0.2-0.7-0.4-1.2-0.4l0,0c-0.4,0-0.9,0.1-1.2,0.3l0,0
					v-5.3c1.2,0.1,1.7,0.8,2.1,1.9C31.1,58.4,31.2,59.6,31.2,60.8z M29.7,61v0.5l0,0c-0.2,0-0.3,0-0.5,0.1c-0.1,0-0.3-0.1-0.4-0.1
					c0-0.1,0.1-0.2,0.3-0.3C29.2,61.1,29.5,61,29.7,61z M29.1,62.2L29.1,62.2h0.2c0.2-0.1,0.3-0.1,0.4-0.1c0.2,0,0.3,0,0.5,0.2
					c0.1,0,0.1,0.1,0.1,0.2c-0.3-0.1-0.5-0.1-0.8-0.1c-0.1,0-0.2,0-0.2,0v0.5l0,0c0.1,0,0.1,0,0.2,0c0.2,0,0.5,0,0.7,0.1
					c-0.1,0.1-0.1,0.2-0.2,0.2h-0.1c-0.1,0-0.3,0-0.4,0s-0.2,0-0.3,0v0.5c0.1,0,0.2,0,0.3,0c0.1,0,0.1,0,0.2,0
					c-0.1,0.6-0.3,1.3-0.7,1.7c-0.5,0.4-0.7,0.5-0.9,0.5c0,0,0,0-0.1,0h-0.2l-0.1,0.2c0,0.1-0.2,0.2-0.4,0.3l0,0
					c0-0.2,0-0.4,0.2-0.6L27,65.5c-0.2,0.3-0.2,0.6-0.2,0.9v0.1l0,0c-0.1,0-0.1,0-0.2,0c0,0,0-0.1,0-0.2c0-0.3,0.1-0.7,0.3-1
					L26.5,65c-0.3,0.4-0.3,0.8-0.4,1.1c-0.1-0.1-0.2-0.3-0.2-0.5c0-0.3,0.1-0.6,0.3-0.8l0.1-0.1v-0.1v-0.1c0-0.7,0.1-1.5,0.5-1.9
					c0.3-0.4,0.9-0.7,1.5-0.7C28.6,62,28.8,62,29.1,62.2z M25.8,63.6v-1.8c0-0.2,0.1-0.4,0.3-0.6c0.2-0.1,0.4-0.2,0.6-0.3v1
					c-0.1,0.1-0.2,0.2-0.3,0.3C26.1,62.7,25.9,63.1,25.8,63.6z M27.3,61.7V61c0.2,0,0.5,0.1,0.6,0.2c0.1,0.1,0.2,0.2,0.2,0.2
					C27.9,61.5,27.6,61.6,27.3,61.7z M28.2,60.8L28.2,60.8c-0.3-0.2-0.8-0.3-1.2-0.3l0,0c-0.5,0-0.9,0.1-1.2,0.4
					c0-1.2,0.1-2.4,0.4-3.4c0.3-1.1,0.9-1.9,2-2C28.2,55.5,28.2,60.8,28.2,60.8z M25.3,70.7L25.3,70.7L25.3,70.7v9.4
					c-0.2,0-0.4,0.1-0.5,0.1s-0.2,0-0.3,0h-0.1V61c0.2,0,0.4,0.1,0.6,0.3s0.3,0.4,0.3,0.6v6.8c-0.1,0.3-0.2,0.5-0.2,0.8
					C25.1,69.9,25.2,70.4,25.3,70.7z M27.3,83.1c0.1,0,0.2,0.1,0.2,0.1s0.1,0,0.1,0.1l0,0c0.1,0,0.3,0.1,0.5,0.2v1.8h-0.9L27.3,83.1
					L27.3,83.1z M28.2,82.8c-0.1,0-0.1,0-0.2-0.1l-0.1-1.4l1.7,0.3c0,0.1,0,0.2,0,0.2s-0.1,0.8-0.1,0.9L29.2,83
					C29.1,83,28.3,82.8,28.2,82.8z M28.8,83.5c0.1,0,0.2,0,0.3,0c0.2,0,0.3,0,0.5-0.1c0.1,0,0.1-0.1,0.2-0.2v1.9h-0.9v-1.6H28.8z
					 M29.7,81.1l-1.8-0.3l-0.2-0.1L27,78.5c0.8-0.2,2.6-0.6,2.7-0.7h0.1c0,0.4,0,0.9,0,1.5C29.8,79.9,29.7,80.6,29.7,81.1z
					 M28.2,77.7c-0.5,0.1-0.7,0.2-1.7,0.3c0-0.1,0-1.1,0-1.2c0.4-0.1,1.3-0.3,1.9-0.4c0.5-0.1,1.1-0.3,1.5-0.4c0,0.1,0,1.1,0,1.2
					C29.7,77.3,28.7,77.5,28.2,77.7z M29.8,74.4l0.7-0.3v0.3H29.8z M30.5,74.9c0.1,0.2,0.2,0.4,0.3,0.6c0.1,0.1,0.1,0.1,0.2,0.2
					l-0.5,0.4c0-0.4-0.1-0.8-0.3-1L30.1,75L30.5,74.9L30.5,74.9z M30.7,84.1c0.1,0,0.1,0,0.2,0l0,0c0.3,0,0.6-0.1,1-0.3H32l0,0
					c0.1,0,0.1,0.1,0.2,0.2c0.2,0.2,0.5,0.3,0.8,0.4c0.7,0.2,1.7,0.4,2.2,0.4l0,0c0,0.1,0,0.1-0.1,0.1c0,0.1-0.1,0.1-0.3,0.1
					s-0.4,0-0.6,0c-0.7,0-1.4-0.1-1.7-0.1c-0.1,0-0.1,0-0.2,0c-0.5,0-1.5,0.2-1.8,0.2c0,0-0.1,0-0.1-0.2l0,0
					C30.4,84.6,30.6,84.3,30.7,84.1z M34.7,84.2V72.7c0,0,0.1,0,0.1-0.1c0.3-0.2,0.6-0.3,0.7-0.5v12.2C35.3,84.3,35,84.2,34.7,84.2z
					 M35.4,70.8l-0.5-0.4l0.6-0.5v0.2C35.5,70.4,35.5,70.6,35.4,70.8z M34.7,70.2l-0.8-0.7l0.9-0.7l0.8,0.6l0,0L34.7,70.2z
					 M34.9,68.7l0.6-0.5v0.9L34.9,68.7z M34.7,68.5l-0.8-0.7l0.9-0.7l0.8,0.6l0,0L34.7,68.5z M34.9,67.1l0.6-0.5v0.9L34.9,67.1z
					 M23.9,54.1L22.5,52v-6c0-0.4,0.3-0.7,0.7-0.7c0.2,0,0.4,0.1,0.5,0.2c0.1,0.1,0.2,0.3,0.2,0.5C23.9,46,23.9,54.1,23.9,54.1z
					 M23.9,43.4l-1.5-4.1V24.5c0.5-0.5,1-1,1.5-1.5V43.4z M23.9,45c-0.2-0.1-0.5-0.2-0.7-0.2c-0.4,0-0.7,0.2-1,0.5
					c-0.2-0.3-0.6-0.5-1.1-0.5c-0.3,0-0.6,0.1-0.8,0.2l1.8-4.9L23.9,45z M21.9,39.1l-1.6,4.4V27c0.5-0.7,1-1.3,1.6-1.9V39.1z
					 M20.5,45.5c0.2-0.1,0.4-0.2,0.6-0.2c0.5,0,0.8,0.3,0.8,0.7v6l-1.7,2.6V46C20.3,45.8,20.4,45.7,20.5,45.5z M22.2,52.5l1.6,2.5
					c-0.5,0.3-1,0.6-1.4,1v-1.3h-0.5v1.8c-0.3,0.3-0.6,0.7-0.8,1.1c-0.4,0.6-0.7,1.2-0.9,1.8v-3.9L22.2,52.5z M21.1,61v24.1h-0.8
					V61.8C20.3,61.4,20.5,61.1,21.1,61z M36.4,85.4v-4.9l0.6-1.1V86L36.4,85.4z M51,99.4c-11.9,0-22.7-4.3-31.1-11.3H22l1.5,1.3h9.8
					l1.4-1.3H37c4.4,1.7,9.1,2.6,14.1,2.6s9.7-0.9,14.1-2.6h2.2l1.4,1.3h9.7l1.5-1.3h2.3C73.7,95.1,62.9,99.4,51,99.4z M70.9,29.7
					l1,1.5v5.4h-0.7v-4.5l0.3-0.4L71,30.9l-0.5,0.8l0.3,0.4v4.5h-1v-5.1L70.9,29.7z M69.7,30.6V16.8c0.3,0.2,0.6,0.4,1,0.5v11.8
					L69.7,30.6z M77.3,31.7v5h-1v-4.5l0.3-0.4L76,30.9l-0.5,0.8l0.3,0.4v4.5H75v-5.4l1-1.5L77.3,31.7z M76.3,29.1v-7.8
					c0.4,0.3,0.7,0.6,1,0.9v8.5L76.3,29.1z M75.3,53v1c-0.5-0.1-0.9-0.1-1.4-0.1l0,0l1.7-2.6l1.7,2.6v0.7c-0.4-0.2-0.9-0.3-1.4-0.5
					V53H75.3z M73.9,52.9v-7.3c0.1-0.2,0.4-0.3,0.6-0.3c0.5,0,0.8,0.3,0.8,0.7v4.7L73.9,52.9z M75.8,50.7V46l0,0
					c0-0.4,0.3-0.7,0.7-0.7c0.2,0,0.4,0.1,0.6,0.2c0.1,0.1,0.2,0.2,0.2,0.4v7L75.8,50.7z M76.5,44.8c-0.4,0-0.7,0.2-1,0.5
					c-0.2-0.3-0.6-0.5-1-0.5c-0.2,0-0.4,0.1-0.6,0.2v-0.1l1.7-4.7l1.7,4.8l0,0C77.1,44.9,76.8,44.8,76.5,44.8z M75.6,38.5l-1.7,4.7
					v-6h3.4v6.1L75.6,38.5z M75.7,23.8l-1-1.5l-1,1.5v-4.4c0.7,0.5,1.3,1,2,1.5V23.8z M74.7,23.2l1,1.5v4.4L75,30.3v-3.8h0.5V26H75
					v-1h-0.5v1H74v0.5h0.5v3.8l-0.7-1.1v-4.4L74.7,23.2z M74.5,31.2v5.4h-0.7v-4.5l0.3-0.4l-0.5-0.8l-0.5,0.8l0.3,0.4v4.5h-0.7v-5.4
					l1-1.5L74.5,31.2z M73.2,23.8l-1-1.5l-1,1.5v-6.1c0.7,0.4,1.3,0.8,2,1.3V23.8z M72.2,23.2l1,1.5v4.4l-0.7,1.1v-3.8H73v-0.5h-0.5
					v-1H72v1h-0.5v0.5H72v3.8l-0.7-1.1v-4.4L72.2,23.2z M73,37.2v5.9l-1.7-4.6l-1.7,4.7v-6C69.6,37.2,73,37.2,73,37.2z M71.4,40.1
					l1.7,4.6v0.2c-0.2-0.1-0.4-0.2-0.6-0.2c-0.4,0-0.8,0.2-1,0.5c-0.2-0.3-0.6-0.5-1-0.5c-0.3,0-0.5,0.1-0.7,0.2v-0.2L71.4,40.1z
					 M73,45.6v7.3l-1.4-2.2V46l0,0c0-0.3,0.3-0.7,0.8-0.7C72.7,45.3,72.9,45.4,73,45.6z M70.4,45.3c0.4,0,0.7,0.3,0.7,0.7v4.7
					l-1.4,2.1V46C69.7,45.6,70,45.3,70.4,45.3z M71.3,51.3l1.7,2.6l0,0c-0.5,0-1,0.1-1.4,0.1v-1h-0.5v1.2c-0.5,0.1-1,0.3-1.4,0.4
					v-0.8L71.3,51.3z M73.5,54.4c3.8,0,5.8,1.7,6.9,3.6c0.6,0.9,0.9,1.9,1.1,2.6c-0.2-0.1-0.5-0.2-0.8-0.2l0,0
					c-0.5,0-0.9,0.1-1.1,0.4c-0.2-1.3-0.9-2.6-1.9-3.7c-0.9-1-2-1.8-3.2-2.1c-0.3-0.1-0.7-0.1-1-0.1l0,0l0,0l0,0l0,0l0,0h-0.1
					c-0.1,0-0.1,0-0.2,0c-1.5,0.1-2.9,1-3.9,2.2c-0.9,1.1-1.6,2.4-1.8,3.7c-0.3-0.3-0.7-0.4-1.1-0.4l0,0c-0.3,0-0.6,0.1-0.9,0.2
					c0.2-0.8,0.5-1.8,1.1-2.7C67.7,56.2,69.7,54.4,73.5,54.4z M76.6,88.3v-0.6h0.5v-0.5h0.6v0.5h0.5v0.6h-0.5v0.5h-0.6v-0.5H76.6z
					 M65.3,86.8l0.9-0.8h15.5v0.8H65.3z M74,88.3v-0.6h0.5v-0.5h0.6v0.5h0.5v0.6h-0.5v0.5h-0.6v-0.5H74z M71.3,88.3v-0.6h0.5v-0.5
					h0.6v0.5H73v0.6h-0.5v0.5h-0.6v-0.5H71.3z M68.7,88.3v-0.6h0.5v-0.5h0.6v0.5h0.5v0.6h-0.5v0.5h-0.6v-0.5H68.7z M70.3,63.3V67
					c0,0.7-0.2,1.1-0.8,1.5c0,0,0,0-0.1,0c-0.4-0.2-0.9-0.4-1.2-0.5c-0.1,0-0.2-0.1-0.3-0.1c-0.4,0-0.7,0.3-0.7,0.6l0,0
					c0,0-0.1,0-0.1-0.1c-0.4-0.3-0.6-0.8-0.6-1.3v-3.7L70.3,63.3L70.3,63.3z M66.5,62.7V61c0.5,0.1,0.8,0.4,0.8,0.9v0.9h-0.8V62.7z
					 M80.2,81.5c-0.1-0.1-0.2-0.2-0.3-0.2l0,0c0,0-0.1,0-0.2-0.1V61.9l0,0c0-0.4,0.3-0.7,0.8-0.8v24.1h-0.8v-1.5
					c0.2-0.3,0.3-0.6,0.4-0.7c0.1-0.3,0.3-0.6,0.3-0.9C80.3,81.8,80.3,81.6,80.2,81.5z M79.8,81.8c0,0,0,0.1,0,0.2
					c0,0.2-0.1,0.4-0.2,0.7c-0.2,0.4-1,1.8-1.2,2.3h-2.2v-0.1c0-0.1,0.3-0.2,0.5-0.3c0.3-0.1,0.5-0.2,0.5-0.2h0.1l0.8-1.7
					c0.1-0.1,0.3-0.2,0.6-0.4C79.1,82,79.5,81.8,79.8,81.8L79.8,81.8C79.7,81.8,79.7,81.8,79.8,81.8z M79.1,84.6v0.5h-0.3
					C78.9,85,79,84.8,79.1,84.6z M75.7,85.1h-0.5V82l0.9,0.2v1.9c-0.1,0.1-0.3,0.2-0.4,0.3c-0.1,0.1-0.1,0.3-0.1,0.4
					C75.7,85,75.7,85.1,75.7,85.1z M74.5,81.3l0.5-1.4c0.1,0,0.2,0,0.3,0c0.5,0.1,1.1,0.3,1.5,0.6c0.5,0.3,0.9,0.5,1.1,0.6
					s0.7,0.3,1,0.4c-0.1,0-1,0.7-1.1,0.8L74.5,81.3z M72.5,83.6c-0.1-0.4-0.1-0.5-0.1-0.9c0-0.1,0-0.3,0-0.6c0-0.4,0-0.7,0-1
					l0.1,0.1c0.2,0.1,0.5,0.2,0.7,0.3v3.6h-0.9l0,0c0.1-0.2,0.2-0.4,0.2-0.6l0,0c0,0,0-0.1,0-0.2C72.6,84.2,72.5,83.9,72.5,83.6z
					 M68.5,68.7c-0.2-0.1-0.5-0.2-0.7-0.3l0,0c0,0,0,0,0.1-0.1c0,0,0.1,0,0.2,0c0.3,0.1,0.9,0.3,1.1,0.5c0.2,0.1,0.3,0.3,0.3,0.3
					l-0.3,0.6c-0.2,0-0.4,0-0.6,0s-0.4,0-0.6,0c-0.1,0-0.1,0-0.2,0l0,0c-0.1-0.1-0.3-0.2-0.6-0.3c-0.3-0.2-0.6-0.4-0.6-0.4
					c-0.1-0.1-0.1-0.1-0.1-0.2c0,0,0,0,0-0.1c0.1,0,0.3,0.1,0.4,0.2c0.2,0.1,0.5,0.2,0.7,0.3c0.2,0.1,0.5,0.2,0.7,0.2
					c0.1,0,0.1,0,0.2-0.1c0.1,0,0.2-0.1,0.2-0.2l0,0c0,0,0,0,0-0.1C68.7,68.8,68.6,68.7,68.5,68.7z M72.3,69.9l-0.4,1.2l-2.4-0.9
					l0.4-0.9L72.3,69.9z M70,68.7c0.1-0.1,0.2-0.2,0.3-0.3v0.3H70z M70.3,62.7h-0.9V61c0.2,0,0.4,0.1,0.6,0.3s0.3,0.4,0.3,0.6V62.7z
					 M71.8,65.7v3.5L70.9,69v-7.1c0-0.2,0.1-0.4,0.3-0.6c0.2-0.1,0.4-0.2,0.6-0.3v2.7c-0.1,0.1-0.2,0.1-0.3,0.2
					c-0.2,0.2-0.3,0.5-0.3,0.7C71.2,65,71.4,65.4,71.8,65.7z M72.7,63.4L72.7,63.4C72.6,63.4,72.6,63.4,72.7,63.4
					c-0.1,0.1-0.2,0.1-0.3,0.1c0,0,0,0-0.1,0v-0.3C72.4,63.2,72.5,63.3,72.7,63.4z M72.3,62.6V61c0.3,0,0.6,0.2,0.8,0.4
					c0,0-0.1,0-0.1,0.1c-0.1,0.1-0.2,0.1-0.3,0.3C72.6,62.1,72.5,62.4,72.3,62.6z M72.5,64c0.1,0,0.1,0,0.2,0c0.2,0,0.3,0.1,0.4,0.2
					s0.3,0.3,0.7,0.3h0.1c0.4,0,0.7-0.2,0.8-0.4c0.1,0.1,0.2,0.2,0.4,0.2c-0.6,1.1-1.2,1.2-1.8,1.2h-0.1c0.1-0.1,0.1-0.2,0.2-0.3
					L73,64.8c-0.1,0.2-0.3,0.4-0.4,0.6c-0.1,0-0.2-0.1-0.3-0.1c0,0,0-0.1,0.1-0.1c0.1-0.2,0.3-0.4,0.4-0.5l-0.4-0.4
					c-0.2,0.2-0.3,0.4-0.5,0.6c-0.1-0.1-0.1-0.2-0.1-0.3c0-0.2,0-0.3,0.1-0.4C72,64.2,72.1,64.1,72.5,64z M76.7,62
					c0.1,0,0.2,0.2,0.4,0.5c0.1,0.2,0.2,0.6,0.2,0.8c0,0.1,0,0.2,0,0.2C77.1,63.4,77,63.2,77,63l-0.5,0.2c0.1,0.4,0.3,0.7,0.4,0.9
					c-0.1,0-0.1,0.1-0.2,0.1c-0.1-0.2-0.4-0.5-0.5-0.8l-0.5,0.1c0.1,0.3,0.2,0.5,0.3,0.7c-0.1,0-0.2-0.1-0.3-0.1
					c-0.1,0-0.1-0.1-0.2-0.1l0,0l-0.1-0.1h-0.1h-0.1c-0.2,0-0.4-0.1-0.5-0.4v-0.1c0-0.2,0.2-0.4,0.4-0.8l0.1-0.2L75,62.3
					c-0.2-0.1-0.5-0.2-0.8-0.4c-0.2-0.2-0.4-0.3-0.4-0.6l0,0l0,0c0-0.1,0.1-0.1,0.2-0.2c0.1-0.1,0.3-0.2,0.6-0.3
					c0.2,0,0.5-0.1,0.7-0.1c0.4,0,0.8,0.1,1,0.3s0.2,0.3,0.2,0.4c0,0.1,0,0.3-0.1,0.4V62L76.7,62z M77.1,61.2
					c0.1-0.1,0.3-0.2,0.5-0.2v1.6c0-0.1-0.1-0.3-0.1-0.4c-0.1-0.2-0.3-0.4-0.4-0.6C77.1,61.5,77.1,61.4,77.1,61.2
					C77.1,61.3,77.1,61.2,77.1,61.2z M75.9,76.5c-0.3,0.7-0.6,1.5-0.8,2c-0.2,0.3-0.3,0.6-0.4,0.7L72.4,79l0.2-1.1l0.2-0.7l0.5-2.3
					l3.2-0.3c0,0.1,0,0.1-0.1,0.2C76.4,75.2,76.2,75.8,75.9,76.5z M76.2,77.4v2.2c-0.2-0.1-0.5-0.2-0.8-0.2h-0.1
					C75.5,79,75.9,78.2,76.2,77.4z M76.1,65.2l0.2,0.3l0,0l0,0l-2.1,0.7c0-0.1,0-0.1-0.1-0.2L76.1,65.2z M75.3,65
					c0.1-0.1,0.2-0.3,0.3-0.4c0.1,0,0.1,0.1,0.2,0.1l0.1,0.1L75.3,65z M76.4,69.1c-0.1,0.2-0.2,0.3-0.3,0.4L74.3,68l0.7-1.5l1.8-0.6
					c0.1,0.1,0.2,0.2,0.3,0.3c0.1,0.1,0.1,0.2,0.1,0.2c0,0.1,0,0.2,0,0.4c0,0.3,0,0.7-0.1,1.1C76.9,68.4,76.7,68.8,76.4,69.1z
					 M76.6,69.8c-0.1,0.3-0.4,1.4-0.5,1.6l-2,0.2l2-1.4l0.1,0.1l0.2-0.2C76.3,70.1,76.4,70,76.6,69.8z M74.3,66.8l-0.7,1.4l0.1,0.1
					l-0.2,0.2c0-0.1-0.1-0.3-0.1-0.4s0-0.2,0-0.3c0-0.2,0-0.3,0.1-0.4s0.3-0.3,0.5-0.5l0,0L74.3,66.8z M74.1,68.7l1.5,1.2L74,71
					l-1-1.4L74.1,68.7z M73.2,66.9L73.2,66.9c-0.2,0.3-0.4,0.5-0.3,0.8c0,0.1,0,0.2,0,0.4c0,0.2,0.1,0.5,0.2,0.7l-0.5,0.5l-0.3-0.1
					V66c0.1,0,0.2,0.1,0.3,0.1c0.2,0,0.4,0.1,0.6,0.1V66.9z M72.8,70.3l0.8,1.1c-0.1,0.1-0.2,0.3-0.4,0.3l0,0l0,0h-0.1l0,0l0,0
					c-0.2,0-0.4-0.1-0.5-0.2l-0.1-0.1L72.8,70.3z M72.9,72.2l-0.1,1.2c-0.1,0-0.3,0.1-0.4,0.2V72C72.5,72.1,72.6,72.2,72.9,72.2z
					 M73.1,74.5l0.2-1.2l0.1-1.1l2.8-0.3c0,0.1,0.1,0.2,0.2,0.3c0.1,0.1,0.3,0.7,0.3,0.8l0.2,1.1L73.1,74.5z M76.7,75.9
					c0.2-0.6,0.3-1,0.3-1.2h0.4v-0.3c0,0-0.1-0.7-0.2-1.4c-0.1-0.6-0.5-1.2-0.7-1.5c0-0.1,0-0.2,0.1-0.3c0.1-0.3,0.3-0.8,0.5-1.5
					c0.2-0.5,0.3-1.1,0.4-1.5l0,0l0,0c0-0.3,0.1-0.5,0.1-0.8v12.9c-0.2-0.1-0.3-0.2-0.5-0.3c-0.1-0.1-0.3-0.1-0.4-0.2
					C76.7,79.8,76.7,75.9,76.7,75.9z M77.5,66c-0.2-0.4-0.6-0.7-0.8-0.8l-0.3-0.5c0.2,0,0.5-0.1,0.8-0.3c0.2-0.1,0.4-0.3,0.5-0.5
					v2.6C77.6,66.3,77.6,66.2,77.5,66z M71.8,71.6v2.3c-0.3,0.2-0.6,0.4-0.9,0.6v-3.4L71.8,71.6z M70.3,70.9v4
					c-0.4,0.3-0.7,0.5-0.9,0.8v-5.2L70.3,70.9z M71.9,83.7v0.2l-1.2-0.8l-1.6-4.3l1.8-0.7c0.1,0.2,0.2,0.6,0.4,1.1
					c0.3,0.8,0.5,1.4,0.5,2.8c0,0.2,0,0.4,0,0.6C71.8,83.1,71.9,83.3,71.9,83.7z M70.3,83.3c-0.2,0.1-0.5,0.4-1,0.6v-3.3L70.3,83.3z
					 M70.8,77.7L69,78.4c-0.1,0-0.3-0.5-0.4-0.6v-0.5l0.2-0.4c0.1-0.1,0.5-0.5,0.6-0.6c0.2,0.2,0.8,0.7,1,0.9
					C70.6,77.4,70.7,77.6,70.8,77.7L70.8,77.7L70.8,77.7z M68.7,78.9l0.1,0.2v5c-0.3,0.1-0.6,0.1-0.8,0.1h-0.1v-14
					c0.2,0,0.5,0,0.8,0.1c0.1,0,0.1,0,0.2,0v6l0,0c-0.4,0.4-0.7,0.9-0.7,1.4C68.1,78.3,68.6,78.7,68.7,78.9z M68,84.8
					c0.4,0,0.9-0.1,1.4-0.3c0.6-0.3,1-0.6,1.3-0.8l1.3,0.8l0,0l0,0l0,0l0,0c0,0.1,0,0.2-0.1,0.3l0,0l0,0c-0.1,0-0.3-0.1-0.7-0.1
					c-0.1,0-0.2,0-0.3,0c-1,0.2-1.3,0.3-1.9,0.3h-0.1c-0.8,0-1-0.1-1.2-0.2c0,0,0,0-0.1-0.1C67.7,84.7,67.9,84.8,68,84.8z
					 M71.9,79.2c-0.1-0.3-0.4-0.9-0.4-1.1c0.1,0,0.6-0.3,0.7-0.3L71.9,79.2z M71.3,77.5l-0.7-1c-0.1-0.1-0.6-0.5-0.7-0.6
					c0.3-0.2,0.6-0.5,1-0.8c0.5-0.4,1.1-0.8,1.5-1c0.1-0.1,0.2-0.1,0.3-0.1l-0.1,1.1h0.3l-0.5,2L71.3,77.5z M73,80.9l-0.3-0.2
					l-0.1-0.3c0-0.1-0.1-0.6-0.1-0.7c0,0,0-0.1,0-0.2l2.1,0.2L74,81.1L73.7,81l0,0C73.7,81.1,73,80.9,73,80.9z M74.7,81.9v3.3h-0.9
					v-3.5L74.7,81.9z M77.6,82.6L77,83.8c-0.1,0-0.2,0.1-0.3,0.1v-1.5L77.6,82.6z M79.1,81c-0.4-0.1-0.8-0.3-0.9-0.4V61
					c0.2,0,0.4,0.1,0.6,0.3s0.3,0.4,0.3,0.6V81z M77.9,60.5L77.9,60.5c-0.4,0-0.7,0.1-1,0.2c0-0.1-0.1-0.1-0.2-0.2c0,0,0,0-0.1,0
					c0-1.3-0.1-2.7-0.5-3.7c0-0.1-0.1-0.2-0.2-0.4c0.4,0.3,0.9,0.7,1.2,1.1c0.8,0.9,1.5,2.1,1.7,3.3C78.7,60.6,78.3,60.5,77.9,60.5z
					 M76.2,60.1C75.9,60,75.6,60,75.4,60c-0.3,0-0.6,0-0.8,0.1c-0.3,0.1-0.6,0.2-0.8,0.4v-5c0.1,0,0.3,0,0.4,0.1l0,0h0.1
					c0.7,0.2,1.1,0.7,1.4,1.4C76.1,57.8,76.2,58.9,76.2,60.1z M74,62.3c0.2,0.1,0.4,0.2,0.6,0.3c-0.1,0.2-0.3,0.4-0.3,0.8
					c0,0.1,0,0.1,0,0.2c0,0,0,0,0,0.1C74.2,63.8,74,64,73.8,64l0,0c-0.1,0-0.2-0.1-0.4-0.2c-0.1,0-0.1-0.1-0.2-0.1
					c0-0.1,0-0.2,0.1-0.3c0-0.1,0-0.2-0.1-0.3c-0.1,0-0.2-0.1-0.3-0.1c0.1-0.2,0.2-0.4,0.3-0.6c0,0,0,0.3,0,0.4
					c0,0.1,0.1,0.1,0.3,0.1c0.2,0,0.4-0.1,0.4-0.1s0-0.1-0.2-0.2c-0.1-0.2-0.5-0.3-0.5-0.3s0.1-0.1,0.1-0.2c0-0.1,0.1-0.1,0.2-0.1
					c0,0,0.1-0.1,0.2-0.1C73.7,62,73.8,62.2,74,62.3z M72,60.5L72,60.5c-0.5,0-0.9,0.1-1.2,0.4c0-1.2,0.1-2.5,0.4-3.4
					c0.3-1.1,0.9-1.8,2-1.9v5.3C72.9,60.5,72.4,60.5,72,60.5z M70.7,57.2c-0.3,1.1-0.4,2.4-0.4,3.6c-0.3-0.2-0.8-0.4-1.2-0.4l0,0
					c-0.4,0-0.8,0.1-1.1,0.3c0.2-1.1,0.8-2.3,1.7-3.3c0.4-0.5,0.9-0.9,1.5-1.3C70.9,56.5,70.8,56.9,70.7,57.2z M68.2,61.3
					c0.2-0.1,0.4-0.2,0.6-0.3v1.7h-0.9v-0.9C67.9,61.6,68,61.4,68.2,61.3z M67,69.8c0.1,0.1,0.3,0.2,0.4,0.2v14.2
					c-0.1,0-0.3,0.1-0.3,0.2c0,0,0,0.1,0,0.2s0,0.4,0.2,0.6h-0.8V69.5C66.6,69.6,66.8,69.7,67,69.8z M81,85.1V61
					c0.2,0,0.4,0.1,0.5,0.2c0.1,0.1,0.2,0.2,0.2,0.4c0,0,0,0,0,0.1v0.1v23.3H81z M80.9,57.7c-0.2-0.4-0.5-0.7-0.8-1.1v-1.9h-0.5V56
					c-0.4-0.4-0.9-0.7-1.4-1l1.6-2.5l1.9,3v4C81.5,58.9,81.3,58.3,80.9,57.7z M80.1,52v-6l0,0c0-0.3,0.3-0.7,0.8-0.7
					c0.2,0,0.5,0.1,0.6,0.2c0.2,0.1,0.2,0.3,0.2,0.4v8.6L80.1,52z M81.7,45c-0.2-0.2-0.5-0.2-0.8-0.2c-0.4,0-0.8,0.2-1.1,0.5
					c-0.2-0.3-0.6-0.5-1-0.5c-0.3,0-0.5,0.1-0.7,0.2l1.8-4.9L81.7,45z M80.2,39.3V25.2c0.5,0.6,1,1.2,1.5,1.8v16.5L80.2,39.3z
					 M79.7,39.2l-1.5,4.2V23c0.5,0.5,1,1,1.5,1.6V39.2z M78.8,45.3c0.4,0,0.7,0.3,0.7,0.7v6l-1.4,2.1v-8.2
					C78.2,45.6,78.5,45.3,78.8,45.3z M67.4,46c0-0.4,0.3-0.7,0.7-0.7c0.2,0,0.4,0.1,0.5,0.2c0.2,0.1,0.2,0.3,0.2,0.5v8.3L67.4,52V46
					L67.4,46z M68.9,43.5l-1.5-4.2V15.6c0.5,0.2,1,0.5,1.5,0.8V43.5z M68.8,45c-0.2-0.1-0.5-0.2-0.7-0.2c-0.4,0-0.7,0.2-1,0.5
					c-0.2-0.3-0.6-0.5-1-0.5c-0.3,0-0.6,0.1-0.8,0.2l1.8-4.9L68.8,45z M66.8,39.2l-1.5,4.3V14.7c0.5,0.2,1,0.4,1.5,0.6V39.2z
					 M65.5,45.5c0.1-0.1,0.4-0.2,0.6-0.2c0.5,0,0.8,0.3,0.8,0.7v6l-1.6,2.5V46C65.2,45.8,65.3,45.6,65.5,45.5z M67.1,52.5l1.6,2.5
					c-0.5,0.3-0.9,0.6-1.3,1v-1.2h-0.5v1.8c-0.3,0.3-0.6,0.7-0.8,1c-0.4,0.6-0.7,1.2-0.9,1.8v-4L67.1,52.5z M65.2,61.9
					c0-0.2,0.1-0.4,0.3-0.6c0.1-0.1,0.2-0.2,0.4-0.2V67l0,0l0,0v12.3L65.2,78V61.9L65.2,61.9z M65.7,80.5v4.9L65,85.9v-6.6
					L65.7,80.5z M85.2,85.2c-0.7,0.7-1.5,1.4-2.2,2.1V74.4c4.8-6.5,7.6-14.6,7.6-23.3S87.8,34.3,83,27.8V26l0,0l-0.6-1l-0.6,1l0,0
					l0,0l0,0l0,0v0.2c-1.1-1.4-2.3-2.7-3.6-3.9v-0.9l-0.8-1.1v1.3c-2.3-2.1-4.9-3.8-7.6-5.3v-0.7L69,14.4v1.5
					c-1.2-0.6-2.4-1.1-3.6-1.6v-1.9l0,0l-0.6-1l-0.6,1l0,0v1.4c-1.8-0.6-3.6-1.1-5.5-1.5V5.6l0,0L58,5l-0.4,0.5l0,0V12
					c-0.4-0.1-0.8-0.1-1.3-0.2V3c11.2,1.2,21.3,6.3,28.9,13.9C94,25.6,99.4,37.7,99.4,51C99.4,64.4,94,76.5,85.2,85.2z M85.2,47.4
					v-0.5h-0.5v0.5h-0.5v0.5h0.5v1L83,51.4V42l3.8,5.4v3.9L85.2,49v-1h0.5v-0.5L85.2,47.4L85.2,47.4z M84.9,49.5l1.9,2.8v1.3
					c-0.2-0.2-0.5-0.2-0.8-0.2c-0.4,0-0.8,0.2-1,0.5c-0.2-0.3-0.6-0.5-1.1-0.5c-0.3,0-0.6,0.1-0.8,0.3v-1.3L84.9,49.5z M86.2,59.2
					c0-0.5-0.3-1-0.7-1.2h1.3v2.4h-1.3C85.9,60.2,86.2,59.7,86.2,59.2z M84.9,60.2c-0.6,0-1-0.5-1-1c0-0.6,0.5-1,1-1
					c0.6,0,1,0.5,1,1C85.9,59.8,85.5,60.2,84.9,60.2z M85.2,57.2v-2.5c0-0.3,0.3-0.7,0.8-0.7c0.2,0,0.4,0.1,0.6,0.2
					c0.1,0.1,0.2,0.3,0.2,0.4v2.6H85.2z M83.2,54.2c0.2-0.1,0.4-0.2,0.6-0.2c0.5,0,0.8,0.3,0.8,0.7v2.5H83v-2.6
					C83,54.5,83.1,54.3,83.2,54.2z M84.3,58c-0.4,0.2-0.7,0.7-0.7,1.2s0.3,1,0.7,1.2H83V58H84.3z M87.6,61.2V40.1l0,0l-0.4-0.7
					l-0.4,0.7l0,0l0,0v6.4L83,41.1V28.7c4.4,6.3,7,14,7,22.4c0,8.3-2.6,16.1-7.1,22.4V61.2H87.6z M96.1,47.7c-0.2,0-2.9,0.1-3.2,0.2
					c-0.3,0-0.3-0.1-0.3-0.1l0,0L92,48.5l0.7,0.6l0,0c0-0.2,0.2-0.4,0.2-0.4s3-0.1,3.2-0.2c0.2,0,0.2,0.1,0.2,0.1l0,0l0.6-0.8
					c0,0-0.2-0.2-0.7-0.6l0,0C96.3,47.2,96.3,47.7,96.1,47.7z M95.6,44.2v0.3c0,0-2.9,0.4-3.1,0.4s-0.3-0.1-0.3-0.1l0,0
					c-0.1,0.4-0.3,0.9-0.5,1.3l0.9,0.7l0.1-0.1c-0.3-0.2-0.2-0.4,0-0.9l3-0.4l0.1,0.7l0.4,0.1l-0.1-0.9l1.3-0.2V45
					c-0.7-0.1-1.3-0.5-1.7-0.9L95.6,44.2z M63.9,7.2l-1.2-0.4l-0.4,1.3L61,7.8L60.6,9l1.3,0.4l-0.4,1.3l1.2,0.4l0.4-1.3l1.3,0.4
					L64.8,9l-1.3-0.4L63.9,7.2z M85.4,52l-0.5-0.8L84.4,52l0.5,0.8L85.4,52z M91.4,35.1c0.2-0.1,0.3,0,0.3,0l0,0v-1l1.5,0.3
					c0-0.2,0.1-1,0.3-1.3C93,32.8,92.3,32,92.3,32s-1,0.5-1.2,0.5c-0.2,0.1-0.3,0-0.3,0l0,0l-0.1,1.1l-1.8-0.3
					c0.1,0.2,0,1.1-0.1,1.3c0.2,0.1,1.1,0.8,1.3,1C90,35.7,91.3,35.1,91.4,35.1z M91.4,33.3l1.3-0.6h0.1c0,0-0.3,0.9-0.3,1.3
					l-1.2-0.2L91.4,33.3z M89.5,35L89.5,35c0-0.4,0-1.2,0-1.3l1.5,0.2v0.4L89.5,35z M68,10l0.5,0.2l0.2-0.5l0.5,0.2l0.2-0.5L69,9.2
					l0.2-0.5l-0.5-0.2L68.5,9L68,8.8l-0.2,0.5l0.5,0.2L68,10z M87.3,20h-1.2c0,0-0.2,0.2-0.2,0.3c0.3,0.1,1.2,0.3,1.2,0.3
					C87.1,20.5,87.3,20,87.3,20z M88.4,24.9L88.4,24.9l0.1-0.9l-0.8-0.1l0,0v0.3l-2.8,2.1h-0.1l-0.1-0.7c0,0,2.3-1.7,2.5-1.9
					c0.2-0.2,0.3-0.1,0.3-0.1l0,0v-1l-0.9-0.1l0,0c0.1,0.2,0.1,0.4,0.1,0.4s-2.4,1.9-2.6,2c-0.1,0.1-0.3,0-0.3,0l0,0l0.2,1.2
					c0,0,1,0.3,1.7,0.6c0,0,2.3-1.8,2.5-1.9C88.3,24.9,88.4,24.9,88.4,24.9z M86.8,28.6l0.9-0.6c0.7,0.1,1.2,0.3,1.8,0.5l0,0
					l0.7-1.4c-0.4-0.2-0.9-0.5-1.4-0.9c0,0-2.5,1.6-2.7,1.7s-0.3,0-0.3,0l0,0c0.1,0.4,0.1,1.1,0.1,1.7l1.2,0.2v-0.2
					C86.9,29.6,86.9,29.3,86.8,28.6z M89.6,26.8L89,28.1c0,0-0.6-0.1-1-0.2L89.6,26.8z M91.1,38.8L91.1,38.8
					c-0.1,0.4-0.2,0.9-0.4,1.3l1,0.6l0.1-0.2c-0.4-0.2-0.3-0.3-0.1-0.8l2.9-0.8l0.2,0.7l0.5,0.1L95,38.8l1.3-0.3v-0.1
					c-0.7-0.1-1.3-0.3-1.8-0.7h-0.2l0.1,0.3c0,0-2.8,0.8-3,0.8C91.2,38.9,91.1,38.8,91.1,38.8z M96.2,35.8l-1.1-0.4
					c0,0-0.2,0.1-0.3,0.2c0.3,0.2,1,0.7,1,0.7C96,36.1,96.2,35.8,96.2,35.8z M88.3,31.4l2.7-1.5h0.2c0,0.2-0.5,1-0.5,1l0,0
					c0.5,0,0.9,0.2,0.9,0.2l0,0l0.5-1.1l-0.8-0.3l0.2-0.9c0,0-0.3-0.1-0.9-0.3l0,0c0.1,0.2,0.1,0.4,0.1,0.5c0,0-2.6,1.4-2.8,1.5
					c-0.2,0.1-0.3,0-0.3,0l0,0c0,0.4,0,0.9,0,1.4l1.1,0.3V32C88.3,32.1,88.3,31.9,88.3,31.4z M85.3,21.6c0.1-0.1,0.3-0.1,0.3-0.1
					l0,0v-1c0,0-0.3,0-0.9-0.1l0,0c0,0,0.3,0.3,0.1,0.5c-0.1,0.1-2.2,1.9-2.3,2.1c-0.2,0.2-0.3,0.1-0.3,0.1l0,0l0.1,1h0.9l0,0
					c-0.1-0.2-0.2-0.4-0.2-0.4S85.2,21.8,85.3,21.6z M63,34.7l-0.5-0.8L62,34.7l0.5,0.8L63,34.7z M73,13.2L73,13.2l-0.9-1l1.8-0.7
					l-0.1-0.2l-0.3,0.1c-0.3-0.3-0.6-0.9-0.8-1.2c-0.7,0-2-0.3-2-0.3s-0.5,1-0.6,1.2s-0.3,0.1-0.3,0.1l0,0l1,1.1l-2.3,0.9l0.1,0.1
					l0.4-0.2c0.3,0.3,0.9,0.9,1,1.1c0.2,0,1.7,0.1,2.1,0.2c0,0,0.6-1.2,0.7-1.3C72.8,13.2,73,13.2,73,13.2z M71,14.4h-0.2
					c-0.2-0.3-0.8-1-1-1.2l1.5-0.6l0.4,0.4L71,14.4z M71.6,12.2l-0.4-0.5l0.7-1.3H72c0,0,0.5,1,0.9,1.3L71.6,12.2z M75.8,13l0.3-0.5
					l-0.5-0.3l-0.3,0.4l-0.4-0.3l-0.3,0.5l0.5,0.3l-0.3,0.5l0.5,0.3l0.3-0.4l0.4,0.3l0.3-0.5L75.8,13z M62.4,53.9
					c0.7,0,1.3-0.6,1.3-1.3s-0.6-1.3-1.3-1.3s-1.3,0.6-1.3,1.3C61.1,53.4,61.7,53.9,62.4,53.9z M62.4,51.6c0.6,0,1,0.5,1,1
					c0,0.6-0.5,1-1,1c-0.6,0-1-0.5-1-1C61.4,52,61.8,51.6,62.4,51.6z M83.8,19.5L83.8,19.5l-0.2-1.1l-0.9-0.1l-0.2-0.9
					c0,0-0.3,0-0.9,0l0,0c0.1,0.1,0.3,0.4,0.2,0.4c0,0-2.2,2.2-2.3,2.4c-0.1,0.1-0.3,0.1-0.3,0.1l0,0l0.1,0.9h0.8l0,0L80,20.9
					l2.3-2.4h0.4l0.1,0.5c0,0-2,2.1-2.2,2.3c-0.2,0.2-0.3,0.1-0.3,0.1l0,0l0.2,1h0.9l0,0c-0.2-0.2-0.2-0.4-0.2-0.4s2.1-2.2,2.2-2.3
					C83.7,19.5,83.8,19.5,83.8,19.5z M78.4,19.2c0,0,1.9-2.4,2-2.6s0.3-0.1,0.3-0.1l0,0l-0.2-0.9l-0.8,0.1l0,0l0.1,0.3l-2,2.6h-0.4
					l-0.2-0.5c0,0,1.8-2.3,1.9-2.5c0.2-0.2,0.3-0.1,0.3-0.1l0,0l-0.3-1l-0.9,0.1l0,0c0.2,0.1,0.2,0.4,0.2,0.4s-1.9,2.4-2,2.5
					s-0.2,0.1-0.2,0.1l0,0l0.3,1.1h0.9l0.2,0.9c0,0,0.3-0.1,0.9-0.1l0,0C78.5,19.5,78.4,19.2,78.4,19.2z M67.9,11.4l-0.5-0.2
					l-0.2,0.5l-0.5-0.2L66.5,12l0.5,0.2l-0.2,0.5l0.5,0.2l0.2-0.5l0.5,0.2l0.2-0.5l-0.5-0.2L67.9,11.4z M56.5,71L56.5,71L56.5,71
					L56.5,71z M48.8,24.9h0.5v-0.5h0.5v-0.5h-0.5v-0.5h-0.5v0.5h-0.5v0.5h0.5V24.9z M90.8,38.1c-0.1-0.2,0-0.5,0-0.5s2.8-1.1,3-1.1
					c0.2-0.1,0.3,0,0.3,0l0,0l0.3-0.9c0,0-0.3-0.1-0.8-0.4l0,0c0,0,0.2,0.4-0.1,0.5c-0.2,0.1-2.7,1-2.9,1.1c-0.2,0.1-0.3,0-0.3,0
					l0,0l-0.3,1L90.8,38.1L90.8,38.1z M50.8,24.9h0.5v-0.5h0.5v-0.5h-0.5v-0.5h-0.5v0.5h-0.5v0.5h0.5V24.9z M94.4,52.5
					c0.2,0,0.2,0.1,0.2,0.1l0,0l0.4-0.9l1.2,0.9c0.1-0.2,0.5-0.8,0.8-1c-0.3-0.4-0.6-1.5-0.6-1.5s-1.1,0-1.3,0
					c-0.2,0-0.3-0.2-0.3-0.2l0,0l-0.6,1l-1.5-1.1c0,0.2-0.5,1-0.6,1.2c0.1,0.1,0.7,1.2,0.8,1.5C92.9,52.5,94.2,52.5,94.4,52.5z
					 M95.1,51h1.5v0.1c0,0-0.6,0.7-0.8,1l-1-0.7L95.1,51z M92.6,51.6c0.2-0.2,0.6-0.9,0.6-1.1l1.2,0.8l-0.2,0.4h-1.6V51.6z
					 M43.5,24.9H44v-0.5h0.5v-0.5H44v-0.5h-0.5v0.5H43v0.5h0.5V24.9z M74.4,14.9L74,14.6l-0.3,0.5l-0.4-0.3L73,15.3l0.4,0.3L73,16
					l0.5,0.3l0.3-0.4l0.4,0.3l0.3-0.5l-0.4-0.3L74.4,14.9z M54.9,71.3c0-0.2,0-0.4-0.1-0.5c0-0.1-0.2-0.3-0.4-0.3
					c-0.3,0-0.4,0.2-0.5,0.3c-0.1,0.1-0.3,0.3-0.4,0.4c-0.5,0.5-1.2,0.7-1.8,0.7s-1.1-0.2-1.6-0.5c-0.4-0.3-0.6-0.5-0.9-0.5
					c-0.2,0-0.4,0.2-0.5,0.3c-0.1,0.2-0.1,0.4-0.1,0.7V72c0,0.2,0.1,0.7,0.2,1.6c0.2,1.3,0.6,3.1,1,4.8c0.2,0.8,0.4,1.6,0.6,2.2
					c0.2,0.6,0.4,1.1,0.6,1.4c0.3,0.4,0.6,0.6,1,0.6l0,0c0.5,0,1-0.4,1.2-1.1c0.1-0.5,0.8-3.6,1.3-6.3l0,0c0.1-0.8,0.3-1.6,0.3-2.3
					l0,0l0,0C54.9,72.3,54.9,71.8,54.9,71.3C54.9,71.4,54.9,71.3,54.9,71.3z M52.6,81.4c-0.1,0.5-0.4,0.7-0.6,0.7
					c-0.2,0-0.4-0.1-0.6-0.4c0-0.1-0.1-0.2-0.2-0.3c0.6-0.6,1.3-1.7,1.9-2.9c0.1-0.1,0.1-0.2,0.2-0.3C53,79.8,52.7,81.1,52.6,81.4z
					 M52.6,78.3c-0.5,1-1.1,2.1-1.6,2.6c-0.1-0.3-0.2-0.7-0.3-1.1l0,0c1.5-1.4,2.5-2.9,3.1-4.2C53.6,76.2,53.1,77.3,52.6,78.3z
					 M54.2,72.8c-0.4,1.3-1.2,4-3.7,6.4c-0.3-1.3-0.7-2.9-0.9-4.2c-0.3-1.4-0.5-2.5-0.5-2.8c0.3,1.1,1.1,2.4,1.9,3.1l0.4-0.4
					c-0.3-0.3-0.6-0.7-0.9-1.1c0.3,0.1,0.6,0.1,0.9,0.1c0.9,0,1.9-0.3,2.4-0.8l-0.4-0.4c-0.3,0.3-1.2,0.7-2,0.7
					c-0.5,0-1-0.1-1.3-0.4c-0.2-0.4-0.3-0.8-0.4-1.1c0.1,0,0.1,0.1,0.2,0.2l0,0c0.6,0.4,1.2,0.7,1.9,0.7c0.8,0,1.6-0.3,2.2-0.9
					c0.2-0.2,0.3-0.3,0.4-0.4c0,0,0,0,0.1-0.1c0,0,0,0.1,0,0.2v0.1C54.3,71.7,54.3,72.2,54.2,72.8z M45.6,24.9h0.5v-0.5h0.5v-0.5
					h-0.5v-0.5h-0.5v0.5H45v0.5h0.5L45.6,24.9L45.6,24.9z M52.6,24.9h0.5v-0.5h0.5v-0.5h-0.5v-0.5h-0.5v0.5h-0.5v0.5h0.5V24.9z
					 M46.9,71c-0.5,2.8-0.9,7.1-2.9,10.7l0.5,0.3c2.1-3.7,2.5-8.2,3-10.9L46.9,71z M55.7,72.9c0.6,4,0.7,7.7,1.2,9.6l0.5-0.1
					c-0.4-1.8-0.6-5.6-1.2-9.6L55.7,72.9z M92.2,44.4L92.2,44.4c0-0.2,0-0.5,0.1-0.5c0,0,3.1-0.6,3.2-0.7c0.2,0,0.3,0.1,0.3,0.1l0,0
					c0,0,0.1-1.1,0.1-1.2c-0.6-0.2-0.7-1.4-1.5-1.2c0,0-2.4,0.5-2.6,0.5s-0.3-0.1-0.3-0.1l0,0l-0.4,1l0.7,0.6l-0.4,0.9
					C91.5,43.8,91.8,44,92.2,44.4z M92.1,42.3l3.2-0.6c0,0.1-0.1,0.5-0.1,0.8l-3,0.6l-0.3-0.3L92.1,42.3z M33.1,79L33.1,79L33.1,79
					C33.1,79.1,33.1,79.1,33.1,79L33.1,79z M47.5,76.7c-0.1,2.3-0.4,4.6-1.3,5.6l0.4,0.4c1.1-1.3,1.3-3.6,1.4-5.9
					c0.1-2.3,0-4.6,0.3-5.5l-0.5-0.2C47.5,72.2,47.6,74.5,47.5,76.7z M91.4,71.7c0.2-0.3,0.2-0.6,0.2-1c-0.3,0.1-1.1,0.1-1.3,0
					c0,0.3,0,0.3,0,1.3c0,0.7-0.1,1-0.2,1.1c-0.4,0-1,0-1.2,0v2.4c0,0.9-0.3,1.4-0.4,1.5c-0.6,0-1.3,0-1.5,0c-0.6,0-1.1,0.1-1.6,0.5
					c0.3-0.6,0.5-1.2,0.5-2c0-0.3,0-1,0-1.5c0.2-0.2,0.6-0.4,1-0.4H88c-0.1-0.4-0.1-0.9,0-1.2c-0.4,0-0.7,0-1,0.1
					c0.2-0.3,0.2-0.6,0.2-1c-0.3,0.1-1.1,0.1-1.3,0c0,0.3,0,0.3,0,1.3c0,0.9-0.2,1.1-0.2,1.1l0,0l0,0c-0.2,0.3-0.5,0.3-0.9,0.3v2.1
					c0,0.4,0.1,1.5-0.2,2.1l-0.7,1l0.2,0.1c0,0,0.7-1.4,2.1-1.4h3.1c-0.1-0.4-0.1-0.8,0.1-1.2c-0.1,0-0.4,0-0.6,0
					c0.2-0.1,0.4-0.4,0.7-0.7l0,0c0,0,0.5-0.5,1.2-0.5h1.1c-0.1-0.4-0.1-0.9,0-1.2c-0.8,0-1.2,0.1-1.6,0.6c0.1-0.2,0.1-0.4,0.1-0.6
					c0,0,0-0.8,0-1.3c0.2-0.2,0.6-0.4,1-0.4h1.1c-0.1-0.4-0.1-0.9,0-1.2C91.9,71.6,91.6,71.6,91.4,71.7z M96.5,56.2
					c0.2-0.3,0.2-0.5,0.2-0.9c-0.3,0.1-1,0.1-1.2,0c0,0.3,0,0.2,0,1.2c0,0.7-0.1,0.9-0.2,1c-0.2,0.2-0.7,0.4-1.3,0.4
					c0,0.1,0,0.1,0,0.2c0.3,0,0.4,0.4,0.4,0.7c0,0.1,0,0.2,0,0.4c0,0.6,0,1.8-0.3,2.2C94,61.6,93.8,62,93.8,62l-1.7,2.6l0,0l-1,1.4
					l0,0l0,0v-3.3l0.4-0.7c0.1-0.1,0.5-0.5,1-0.5h0.8c-0.1-0.3-0.1-0.8,0-1.1c-0.2,0-0.4,0-0.6,0c0.2-0.3,0.2-0.6,0.2-1
					c-0.3,0.1-1.1,0.1-1.3,0c0,0.3,0,0.3,0,1.3c0,0.7-0.1,1-0.2,1.1L91,62.5c-0.1,0.1-0.5,0.4-1.5,0.4c0,0.1,0,0.1,0,0.2
					c0.3,0,0.4,0.4,0.4,0.7c0,0.1,0,3,0,3.2c0,0.6,0,1.8-0.3,2.2c-0.1,0.2-0.4,0.6-0.4,0.6l0.1,0.1c0,0,0.3-0.4,0.7-1
					c0-0.1,0.1-0.1,0.1-0.2l0,0c0,0,0.8-1.2,2.1-1.2h1.1c-0.1-0.4,0.2-0.8,0.4-1c-1.3,0-2.2-0.2-3,0.8l-0.1,0.1
					c0.1-0.4,0.2-0.7,0.2-1.1l0,0L91,66c0.2-0.2,1-1.3,2.4-1.3H95c-0.1-0.4,0.2-0.9,0.4-1.1c0.2-0.1,0.5-0.3,0.8-0.3h1
					c-0.1-0.3-0.1-0.7,0-1.1c-0.4,0-0.6,0-0.8,0.1c0.2-0.3,0.1-0.5,0.1-0.9c-0.3,0.1-1,0.1-1.2,0c0,0.3,0,0.2,0,1.1
					c0,0.8-0.2,1-0.2,1l0,0l0,0c-1.1,0-1.8-0.1-2.5,0.4l1.3-1.9c0,0,0,0,0.1-0.1l0.5-0.8l0.1-0.1l0,0l0.1-0.1c0,0,0.5-0.5,1.1-0.5
					H97c-0.1-0.3-0.1-0.8,0-1.2c-0.9,0-1.3,0.1-1.9,0.8c0.2-0.4,0.3-0.9,0.3-1.4c0-0.3,0-0.7,0-0.9c0.2-0.1,0.6-0.4,1.1-0.4h0.7
					c-0.1-0.3-0.1-0.8,0-1.1C97,56.1,96.7,56.2,96.5,56.2z M97.7,47.8l-0.3,0.1c0.2,0.3,0.7,0.9,0.7,0.9c0.2,0,0.5-0.3,0.5-0.3
					L97.7,47.8z M8.8,60.9c-0.6-0.3-1-0.6-1.6-1l0,0L6,61.1c0.3,0.3,0.7,0.7,1.1,1.2c0,0,2.9-0.8,3-0.9c0.2-0.1,0.3,0.1,0.3,0.1l0,0
					c0-0.4,0.2-1.1,0.4-1.6l-1-0.5l-0.1,0.2c0.4,0.2,0.2,0.5,0.1,1.2L8.8,60.9z M6.7,61.5l1-1c0,0,0.5,0.3,0.9,0.5L6.7,61.5z
					 M4.5,44.6c0-0.2,0.2-0.4,0.2-0.4S8.9,45,9.1,45c0.2,0,0.2,0.2,0.2,0.2l0,0l1-1l-0.7-1.6c0,0-2.8-0.5-3-0.6
					c-0.2,0-0.2-0.2-0.2-0.2l0,0l-0.9,1L6,43.6l-1.3-0.3L4,43.8C4,43.8,4.2,44.1,4.5,44.6L4.5,44.6z M6.6,42.9l3.3,0.6l0,0l-0.6,0.6
					l-3.2-0.6L6,43.4L6.6,42.9z M5.8,54.2c0,0,2.9-0.2,3.1-0.2c0.2,0,0.3,0.1,0.3,0.1l0,0l0.7-1.2l-1.1-1.4c0,0-3.2,0.2-3.3,0.3
					c-0.2,0-0.3-0.1-0.3-0.1l0,0c-0.5,0.9-1,1.7-1.6,2.7c0,0,0.3,0.2,0.7,0.6l0,0c0-0.2,0.9-1.6,0.9-1.6L5.8,54.2z M5.6,52.6
					l3.6-0.3l0,0l-0.4,0.8l-3.4,0.3l-0.1-0.2L5.6,52.6z M7.6,49.5C7.1,49,6.8,48.6,6.3,48l0,0l-1.4,0.8c0.2,0.4,0.5,0.9,0.7,1.5
					c0,0,3,0,3.2,0s0.3,0.2,0.3,0.2l0,0c0.2-0.4,0.5-1,0.8-1.5L9,48.2l-0.1,0.1c0.3,0.3,0.1,0.5-0.2,1.1H7.6V49.5z M5.4,49.5
					l1.2-0.7c0,0,0.4,0.4,0.7,0.7H5.4z M8.9,55.7l0.6,0.6c0,0,0.4-0.3,0.6-0.6l-0.6-0.6C9.5,55.1,9.1,55.4,8.9,55.7z M16.4,20.1
					c0.1-0.3,0.1-1.2,0.1-1.2c-0.1-0.1-0.6-0.2-0.6-0.2l0.1,1.2C16.1,19.9,16.3,20.1,16.4,20.1z M4.2,47.2L4.2,47.2
					c0,0,0.1-0.4,0.3-0.4c0.2,0,4.2,0.5,4.5,0.5s0.3,0.2,0.3,0.2l0,0l0.7-0.7l-0.6-0.7l0,0c0,0.2-0.2,0.4-0.2,0.4S4.8,46,4.6,45.9
					c-0.2,0-0.2-0.2-0.2-0.2l0,0l-0.7,0.7C3.7,46.5,3.9,46.7,4.2,47.2z M8.9,40.4c-0.4-0.6-0.6-1-0.9-1.7l0,0l-1.6,0.4
					c0.1,0.4,0.3,1,0.3,1.6c0,0,2.9,0.8,3.1,0.8c0.2,0,0.2,0.2,0.2,0.2l0,0c0.3-0.4,0.8-0.8,1.2-1.2l-0.6-1l-0.1,0.1
					c0.2,0.3,0,0.5-0.5,1L8.9,40.4z M6.8,39.8l1.3-0.4c0,0,0.3,0.5,0.5,0.9L6.8,39.8z M34.1,11.4c-0.2,0.4-0.2,0.7-0.2,1.2
					c0.3-0.1,1.1-0.1,1.3,0v-1.3c0-0.6,0.1-0.9,0.2-1l0.5-0.7c0.5,0,0.9-0.1,1.2-0.3c-0.2,0.4-0.2,0.7-0.2,1.1c0.2-0.1,1-0.1,1.2,0
					V9.1c0-0.8,0.2-1,0.2-1l0.7-1h1c0.1,0,0.2,0,0.3,0c-0.2,0.2-0.4,0.5-0.7,0.8c-0.5,0.5-0.6,1-0.6,1.5c0.3-0.1,1-0.1,1.2,0V8.2
					c0-0.7,0.1-0.9,0.2-1c1.2,0.2,1.6,1,1.6,1L42.2,8l-0.7-1.1c-0.6-0.8-1.3-0.9-2-0.9c-0.4,0-3,0-3.5,0c0.2,0.2,0.2,0.7,0.1,1
					c-0.2,0.1-0.6,0.5-1,0.5h-1.4c0.1,0.3,0.1,0.8,0,1.1c0.9,0,1.5-0.1,2.1-0.9l0.5-0.6h2.4l-0.5,0.7c-0.1,0.1-0.6,0.5-1.1,0.5h-1.4
					c0.1,0.3,0.1,0.7,0,1l-0.4,0.6l0,0c0,0-0.5,0.5-1,0.5H33c0.1,0.3,0.1,0.8,0,1.1C33.5,11.6,33.8,11.5,34.1,11.4z M42.2,97.5
					l0.9-0.7c0,0,0-0.3,0-0.4c-0.3,0.1-1.1,0.5-1.1,0.5C42,97.1,42.2,97.5,42.2,97.5z M19.5,20.6L19.5,20.6l1.1-0.3l0.3,1.8
					c0.1-0.1,1-0.4,1.3-0.4c0-0.2,0.4-1.3,0.5-1.6c0,0-0.9-1-1-1.1s-0.1-0.3-0.1-0.3l0,0l-1,0.3l-0.2-1.5c-0.2,0.1-1,0.2-1.3,0.2
					c-0.1,0.5-0.6,1.5-0.6,1.5s0.8,0.8,0.9,1C19.6,20.5,19.5,20.6,19.5,20.6z M21.2,19.8l1.1,1.2v0.1c-0.3,0-1,0.2-1.2,0.3l-0.3-1.5
					L21.2,19.8z M19.1,18.6c0,0,0.9,0,1.3-0.1l0.2,1.2l-0.5,0.1L19.1,18.6L19.1,18.6z M43.6,95.2c0-0.2,0.5-2.8,0.6-3.1
					c0-0.3,0.2-0.2,0.2-0.2l0,0l-0.7-0.7L43,91.6l0,0c0.2,0,0.4,0.3,0.4,0.3s-0.6,3-0.6,3.2s-0.2,0.2-0.2,0.2l0,0l0.6,0.8
					c0,0,0.2-0.2,0.8-0.5l0,0C44,95.5,43.5,95.5,43.6,95.2z M41.2,94.1c0,0-1.1,0-1.4,0c-0.2,0-0.3-0.1-0.4-0.2c0-0.2,0-0.3,0-0.3
					c0-0.2-0.1-0.5-0.2-0.7c0.2,0.1,0.4,0.1,0.6,0.1c0.3,0,0.5,0,0.5,0s-0.1-0.2-0.1-0.6c0-0.3,0.1-0.6,0.1-0.6s-1.3,0-1.7,0
					s-0.7-0.3-0.8-0.5c0,0,0,0,0-0.1l0,0c-0.2-0.3-0.4-0.6-0.5-0.7h-1.9c0.3-0.1,0.5-0.3,0.8-0.6c0.2-0.2,0.3-0.5,0.3-0.5l-0.9-0.5
					c0,0-0.5,0.8-0.7,1c-0.5,0.6-1,0.6-1,0.6l0,0h-0.2c-1.4,0-1.9-0.9-1.9-0.9l-0.2,0.1l0.7,1.1l0,0l0.9,1.3
					c0.1,0.1,0.3,0.6,0.3,1.6v1.1c0.3-0.1,0.9,0,1.2,0c0-0.2,0-0.6,0-0.6c0-0.3-0.1-0.6-0.3-0.9c0.2,0.1,0.4,0.1,0.7,0.1
					c0.2,0,0.6,0,0.6,0s-0.1-0.2-0.1-0.6c0-0.3,0.1-0.5,0.1-0.5s-1.2,0-1.5,0c-0.5,0-1-0.5-1-0.5l-0.4-0.6c0.4,0.2,0.9,0.3,1.7,0.3
					h3.1c0.1,0.2,0.3,0.8,0.3,1.7v0.7c0.4-0.1,0.8-0.1,1.3,0l0,0c0,0.1,0.1,0.3,0.1,0.8V96c0.2-0.1,0.8-0.1,1,0c0-0.4,0-0.7-0.2-1.1
					c0.1,0.1,0.3,0.1,0.5,0.1h0.5c0,0-0.1-0.2-0.1-0.5C41.1,94.3,41.2,94.1,41.2,94.1z M24.1,15.9c-0.2,0.4-0.2,0.8-0.2,1.4
					c0.3-0.1,1-0.1,1.2,0c0-0.3,0-0.3,0-1.4c0-0.8,0.3-1.3,0.4-1.3l0.3-0.4c0.3-0.1,0.9-0.1,1.1,0c0-0.3,0,0,0-1.1
					c0-0.7,0.2-1,0.3-1.2h0.3c1,0,1.6,0,2.1-0.4c-0.2,0.4-0.3,0.9-0.3,1.5c0,0.3,0,1,0,1.3c0,0,0,0-0.1,0.1
					c-0.2,0.1-0.5,0.4-0.9,0.4H27c0.1,0.3,0.1,0.8,0,1.1c0.4,0,0.8,0,1.1-0.2c-0.2,0.3-0.2,0.7-0.2,1.1c0.3-0.1,1.1-0.1,1.3,0v-1.3
					c0-0.7,0.1-1,0.2-1.1c0.2,0,0.6-0.1,1,0v-2.3c0-0.4-0.1-1.6,0.2-2.1L31,9.4l-0.1-0.1l-0.1,0.2l-0.4,0.6l0,0c0,0,0,0.1-0.1,0.1
					c-0.2,0.2-0.6,0.5-1.5,0.5c-0.4,0-0.4,0-0.8,0s-0.6-0.2-0.6-0.3c-0.1,0-0.2,0-0.2,0v1.3c-0.1,0-0.2,0.1-0.3,0.3
					c-0.2,0.1-0.5,0.4-0.9,0.4h-1c0.1,0.3,0.1,0.8,0,1.1c0.4,0,0.7,0,0.9-0.1c-0.1,0.2-0.1,0.4-0.1,0.6l-0.3,0.4
					c-0.1,0.1-0.6,0.5-1.1,0.5H23c0.1,0.3,0.1,0.8,0,1.1C23.3,16.1,23.7,16.1,24.1,15.9z M10.4,62.5c0,0-2.8,0.9-2.9,1
					c-0.2,0.1-0.3,0-0.3,0l0,0l-0.3,1.1l0.9,0.6l-1.5,0.5l-0.4,0.8c0,0,0.3,0.1,0.8,0.4l0,0c-0.1-0.2,0-0.5,0-0.5s4.3-1.4,4.5-1.5
					c0.2-0.1,0.3,0,0.3,0l0,0l0.3-0.9L11,63.6l0,0c0.1,0.2,0,0.5,0,0.5L8,65l-0.4-0.2l0.1-0.5l3.2-1.1c0.9-0.3,1.1-0.3,1.1-0.3v-0.1
					C12.1,62.9,11.1,62.3,10.4,62.5z M5.3,58.7l0.8,0.5l0,0c0-0.2,0.1-0.5,0.1-0.5l1.5-1.1l2.9,1c0,0-0.4-0.8-0.4-0.9
					c-1.6-0.5-4.5-1.5-4.8-1.6l0,0L5,56.7l0.7,0.5l0,0c0-0.2,0.1-0.3,0.1-0.3l1.1,0.3l-1.4,1L5.3,58.7z M17.4,23L17.4,23l-0.9,0.4
					L16,22c-0.2,0.1-0.9,0.3-1.2,0.3c0,0.5-0.4,1.6-0.4,1.6s0.9,0.7,1,0.8c0.2,0.1,0.1,0.3,0.1,0.3l0,0l1.1-0.4l0.6,1.8
					c0.1-0.1,1-0.5,1.2-0.5c0-0.2,0.2-1.4,0.3-1.6c0,0-1-0.8-1.2-0.9C17.4,23.2,17.4,23,17.4,23z M15.9,24.1l-1.1-0.9v-0.1
					c0,0,0.9-0.1,1.3-0.3l0.3,1.1L15.9,24.1z M18.3,25.1c-0.3,0.1-1,0.4-1.1,0.5l-0.5-1.4l0.4-0.2l1.2,1V25.1z M30.1,43.3l0.5,0.8
					l0.5-0.8l-0.5-0.8L30.1,43.3z M35,44.2l0.5-0.8L35,42.5l-0.5,0.8L35,44.2z M27,43.3l-0.5-0.8L26,43.3l0.5,0.8L27,43.3z
					 M16.1,28.2l0.9-0.4l-0.2-0.9l0,0c-0.1,0.2-0.4,0.3-0.4,0.3s-2.6-1.6-2.7-1.7c-0.1-0.1-0.1-0.2-0.1-0.2l0,0l-1,0.5l0.1,0.9
					L11.8,27c0,0,0.1,0.3,0.2,0.9l0,0c0.1-0.2,0.3-0.3,0.4-0.3c0,0,2.6,1.7,2.8,1.8c0.2,0.1,0.1,0.3,0.1,0.3l0,0l0.8-0.3l-0.2-0.8
					l0,0l-0.3,0.1l-2.8-1.8v-0.4l0.5-0.2c0,0,2.5,1.6,2.7,1.7C16.1,28,16.1,28.1,16.1,28.2L16.1,28.2z M20.6,22.5L20.6,22.5
					c-0.2,0.1-0.5,0.2-0.5,0.2s-2.3-2-2.4-2.2c-0.1-0.1-0.1-0.3-0.1-0.3l0,0l-1,0.2c0,0,0.1,0.3,0,0.9l0,0c0,0,0.3-0.3,0.5-0.2
					c0.1,0.1,2.1,1.9,2.3,2.1c0.2,0.2,0.1,0.3,0.1,0.3l0,0l1-0.2L20.6,22.5z M11.4,36.5c0.2,0.3,0,0.4-0.4,0.8l-2.9-1L8,36.1
					c0.2-0.1,1.1-0.3,1.1-0.3l0,0C8.8,35.4,8.7,35,8.7,35l0,0l-1.1,0.4L8,36.2l-0.8,0.4c0,0,0.2,0.3,0.4,0.8l0,0
					C7.7,37.2,7.8,37,7.9,37c0,0,2.8,1,3,1c0.2,0.1,0.2,0.2,0.2,0.2l0,0c0.3-0.3,0.7-0.6,1-0.9l-0.5-1L11.4,36.5z M44.2,97.3
					c0,0.2,0.2,0.6,0.2,0.6l0.9-0.8c0,0,0-0.3,0-0.4C44.9,96.8,44.2,97.3,44.2,97.3z M11.3,67c0,0.4,0,0.9,0.1,1.3
					c-0.5-0.4-1-0.5-1.8-0.5c0.1,0.4,0.1,0.9,0,1.3h1.1c0.8,0,1.5,0.5,1.5,0.5l0.3,0.4c-0.3-0.2-0.5-0.2-1-0.2
					c0.1,0.3,0.1,0.8,0,1.1h1c0.3,0,0.6,0.2,0.8,0.3c0,0.3,0,0.7,0,1c0,1,0.4,1.9,0.9,2.5c0,0.1,0.1,0.1,0.1,0.2
					c-0.5-0.3-0.9-0.3-1.8-0.3l-0.1-0.1L11,72.3l0,0c0-0.1-0.2-0.3-0.2-1c0-0.9,0-0.9,0-1.1c-0.3,0.1-0.9,0.1-1.2,0
					c0,0.5,0,0.7,0.3,1.1c-0.3-0.1-0.6-0.1-1.1-0.1c0.1,0.3,0.1,0.8,0,1.1H10c0.6,0,1,0.4,1,0.5l0.4,0.7C11.1,73,10.6,73,9.9,73
					c0.1,0.4,0.1,0.9,0,1.3h1.4c0.4,0,0.8,0.3,1.1,0.4c0.1,0.3,0.2,0.7,0.1,1.1h1c1.3,0,2.2,1,2.4,1.3l0.2,0.2
					c0,0.3,0.1,0.6,0.2,0.8l0,0c-0.8-1-1.2-0.9-3-0.9c0.1,0.3,0.1,0.8,0,1.1c0.2,0,1.5,0,1.5,0c1.3,0,2.1,1.2,2.1,1.2l0,0
					c0,0.1,0.1,0.1,0.1,0.2c0.4,0.6,0.7,1,0.7,1l0.2-0.1c0,0-0.3-0.4-0.4-0.6C17,79.6,17,78.4,17,77.8c0-0.2,0-3,0-3.2v-0.9
					c-0.5,0.1-1.1,0-1.1,0s0,2.6,0,3.3l-0.8-1.2c0,0-0.2-0.3-0.3-0.5c-0.3-0.4-0.3-1.6-0.3-2.3c0-0.2,0-0.3,0-0.4
					c0-0.3,0-1.2,0.4-1.2c0-0.1,0-0.1,0-0.2c-0.7,0-1.2,0-1.4,0v-0.1L12.8,70c0,0-0.2-0.5-0.2-1.1V67C12.3,67.1,11.6,67.1,11.3,67z
					 M13.3,32.9c-0.1,0.2-0.3,0.3-0.3,0.3s-3-1.3-3.2-1.4s-0.2-0.2-0.2-0.2l0,0l-1.1,0.8c0,0,0.2,0.4,0.3,1.7c0,0,2.6,1.1,2.8,1.2
					c0.2,0.1,0.2,0.2,0.2,0.2l0,0l1.1-0.7l0.4,0.9l0.9-0.7L13.3,32.9L13.3,32.9z M11.8,34.4l-3.1-1.3l0,0l0.7-0.5l2.9,1.3l0.1,0.2
					L11.8,34.4z M12.9,34.8l-0.4-0.9l1.1,0.5L12.9,34.8z M22.1,44.1l0.5-0.8l-0.5-0.8l-0.5,0.8L22.1,44.1z M14.4,30.2
					c0.1,0.4-0.2,0.5-0.8,0.9l-1-0.5c-0.2-0.7-0.3-1.1-0.4-1.9l0,0h-1.6c0,0.5,0,1-0.1,1.6c0,0,2.6,1.5,2.8,1.6
					c0.2,0.1,0.2,0.3,0.2,0.3l0,0c0.3-0.3,0.9-0.6,1.4-0.9l-0.3-1.1H14.4z M10.8,29.5h1.4c0,0,0.1,0.6,0.2,1L10.8,29.5z M51.5,7.1
					L51,6.2L50.5,7L51,7.9L51.5,7.1z M40.1,34.7l-0.5-0.8l-0.5,0.8l0.5,0.8L40.1,34.7z M51.9,51.2c-0.5,0.2-0.7,0.8-0.7,0.9
					c0,0.2,0,0.7,0,0.7h0.3c0,0,0-0.5,0-0.6c0-0.3,0.4-0.8,0.8-0.8c0.5,0,0.8,0.4,0.8,0.4l0.2-0.2C53,51.3,52.4,50.9,51.9,51.2z
					 M66.7,65.9v0.5l1.2-0.8l0.5,0.7l-1.4,1l0.3,0.4l1.5-1.1l0.3,0.4l-0.6,0.5l0.3,0.3l0.9-0.7l-0.4-0.5l0.8-0.7l-0.4-1.1l0.3-0.2
					v-0.3h-0.8l0.4,1.4l-0.3,0.2l-0.5-0.6v-1.4h-1.2v0.4l0.3,0.3l-0.3,0.2l-0.6-1h-0.4V64l1,1.1L66.7,65.9z M39.6,54
					c0.7,0,1.3-0.6,1.3-1.3s-0.6-1.3-1.3-1.3s-1.3,0.6-1.3,1.3S38.9,54,39.6,54z M39.6,51.6c0.6,0,1,0.5,1,1c0,0.6-0.5,1-1,1
					c-0.6,0-1-0.5-1-1S39,51.6,39.6,51.6z M71.9,43.3l-0.5-0.8l-0.5,0.8l0.5,0.8L71.9,43.3z M55.9,24.9h0.5v-0.5H57v-0.5h-0.5v-0.5
					H56v0.5h-0.5v0.5H56L55.9,24.9L55.9,24.9z M58,24.9h0.5v-0.5H59v-0.5h-0.5v-0.5H58v0.5h-0.5v0.5H58V24.9z M56.8,31.7l0.5,0.8
					l0.5-0.8l-0.5-0.8L56.8,31.7z M79.9,44.2l0.5-0.8l-0.5-0.8l-0.5,0.8L79.9,44.2z M45.2,31.7l-0.5-0.8l-0.5,0.8l0.5,0.8L45.2,31.7
					z M52.3,51.8c-0.5,0-0.7,0.2-0.7,0.4c0.1,0,0.3,0,0.5,0c-0.1,0-0.1,0.1-0.1,0.2c0,0.1,0.1,0.2,0.2,0.2c0.1,0,0.2-0.1,0.2-0.2
					c0-0.1,0-0.1-0.1-0.2c0.2,0,0.4,0,0.5,0C52.9,52,52.6,51.8,52.3,51.8z M56.6,16l-0.5-0.8L55.6,16l0.5,0.8L56.6,16z M49.9,51.7
					c-0.5,0-0.7,0.2-0.7,0.4c0.1,0,0.3,0,0.6,0c-0.1,0-0.1,0.1-0.1,0.2c0,0.1,0.1,0.2,0.2,0.2c0.1,0,0.2-0.1,0.2-0.2
					c0-0.1,0-0.1-0.1-0.2c0.2,0,0.4,0,0.5,0C50.5,51.9,50.2,51.7,49.9,51.7z M50.2,51.2c-0.5-0.2-1.1,0.1-1.4,0.4l0.2,0.2
					c0,0,0.3-0.4,0.8-0.4s0.8,0.5,0.8,0.8c0,0.1,0,0.6,0,0.6h0.3c0,0,0-0.5,0-0.7C50.9,52,50.8,51.4,50.2,51.2z M44.9,91.9
					L44.9,91.9c0.2,0.1,0.4,0.3,0.4,0.3s-0.4,3-0.5,3.2c0,0.2-0.2,0.2-0.2,0.2l0,0l0.7,0.7c0,0,0.2-0.2,0.7-0.5l0,0
					c0,0-0.4-0.1-0.4-0.3c0-0.2,0.4-2.9,0.5-3.1c0-0.3,0.2-0.3,0.2-0.3l0,0l-0.7-0.7L44.9,91.9z M55.6,95.7c0,0-0.2-2.9-0.2-3.1
					s0.1-0.3,0.1-0.3l0,0c-0.4-0.2-0.9-0.4-1.2-0.6l-0.8,0.9l0.1,0.1c0.2-0.3,0.4-0.2,0.9,0l0.2,3H54l-0.2,0.4h0.9l0.1,1.3h0.1
					c0.2-0.7,0.6-1.2,1-1.6v-0.2L55.6,95.7z M53,92.7c0-0.2,0.1-0.2,0.1-0.2l0,0L52,91.9c0,0-0.8,0.7-1.5,1c0,0,0,2.9,0,3.1
					s-0.1,0.3-0.1,0.3l0,0l0.7,0.5l0.6-0.6l0,0L51.5,96v-3.5l0.1-0.1l0.6,0.4c0,0,0,2.9,0,3.1c0,0.3-0.1,0.3-0.1,0.3l0,0l0.8,0.6
					l0.6-0.6l0,0c-0.2,0-0.4-0.2-0.4-0.2S53,92.9,53,92.7z M46.4,16l-0.5-0.8L45.4,16l0.5,0.8L46.4,16z M54.9,8.6l-0.5-0.8l-0.5,0.8
					l0.5,0.8L54.9,8.6z M49.3,96c0,0,0.2-2.9,0.3-3.1c0-0.2,0.2-0.3,0.2-0.3l0,0l-1.1-0.9l-1.5,0.8c0,0-0.3,3.2-0.3,3.3
					c0,0.2-0.1,0.2-0.1,0.2l0,0c0.8,0.7,1.5,1.3,2.4,2c0,0,0.2-0.3,0.7-0.6l0,0c-0.2,0-1.4-1.1-1.4-1.1L49.3,96z M47.7,95.9l0.3-3.6
					l0,0l0.7,0.5l-0.3,3.4l-0.2,0.1L47.7,95.9z M16.6,52l0.5,0.8l0.5-0.8l-0.5-0.8L16.6,52z M59.4,93.9L59.4,93.9l-1.1-0.4l0.8-1.7
					c-0.2,0-1.1-0.3-1.2-0.4c-0.1,0.1-1.1,0.9-1.3,1c0,0,0.2,1.3,0.2,1.5s-0.1,0.3-0.1,0.3l0,0l1,0.3L57,95.7
					c0.2,0.1,0.9,0.4,1.1,0.6c0.4-0.4,1.4-0.9,1.4-0.9s-0.2-1.1-0.2-1.3C59.2,94,59.4,93.9,59.4,93.9z M57.6,93.6L57.3,92l0.1-0.1
					c0.3,0.2,1,0.4,1.2,0.4L58,93.7L57.6,93.6z M58.6,95.8c0,0-0.8-0.5-1.1-0.6l0.5-1.1l0.4,0.2L58.6,95.8L58.6,95.8z M67.7,89.4
					l-0.2-0.1l-0.2,0.3c-0.2,0.3-0.8,1-1.7,1h-2.4c0.1,0.4,0.1,0.9-0.1,1.3c0.4,0,0.8,0,1.2,0l-0.2,0.3l0,0c0,0-0.7,1.1-2,1.1
					c-0.5,0-1.3,0-1.3,0s0.1,0.2,0.1,0.5c0,0.5-0.2,0.6-0.2,0.6s0.6,0,1.1,0c0.2,0,0.5-0.1,0.7-0.2c-0.3,0.5-0.6,1.1-0.6,1.6
					c0,0,0,0.2,0,0.6c0.3-0.2,1.1-0.1,1.4-0.1v-1.1c0-1,0.3-1.6,0.4-1.9l0.9-1.4c0.7,0,1.2-0.2,1.7-0.5v2.3l0,0c0,0-0.4,0.5-1,0.5
					h-1.2c0.1,0.3,0.1,0.7,0,1c0.5,0,0.9,0,1.2-0.2c-0.1,0.3-0.1,0.7-0.1,1c0.2-0.1,0.9-0.1,1,0v-1.4c0-0.4,0.1-0.6,0.1-0.7
					c0.3,0,1.1,0,1.3,0c0-0.1,0-0.1,0-0.2c-0.3,0-0.4-0.2-0.4-0.8c0-0.2,0-0.9,0-1.1C67.3,91.1,67.2,90.2,67.7,89.4
					C67.7,89.5,67.7,89.4,67.7,89.4z M53.2,16l-0.5-0.8L52.1,16l0.5,0.8L53.2,16z M75.1,43.3l0.5,0.8l0.5-0.8l-0.5-0.8L75.1,43.3z
					 M66.5,43.3l0.5,0.8l0.5-0.8L67,42.5L66.5,43.3z M49.9,16l-0.5-0.8L48.8,16l0.5,0.8L49.9,16z M48.1,8.6l-0.5-0.8l-0.5,0.8
					l0.5,0.8L48.1,8.6z"/>
			</g>
		</g>
	</g>
</g>
</svg>
