<?xml version="1.0" encoding="UTF-8"?>
<svg id="Ebene_2" data-name="Ebene 2" xmlns="http://www.w3.org/2000/svg" viewBox="0 0 253.72 53.46">
  <defs>
    <style>
      .cls-1 {
        fill: #000;
        stroke-width: 0px;
      }
    </style>
  </defs>
  <g id="Ebene_1-2" data-name="Ebene 1">
    <g>
      <path class="cls-1" d="M0,50.25h15.05c3.98,0,7.44-.85,9.89-3.02,2.45-2.16,3.95-5.65,3.96-11.08,0-5.82-1.4-9.36-3.74-11.46-2.33-2.1-5.68-2.8-9.66-2.8h0s-15.49,0-15.49,0v6.12h13.12c1.99-.01,3.35.69,4.11,2.06.77,1.35,1,3.28,1,5.79,0,2.42-.21,4.33-.97,5.68-.75,1.36-2.1,2.09-4.11,2.08h-2.99v-10.03H0v16.65Z"/>
      <polygon class="cls-1" points="31.1 50.25 41.27 50.25 41.27 39.97 53.94 39.97 53.94 33.6 41.27 33.6 41.27 28.02 53.94 28.02 53.94 21.9 31.1 21.9 31.1 50.25"/>
      <path class="cls-1" d="M60.95,24.98c-3,2.38-4.9,5.91-4.91,10.68,0,5.09,1.83,8.84,4.79,11.34,2.96,2.5,7.09,3.75,11.7,3.75,4.32,0,7.72-.44,11.31-1.5v-13.08h-8.64v7.62l-.19.07c-.73.28-1.63.27-2.4.27-2.23,0-3.82-.93-4.79-2.37-.98-1.44-1.37-3.36-1.37-5.39,0-2.7.91-4.81,2.54-6.22,1.62-1.41,3.92-2.12,6.64-2.12s4.98.63,6.54,1.45v-7.05c-2.57-.63-4.53-1.01-9.63-1.01h0c-4.45,0-8.58,1.2-11.58,3.58"/>
    </g>
    <g>
      <path class="cls-1" d="M98.36,21.87h2.5c1.79.02,3.09.5,3.89,1.45.78.95,1.17,2.2,1.16,3.75-.02,1.86-.57,3.2-1.64,4.02-1.06.81-2.44,1.21-4.15,1.21h-1.77v-10.43ZM99.35,31.41h.83c3.08.07,4.66-1.4,4.74-4.4-.02-1.58-.42-2.69-1.19-3.34-.78-.62-1.76-.92-2.92-.91h-1.46v8.65Z"/>
      <path class="cls-1" d="M113.26,32.06c-.69.27-1.41.41-2.14.42-1.21-.02-2.07-.41-2.59-1.15-.52-.73-.77-1.68-.76-2.84,0-1.19.3-2.15.87-2.88.55-.73,1.3-1.1,2.24-1.11,1.03.02,1.79.39,2.26,1.12.45.72.68,1.6.68,2.66v.48h-5.06c0,.83.21,1.51.62,2.05.41.57,1.01.86,1.81.87.36,0,.74-.07,1.13-.2.4-.11.71-.23.94-.37v.95ZM112.82,27.96c0-.7-.14-1.31-.42-1.84-.3-.53-.79-.8-1.47-.82-.67.02-1.19.3-1.58.84-.4.54-.59,1.15-.59,1.82h4.07Z"/>
      <path class="cls-1" d="M121.54,30.5c0,.58.01,1.18.06,1.79h-.88v-1.36h-.03c-.07.16-.16.33-.28.5-.11.18-.26.35-.45.51-.18.15-.41.27-.68.36-.27.11-.6.17-.98.17-.89,0-1.54-.29-1.93-.84-.4-.54-.59-1.24-.58-2.09v-4.87h.9v4.63c0,.73.14,1.3.42,1.71.27.44.72.66,1.34.66.41,0,.77-.09,1.05-.27.29-.17.51-.39.67-.66.17-.28.29-.58.36-.9.07-.32.11-.63.11-.96v-4.22h.9v5.83Z"/>
      <path class="cls-1" d="M127.27,25.48h-1.68v4.94c0,.35.08.64.23.88.14.25.39.37.75.37.33,0,.61-.06.84-.18l.06.77c-.11.04-.26.08-.45.13-.2.05-.42.08-.66.08-.4,0-.71-.07-.94-.21-.22-.14-.39-.33-.5-.55-.1-.24-.16-.51-.19-.8-.03-.3-.04-.63-.04-.98v-4.45h-1.45v-.8h1.45v-1.84l.9-.33v2.17h1.68v.8Z"/>
      <path class="cls-1" d="M128.51,31.19c.56.31,1.2.47,1.92.48.46,0,.84-.12,1.16-.37.31-.23.47-.56.48-.99,0-.45-.19-.81-.54-1.07-.35-.25-.76-.47-1.23-.67-.22-.11-.43-.22-.64-.34-.2-.12-.4-.25-.58-.4-.17-.16-.3-.35-.41-.56-.1-.2-.16-.43-.16-.7,0-.76.26-1.3.75-1.61.48-.31,1.03-.47,1.65-.47.21,0,.49.02.83.06.33.06.67.15,1,.28l-.08.82c-.53-.23-1.08-.35-1.64-.36-.47,0-.85.09-1.12.26-.15.09-.26.22-.34.38-.08.16-.13.37-.13.63,0,.16.05.3.16.45.1.13.24.25.42.36.17.1.37.21.59.31.22.1.44.21.65.33.48.21.9.49,1.26.84.36.35.54.83.55,1.45,0,.4-.08.73-.23,1-.16.28-.37.5-.62.67-.54.33-1.11.5-1.72.5-.71,0-1.4-.12-2.06-.36l.08-.92Z"/>
      <path class="cls-1" d="M139.69,25.69c-.52-.25-1.05-.38-1.58-.39-.89,0-1.57.3-2.04.88-.5.59-.74,1.36-.74,2.31,0,.89.24,1.63.73,2.23.47.63,1.12.95,1.95.96.57,0,1.13-.11,1.67-.34l.08.88c-.6.19-1.23.28-1.89.27-1.19-.02-2.07-.43-2.65-1.21-.59-.77-.88-1.7-.88-2.78,0-1.21.35-2.17,1.01-2.88.66-.73,1.54-1.1,2.64-1.11.45,0,.83.03,1.13.1.16.03.29.06.4.09.11.04.19.07.25.1l-.07.89Z"/>
      <path class="cls-1" d="M141.53,21.09h.9v4.87h.03c.2-.43.5-.78.9-1.06.4-.26.86-.39,1.4-.4.98,0,1.66.31,2.01.9.35.6.52,1.38.51,2.34v4.56h-.9v-4.55c0-.34-.02-.66-.06-.96-.04-.29-.12-.54-.25-.76-.23-.48-.71-.72-1.45-.73-.79.02-1.36.33-1.7.94-.33.61-.5,1.27-.49,1.97v4.08h-.9v-11.21Z"/>
      <path class="cls-1" d="M154.79,32.06c-.69.27-1.41.41-2.14.42-1.21-.02-2.07-.41-2.59-1.15-.52-.73-.77-1.68-.76-2.84,0-1.19.3-2.15.87-2.88.55-.73,1.3-1.1,2.24-1.11,1.03.02,1.79.39,2.26,1.12.45.72.68,1.6.68,2.66v.48h-5.06c0,.83.21,1.51.62,2.05.41.57,1.01.86,1.81.87.36,0,.74-.07,1.13-.2.4-.11.71-.23.94-.37v.95ZM154.34,27.96c0-.7-.14-1.31-.42-1.84-.3-.53-.79-.8-1.47-.82-.67.02-1.19.3-1.58.84-.4.54-.59,1.15-.59,1.82h4.07Z"/>
      <path class="cls-1" d="M98.32,39.8h4.8v.89h-3.81v3.73h3.63v.89h-3.63v4.92h-.99v-10.43Z"/>
      <path class="cls-1" d="M104.41,46.42c0-1.08.28-2.01.84-2.78.56-.79,1.42-1.19,2.6-1.21,1.2.02,2.07.42,2.63,1.21.54.77.81,1.7.81,2.78s-.27,1.99-.81,2.77c-.56.79-1.44,1.2-2.63,1.23-1.18-.02-2.04-.43-2.6-1.23-.56-.78-.84-1.7-.84-2.77ZM105.4,46.42c0,.91.21,1.66.64,2.25.41.62,1.01.93,1.82.94.8,0,1.42-.32,1.84-.94.41-.59.61-1.34.61-2.25s-.2-1.67-.61-2.28c-.43-.6-1.04-.9-1.84-.91-.8,0-1.41.31-1.82.91-.42.6-.64,1.36-.64,2.28Z"/>
      <path class="cls-1" d="M113.29,44.31c0-.71-.02-1.27-.06-1.7h.9v1.46h.03c.17-.45.42-.83.74-1.15.31-.32.7-.49,1.16-.5.24,0,.45.04.64.09v.98c-.2-.06-.42-.09-.66-.09-.36,0-.65.1-.88.27-.23.18-.42.42-.57.73-.14.3-.23.63-.29.97-.07.37-.1.73-.1,1.08v3.77h-.9v-5.92Z"/>
      <path class="cls-1" d="M117.7,49.13c.56.31,1.2.47,1.92.48.46,0,.84-.12,1.16-.37.31-.23.47-.56.48-.99,0-.45-.19-.81-.54-1.07-.35-.25-.76-.47-1.23-.67-.22-.11-.43-.22-.64-.34-.2-.12-.4-.26-.58-.4-.17-.16-.3-.35-.41-.55-.1-.2-.16-.43-.16-.7,0-.76.26-1.3.75-1.61.48-.31,1.03-.47,1.65-.47.21,0,.49.02.83.06.33.06.66.15,1,.28l-.08.82c-.53-.23-1.08-.35-1.64-.36-.47,0-.85.09-1.12.26-.15.09-.26.22-.34.38-.08.16-.13.37-.13.63,0,.16.05.3.16.45.1.13.24.25.42.36.17.1.37.21.59.31.22.1.44.21.65.33.48.21.9.49,1.26.84.36.35.54.84.55,1.45,0,.4-.08.73-.23,1-.16.28-.37.5-.62.67-.54.33-1.11.5-1.72.5-.71,0-1.4-.12-2.06-.36l.08-.92Z"/>
      <path class="cls-1" d="M128.89,43.62c-.52-.25-1.05-.38-1.58-.39-.89,0-1.57.3-2.04.88-.5.59-.74,1.36-.74,2.31,0,.89.24,1.63.73,2.23.47.63,1.12.95,1.95.96.57,0,1.13-.11,1.67-.34l.08.88c-.6.19-1.23.28-1.89.27-1.19-.02-2.07-.43-2.65-1.21-.59-.77-.88-1.7-.88-2.78,0-1.21.35-2.17,1.01-2.88.66-.73,1.54-1.1,2.64-1.11.45,0,.83.03,1.13.1.16.03.29.06.4.09.11.04.19.07.25.1l-.07.89Z"/>
      <path class="cls-1" d="M130.72,39.02h.9v4.87h.03c.2-.43.5-.78.9-1.06.4-.26.86-.39,1.4-.4.98,0,1.66.31,2.01.9.35.6.52,1.38.51,2.34v4.56h-.9v-4.55c0-.34-.02-.66-.06-.96-.04-.29-.12-.54-.25-.76-.23-.48-.71-.72-1.45-.73-.79.02-1.36.33-1.7.94-.33.61-.5,1.27-.49,1.97v4.08h-.9v-11.21Z"/>
      <path class="cls-1" d="M144.78,48.44c0,.58.01,1.18.06,1.79h-.88v-1.36h-.03c-.07.16-.16.33-.28.5-.11.18-.26.35-.45.51-.18.15-.41.27-.68.36-.27.11-.6.17-.98.17-.89,0-1.54-.29-1.93-.84-.4-.54-.59-1.24-.58-2.09v-4.87h.9v4.63c0,.73.14,1.3.42,1.71.27.44.72.66,1.34.66.41,0,.77-.09,1.05-.27.29-.17.51-.39.67-.66.17-.28.29-.58.36-.9.07-.32.11-.64.11-.96v-4.22h.9v5.82Z"/>
      <path class="cls-1" d="M147.34,44.4c0-.58-.02-1.18-.06-1.79h.88v1.36h.03c.08-.18.19-.36.3-.54.11-.18.26-.34.43-.49.18-.16.41-.29.68-.38.27-.09.59-.13.97-.13.91,0,1.56.29,1.95.84.38.54.56,1.23.56,2.09v4.87h-.9v-4.64c0-.73-.13-1.3-.39-1.73-.28-.41-.74-.62-1.37-.63-.81.02-1.38.32-1.71.89-.17.27-.29.57-.36.88-.08.33-.11.67-.11,1.01v4.22h-.9v-5.83Z"/>
      <path class="cls-1" d="M161.49,49.61c0,1.08-.25,1.99-.76,2.72-.53.73-1.43,1.11-2.69,1.13-.49,0-.93-.06-1.34-.16-.4-.1-.7-.18-.9-.24l.08-.94c.61.34,1.33.51,2.17.53.59,0,1.05-.12,1.39-.33.35-.2.61-.48.77-.84.17-.36.29-.77.33-1.24.04-.47.06-.97.06-1.51h-.03c-.52,1.01-1.27,1.51-2.24,1.49-1.16-.03-1.97-.46-2.43-1.28-.25-.38-.41-.79-.51-1.23-.12-.44-.18-.87-.18-1.3,0-1.19.23-2.14.71-2.87.48-.74,1.25-1.11,2.33-1.12.48,0,.91.06,1.28.17.35.14.7.42,1.03.87h.03v-.86h.9v6.99ZM156.21,46.42c-.01.78.15,1.46.49,2.05.33.62.88.94,1.64.96.82-.02,1.41-.35,1.75-.99.33-.62.5-1.29.5-2.02,0-.95-.15-1.72-.46-2.3-.32-.59-.9-.88-1.73-.89-.43,0-.79.09-1.06.29-.28.18-.51.42-.68.75-.16.3-.27.64-.35,1.02-.07.38-.1.76-.1,1.14Z"/>
      <path class="cls-1" d="M163.4,49.13c.56.31,1.2.47,1.92.48.46,0,.84-.12,1.16-.37.31-.23.47-.56.48-.99,0-.45-.19-.81-.54-1.07-.35-.25-.76-.47-1.23-.67-.22-.11-.43-.22-.64-.34-.2-.12-.4-.26-.58-.4-.16-.16-.3-.35-.41-.55-.1-.2-.16-.43-.16-.7,0-.76.26-1.3.75-1.61.48-.31,1.03-.47,1.65-.47.21,0,.49.02.83.06.33.06.67.15,1,.28l-.08.82c-.53-.23-1.08-.35-1.64-.36-.47,0-.85.09-1.12.26-.15.09-.26.22-.34.38-.08.16-.13.37-.13.63,0,.16.05.3.16.45.1.13.24.25.42.36.17.1.37.21.59.31.22.1.44.21.65.33.48.21.9.49,1.26.84.36.35.54.84.55,1.45,0,.4-.08.73-.23,1-.16.28-.37.5-.62.67-.54.33-1.11.5-1.72.5-.71,0-1.4-.12-2.06-.36l.08-.92Z"/>
      <path class="cls-1" d="M175.62,49.61c0,1.08-.25,1.99-.76,2.72-.53.73-1.43,1.11-2.69,1.13-.49,0-.93-.06-1.34-.16-.4-.1-.7-.18-.9-.24l.08-.94c.61.34,1.33.51,2.17.53.59,0,1.05-.12,1.39-.33.35-.2.61-.48.77-.84.17-.36.29-.77.33-1.24.04-.47.06-.97.06-1.51h-.03c-.52,1.01-1.27,1.51-2.24,1.49-1.16-.03-1.97-.46-2.43-1.28-.25-.38-.41-.79-.51-1.23-.12-.44-.18-.87-.18-1.3,0-1.19.23-2.14.71-2.87.48-.74,1.25-1.11,2.33-1.12.48,0,.91.06,1.28.17.35.14.7.42,1.03.87h.03v-.86h.9v6.99ZM170.34,46.42c-.01.78.15,1.46.49,2.05.33.62.88.94,1.64.96.82-.02,1.41-.35,1.75-.99.33-.62.5-1.29.5-2.02,0-.95-.15-1.72-.46-2.3-.32-.59-.9-.88-1.73-.89-.43,0-.79.09-1.06.29-.28.18-.51.42-.68.75-.16.3-.27.64-.35,1.02-.07.38-.1.76-.1,1.14Z"/>
      <path class="cls-1" d="M183.04,50c-.69.27-1.41.41-2.14.42-1.21-.02-2.07-.41-2.59-1.15-.52-.73-.77-1.68-.76-2.84,0-1.19.3-2.15.87-2.88.55-.73,1.3-1.1,2.24-1.11,1.03.02,1.79.39,2.26,1.12.45.71.68,1.6.68,2.66v.48h-5.06c0,.83.21,1.51.62,2.05.41.57,1.01.86,1.81.87.36,0,.74-.07,1.13-.2.4-.11.71-.23.94-.37v.95ZM182.6,45.89c0-.7-.14-1.31-.42-1.83-.3-.53-.79-.8-1.47-.82-.67.02-1.19.3-1.58.84-.4.54-.59,1.15-.59,1.82h4.07Z"/>
      <path class="cls-1" d="M194.63,50.23v-5.07c0-.28-.02-.54-.06-.78-.06-.23-.16-.43-.29-.6-.12-.18-.28-.31-.49-.42-.21-.09-.47-.13-.79-.13-.53,0-1,.22-1.42.66-.42.46-.64,1.17-.65,2.13v4.22h-.9v-5.07c0-.28-.02-.54-.07-.78-.06-.23-.16-.43-.29-.6-.12-.18-.28-.31-.49-.42-.21-.09-.47-.13-.79-.13-.53,0-1,.22-1.42.66-.42.46-.64,1.17-.65,2.13v4.22h-.91v-5.83c0-.58-.02-1.18-.06-1.79h.91v1.29h.03c.07-.13.16-.28.28-.45.1-.17.24-.33.41-.47.18-.15.4-.28.67-.39.27-.1.6-.15,1-.15.18,0,.37.02.58.06.2.04.4.12.6.24.2.11.37.27.52.48.15.22.25.49.31.83h.03c.19-.46.49-.84.91-1.14.41-.3.91-.46,1.52-.47.77,0,1.36.25,1.78.72.41.46.61,1.08.61,1.84v5.25h-.91Z"/>
      <path class="cls-1" d="M202.97,50c-.69.27-1.41.41-2.14.42-1.21-.02-2.07-.41-2.59-1.15-.52-.73-.77-1.68-.76-2.84,0-1.19.3-2.15.87-2.88.55-.73,1.3-1.1,2.24-1.11,1.03.02,1.79.39,2.26,1.12.45.71.68,1.6.68,2.66v.48h-5.06c0,.83.21,1.51.62,2.05.41.57,1.01.86,1.81.87.36,0,.74-.07,1.13-.2.4-.11.71-.23.94-.37v.95ZM202.52,45.89c0-.7-.14-1.31-.42-1.83-.3-.53-.79-.8-1.47-.82-.67.02-1.19.3-1.58.84-.4.54-.59,1.15-.59,1.82h4.07Z"/>
      <path class="cls-1" d="M206.4,40.58h-.9v-1.25h.9v1.25ZM205.49,42.61h.9v7.62h-.9v-7.62Z"/>
      <path class="cls-1" d="M208.81,44.4c0-.58-.02-1.18-.06-1.79h.88v1.36h.03c.08-.18.19-.36.3-.54.11-.18.26-.34.43-.49.18-.16.41-.29.68-.38.27-.09.59-.13.97-.13.91,0,1.56.29,1.95.84.38.54.56,1.23.56,2.09v4.87h-.9v-4.64c0-.73-.13-1.3-.39-1.73-.28-.41-.74-.62-1.37-.63-.81.02-1.38.32-1.71.89-.17.27-.29.57-.36.88-.08.33-.11.67-.11,1.01v4.22h-.9v-5.83Z"/>
      <path class="cls-1" d="M216.56,49.13c.56.31,1.2.47,1.92.48.46,0,.84-.12,1.16-.37.31-.23.47-.56.48-.99,0-.45-.19-.81-.54-1.07-.35-.25-.76-.47-1.23-.67-.22-.11-.43-.22-.64-.34-.2-.12-.4-.26-.58-.4-.16-.16-.3-.35-.41-.55-.1-.2-.16-.43-.16-.7,0-.76.26-1.3.75-1.61.48-.31,1.03-.47,1.65-.47.21,0,.49.02.83.06.33.06.67.15,1,.28l-.08.82c-.53-.23-1.08-.35-1.64-.36-.47,0-.85.09-1.12.26-.15.09-.26.22-.34.38-.08.16-.13.37-.13.63,0,.16.05.3.16.45.1.13.24.25.42.36.17.1.37.21.59.31.22.1.44.21.65.33.48.21.9.49,1.26.84.36.35.54.84.55,1.45,0,.4-.08.73-.23,1-.16.28-.37.5-.62.67-.54.33-1.11.5-1.72.5-.71,0-1.4-.12-2.06-.36l.08-.92Z"/>
      <path class="cls-1" d="M227.74,43.62c-.52-.25-1.05-.38-1.58-.39-.89,0-1.57.3-2.04.88-.5.59-.74,1.36-.74,2.31,0,.89.24,1.63.73,2.23.47.63,1.12.95,1.95.96.57,0,1.13-.11,1.67-.34l.08.88c-.6.19-1.23.28-1.89.27-1.19-.02-2.07-.43-2.65-1.21-.59-.77-.88-1.7-.88-2.78,0-1.21.35-2.17,1.01-2.88.66-.73,1.54-1.1,2.64-1.11.45,0,.83.03,1.13.1.16.03.29.06.4.09.11.04.19.07.25.1l-.07.89Z"/>
      <path class="cls-1" d="M229.58,39.02h.9v4.87h.03c.2-.43.5-.78.9-1.06.4-.26.86-.39,1.4-.4.98,0,1.66.31,2.01.9.35.6.52,1.38.51,2.34v4.56h-.9v-4.55c0-.34-.02-.66-.06-.96-.04-.29-.12-.54-.25-.76-.23-.48-.71-.72-1.45-.73-.79.02-1.36.33-1.7.94-.33.61-.5,1.27-.49,1.97v4.08h-.9v-11.21Z"/>
      <path class="cls-1" d="M242.12,49.01h-.03c-.21.45-.54.79-.97,1.02-.43.24-.89.37-1.37.38-.51,0-.93-.09-1.24-.25-.33-.15-.58-.34-.76-.57-.31-.5-.45-.94-.43-1.33,0-.64.15-1.14.45-1.51.29-.37.66-.63,1.12-.79.45-.16.94-.27,1.48-.33.52-.03,1.03-.04,1.51-.04h.18v-.39c.03-1.31-.53-1.97-1.68-1.97-.76,0-1.49.2-2.17.63v-.91c.68-.33,1.41-.5,2.17-.52,1.75-.02,2.61.93,2.59,2.84v3.36c-.01.58.01,1.11.08,1.6h-.9v-1.22ZM242.04,46.39h-.26c-.4,0-.79.01-1.19.03-.41.04-.79.12-1.13.26-.34.12-.61.3-.81.55-.22.25-.33.59-.33,1.01,0,.49.16.84.47,1.05.29.22.64.33,1.07.33.53,0,.95-.11,1.26-.33.3-.21.52-.46.66-.75.14-.31.22-.62.24-.92.02-.31.04-.57.04-.77v-.46Z"/>
      <path class="cls-1" d="M245.98,43.42h-1.49v-.8h1.49v-.55c0-.41.02-.81.06-1.2.02-.38.09-.72.22-1.01.12-.31.32-.56.59-.74.26-.17.62-.26,1.08-.26.16,0,.31,0,.48.01.16.03.29.07.37.13l-.06.82c-.2-.11-.44-.17-.72-.17-.3,0-.53.07-.69.21-.17.16-.28.36-.33.58-.06.23-.08.47-.08.73,0,.27-.01.53-.01.77v.66h1.66v.8h-1.66v6.82h-.9v-6.82Z"/>
      <path class="cls-1" d="M253.51,43.42h-1.68v4.94c0,.35.08.65.23.88.14.25.39.37.75.37.33,0,.61-.06.84-.18l.06.78c-.11.04-.26.08-.45.13-.2.05-.42.08-.66.08-.4,0-.71-.07-.94-.21-.22-.14-.39-.33-.5-.55-.1-.24-.16-.51-.19-.8-.03-.3-.04-.63-.04-.98v-4.45h-1.45v-.8h1.45v-1.84l.9-.33v2.17h1.68v.8Z"/>
    </g>
    <g>
      <path class="cls-1" d="M7.3,8.6c-.41.16-.8.29-1.17.37-.37.08-.78.12-1.22.12-.64,0-1.22-.1-1.74-.31-.52-.2-.97-.49-1.34-.86-.37-.37-.66-.81-.86-1.33-.2-.52-.31-1.09-.31-1.72s.11-1.18.32-1.69c.22-.51.52-.96.91-1.33.39-.37.85-.66,1.38-.88.53-.21,1.12-.32,1.76-.32.16,0,.34,0,.53.02.19.02.39.04.58.08.2.04.39.08.58.13.19.05.36.12.5.19l-.07.72c-.32-.17-.67-.29-1.04-.36-.38-.07-.75-.1-1.11-.1-.54,0-1.03.09-1.47.27s-.82.43-1.13.74c-.31.31-.55.69-.72,1.12s-.25.9-.25,1.4c0,.52.08,1,.24,1.43.16.43.39.8.69,1.11.3.31.66.55,1.1.72.43.17.92.26,1.46.26.32,0,.6-.02.86-.06.25-.04.51-.11.78-.21v-2.95h-2v-.65h2.73v4.07Z"/>
      <path class="cls-1" d="M9.36,6.02c0,.32.04.63.13.93.09.3.23.56.42.78.19.23.42.4.7.54s.62.2,1.01.2c.26,0,.52-.03.77-.09.25-.06.49-.15.71-.27l.04.66c-.26.11-.52.2-.77.24-.25.05-.52.07-.8.07-.51,0-.96-.09-1.33-.26s-.68-.4-.92-.7c-.24-.29-.42-.63-.53-1.02-.11-.38-.17-.79-.17-1.23,0-.39.06-.78.17-1.16.11-.38.27-.72.49-1.01.22-.29.49-.53.81-.71.32-.18.7-.27,1.13-.27s.82.09,1.12.26c.3.17.53.39.71.67.18.27.3.59.37.94.07.35.1.72.1,1.08v.32h-4.18ZM12.81,5.43c0-.24-.04-.48-.09-.72s-.13-.47-.25-.67c-.12-.2-.28-.37-.47-.5-.2-.13-.45-.19-.76-.19-.33,0-.61.07-.84.2-.23.13-.42.31-.57.51-.15.21-.26.43-.33.68-.07.25-.12.47-.13.69h3.44Z"/>
      <path class="cls-1" d="M15.45,8.96V3.46h-1.2v-.59h1.2v-.82c0-.2.01-.41.03-.65.02-.24.08-.46.18-.67.1-.21.26-.38.47-.52.21-.14.5-.21.86-.21.1,0,.21,0,.34.02.13.02.24.05.33.1l-.07.64c-.09-.04-.19-.07-.29-.09s-.2-.03-.3-.03c-.2,0-.35.04-.47.11-.12.07-.21.17-.27.29-.06.12-.1.27-.12.43-.02.16-.03.33-.03.51v.88h1.37v.59h-1.37v5.5h-.66Z"/>
      <path class="cls-1" d="M19.77,8.83c-.51-.26-.9-.66-1.15-1.18-.25-.53-.38-1.11-.38-1.76,0-.42.06-.82.18-1.2.12-.38.3-.72.53-1,.23-.29.52-.51.86-.69.34-.17.73-.26,1.18-.26.47,0,.88.08,1.23.25.34.16.63.39.86.67.23.29.4.62.51,1,.11.38.17.79.17,1.23s-.06.84-.17,1.23c-.11.38-.29.72-.51,1.02-.23.29-.51.53-.86.7-.34.17-.75.26-1.21.26s-.87-.09-1.23-.26ZM19.44,7.63c.16.25.37.44.62.59.25.15.56.23.93.23s.67-.08.93-.23c.26-.15.47-.35.63-.59.16-.24.28-.51.36-.82s.12-.61.12-.93-.04-.63-.11-.93c-.07-.3-.19-.57-.35-.8-.16-.23-.37-.42-.63-.56-.26-.14-.57-.21-.94-.21s-.67.07-.92.21c-.26.14-.47.33-.63.57-.16.24-.28.51-.36.81-.08.3-.12.61-.12.92s.04.62.12.92c.08.3.2.58.36.82ZM19.77,1.45V.47h.66v.98h-.66ZM21.54,1.45V.47h.66v.98h-.66Z"/>
      <path class="cls-1" d="M25.24,8.96v-4.64c0-.24,0-.48-.01-.72,0-.25-.02-.49-.05-.72h.6l.05,1.14c.06-.16.14-.31.24-.46.1-.15.22-.29.36-.4.14-.12.29-.21.45-.29.16-.07.34-.11.53-.11.09,0,.18,0,.26,0,.09,0,.17.02.26.04l-.05.72c-.16-.05-.32-.07-.48-.07-.32,0-.58.08-.77.24-.2.16-.35.36-.46.6-.11.24-.18.5-.22.78-.04.28-.06.54-.06.78v3.11h-.66Z"/>
      <path class="cls-1" d="M32.98,8.96l-.09-1.02c-.2.39-.46.68-.78.87-.32.19-.7.28-1.12.28-.46,0-.84-.09-1.15-.28-.31-.19-.56-.43-.76-.73-.2-.3-.34-.64-.42-1.02-.09-.38-.13-.77-.13-1.16s.04-.79.13-1.17c.09-.38.23-.72.43-1.01.2-.29.45-.53.77-.7s.71-.26,1.16-.26c.39,0,.76.1,1.1.3s.59.48.74.85V.12h.66v6.84c0,.33,0,.66.02.99.01.33.03.67.04,1.01h-.61ZM29.61,7.62c.14.25.32.45.55.6s.53.23.89.23c.34,0,.63-.08.86-.24.23-.16.42-.37.56-.62.14-.25.25-.53.31-.83.07-.3.1-.59.1-.88s-.03-.57-.1-.86c-.07-.3-.17-.57-.32-.81s-.34-.44-.57-.6c-.23-.16-.52-.23-.85-.23-.37,0-.67.08-.9.23-.23.15-.42.35-.55.58s-.23.5-.28.8c-.05.3-.07.6-.07.9s.03.59.08.89.15.58.28.83Z"/>
      <path class="cls-1" d="M35.71,6.02c0,.32.04.63.13.93.09.3.23.56.42.78.19.23.42.4.7.54s.62.2,1.01.2c.26,0,.52-.03.77-.09.25-.06.49-.15.71-.27l.04.66c-.26.11-.52.2-.77.24-.25.05-.52.07-.8.07-.51,0-.96-.09-1.33-.26s-.68-.4-.92-.7c-.24-.29-.42-.63-.53-1.02-.11-.38-.17-.79-.17-1.23,0-.39.06-.78.17-1.16.11-.38.27-.72.49-1.01.22-.29.49-.53.81-.71.32-.18.7-.27,1.13-.27s.82.09,1.12.26c.3.17.53.39.71.67.18.27.3.59.37.94.07.35.1.72.1,1.08v.32h-4.18ZM39.17,5.43c0-.24-.04-.48-.09-.72s-.13-.47-.25-.67c-.12-.2-.28-.37-.47-.5-.2-.13-.45-.19-.76-.19-.33,0-.61.07-.84.2-.23.13-.42.31-.57.51-.15.21-.26.43-.33.68-.07.25-.12.47-.13.69h3.44Z"/>
      <path class="cls-1" d="M41.26,8.96v-4.64c0-.24,0-.48-.01-.72,0-.25-.02-.49-.05-.72h.6l.05,1.14c.06-.16.14-.31.24-.46.1-.15.22-.29.36-.4.14-.12.29-.21.45-.29.16-.07.34-.11.53-.11.09,0,.18,0,.26,0,.08,0,.17.02.26.04l-.05.72c-.16-.05-.32-.07-.48-.07-.32,0-.58.08-.77.24-.2.16-.35.36-.46.6-.11.24-.18.5-.22.78-.04.28-.06.54-.06.78v3.11h-.66Z"/>
      <path class="cls-1" d="M46.2,7.41c0,.14,0,.27.03.4.02.13.06.24.12.33.06.09.14.17.25.23.1.06.23.09.4.09.12,0,.24-.02.35-.05s.22-.07.34-.12l.05.64c-.29.11-.58.17-.87.17-.3,0-.54-.05-.72-.16-.18-.11-.31-.25-.4-.44s-.15-.39-.17-.63-.04-.49-.04-.76v-3.65h-1.16v-.59h1.16v-1.41l.66-.23v1.64h1.38v.59h-1.38v3.96Z"/>
      <path class="cls-1" d="M56.24,8.96l-.08-1.02c-.2.39-.46.68-.78.87-.32.19-.7.28-1.12.28-.46,0-.84-.09-1.15-.28s-.56-.43-.76-.73-.34-.64-.42-1.02c-.09-.38-.13-.77-.13-1.16s.04-.79.13-1.17c.09-.38.23-.72.43-1.01.2-.29.45-.53.77-.7.32-.18.71-.26,1.16-.26.39,0,.76.1,1.1.3s.59.48.74.85V.12h.66v6.84c0,.33,0,.66.02.99.01.33.03.67.04,1.01h-.61ZM52.87,7.62c.14.25.32.45.55.6s.53.23.89.23c.34,0,.63-.08.86-.24.23-.16.42-.37.56-.62.14-.25.25-.53.31-.83.07-.3.1-.59.1-.88s-.03-.57-.1-.86c-.07-.3-.17-.57-.32-.81s-.34-.44-.57-.6c-.23-.16-.52-.23-.85-.23-.37,0-.67.08-.9.23-.23.15-.42.35-.55.58s-.23.5-.28.8c-.05.3-.07.6-.07.9s.03.59.08.89c.05.3.15.58.28.83Z"/>
      <path class="cls-1" d="M59.29,6.49c0,.26.02.51.05.74.03.23.1.44.21.62.11.18.25.33.44.44.19.11.44.16.75.16.34,0,.63-.07.86-.2s.41-.31.55-.53c.14-.22.24-.46.29-.74.06-.28.09-.56.09-.86v-3.26h.66v4.64c0,.24,0,.48.01.72,0,.24.02.49.05.72h-.6l-.04-1.05c-.22.39-.49.69-.8.89-.31.2-.7.3-1.16.3-.39,0-.72-.06-.98-.19-.26-.13-.47-.3-.62-.53s-.26-.49-.33-.79c-.06-.3-.09-.63-.09-.99v-3.72h.66v3.63Z"/>
      <path class="cls-1" d="M65.06,8.96v-4.64c0-.24,0-.48-.01-.72,0-.25-.02-.49-.05-.72h.6l.05,1.14c.06-.16.14-.31.24-.46.1-.15.22-.29.36-.4s.29-.21.45-.29c.16-.07.34-.11.53-.11.09,0,.18,0,.26,0,.08,0,.17.02.26.04l-.05.72c-.16-.05-.32-.07-.48-.07-.32,0-.58.08-.77.24-.2.16-.35.36-.46.6-.11.24-.18.5-.22.78-.04.28-.05.54-.05.78v3.11h-.66Z"/>
      <path class="cls-1" d="M72.75,8.88c-.23.08-.45.14-.66.17-.21.03-.43.04-.66.04-.49,0-.93-.09-1.31-.26s-.7-.4-.96-.7c-.26-.29-.45-.63-.59-1.02-.13-.38-.2-.79-.2-1.23s.07-.85.21-1.24c.14-.38.35-.72.61-1,.27-.28.59-.5.96-.67.38-.16.79-.25,1.25-.25.24,0,.46.01.67.04.21.02.42.08.63.16l-.06.69c-.16-.09-.35-.15-.56-.19s-.41-.06-.61-.06c-.38,0-.72.06-1.02.19s-.54.3-.75.53c-.2.23-.36.5-.46.8-.11.31-.16.64-.16.99s.05.66.16.96c.11.31.26.58.46.81s.45.43.75.57c.29.14.63.21,1,.21.24,0,.45-.02.63-.06.18-.04.38-.1.59-.19l.06.67Z"/>
      <path class="cls-1" d="M73.91,8.96V.12h.66v3.77c.39-.77,1.02-1.15,1.89-1.15.38,0,.69.06.96.19.26.13.47.3.63.53s.27.49.34.79c.07.3.1.63.1.98v3.72h-.66v-3.63c0-.25-.02-.5-.06-.73-.04-.24-.11-.45-.21-.62-.1-.18-.25-.32-.44-.43-.19-.11-.44-.16-.75-.16-.34,0-.63.07-.86.2-.23.13-.41.3-.55.52s-.24.46-.3.74-.09.56-.09.86v3.26h-.66Z"/>
    </g>
  </g>
</svg>