<?xml version="1.0" encoding="UTF-8"?>
<svg id="Ebene_2" data-name="Ebene 2" xmlns="http://www.w3.org/2000/svg" viewBox="0 0 647.07 184.47">
  <defs>
    <style>
      .cls-1 {
        fill: #1d1d1b;
        stroke-width: 0px;
      }
    </style>
  </defs>
  <g id="Logo_cmyk" data-name="Logo cmyk">
    <g>
      <path class="cls-1" d="M203.08,183.84h-7.56l-7.1-24.96c-.23-.86-.57-2.4-.69-3.95h-.46c-.11,1.55-.46,3.09-.69,4.01l-6.75,24.9h-7.56c-3.03-12.42-5.78-25.64-7.73-38.23,2.29-.4,4.98-.63,6.87-.63l4.69,25.41c.23,1.37.4,2.86.4,4.01h.52c.11-1.14.4-2.69.74-3.89l6.98-25.24h6.52l6.7,25.3c.29,1.2.57,2.69.69,3.83h.52c.06-1.2.29-2.63.52-3.83l4.98-25.58c1.83,0,4.46.23,6.3.63-2.12,12.65-4.92,25.64-7.9,38.23Z"/>
      <path class="cls-1" d="M222.6,149.84c-2.46,0-3.66-1.83-3.66-3.83s1.2-3.95,3.72-3.95,3.72,1.89,3.72,3.95-1.26,3.83-3.78,3.83ZM219.4,183.84v-29.88h6.52v29.88h-6.52Z"/>
      <path class="cls-1" d="M251.22,160.48c-.69-.17-1.77-.29-2.75-.29-2.4,0-4.12.57-6.01,2.29v21.35h-6.52v-29.65c1.83-.23,4.46-.4,6.52-.4v3.84h.34c2.98-3.89,4.92-4.24,6.81-4.24.57,0,1.49.11,2.17.34,0,2.23-.23,4.58-.57,6.75Z"/>
      <path class="cls-1" d="M284.13,147.32c-.57-.11-2.17-.17-2.98-.17-2.35,0-3.21,1.15-3.21,3.61v3.21h6.52c0,1.89-.17,3.83-.46,5.72h-6.07v24.15h-6.52v-24.15h-3.43v-5.72h3.43v-2.69c0-6.3,4.41-10.02,9.62-10.02,1.14,0,2.8.11,3.49.23,0,1.95-.11,3.89-.4,5.84Z"/>
      <path class="cls-1" d="M307.88,183.84v-2.58h-.34c-2.69,2.23-5.27,3.15-8.18,3.15-4.58,0-8.64-2.35-8.64-9.21v-21.01c1.89-.29,4.46-.4,6.52-.4v20.66c0,2.69,1.2,4.18,4.81,4.18,2.23,0,4.12-.57,5.84-1.55v-22.89c1.89-.29,4.46-.4,6.53-.4v30.05h-6.53ZM297.18,150.7c-2.29,0-3.49-1.6-3.49-3.66s1.14-3.72,3.55-3.72,3.55,1.66,3.55,3.72-1.26,3.66-3.61,3.66ZM307.88,150.7c-2.29,0-3.55-1.6-3.55-3.66s1.2-3.72,3.61-3.72,3.49,1.66,3.49,3.72-1.2,3.66-3.55,3.66Z"/>
      <path class="cls-1" d="M341.65,183.84v-20.66c0-2.35-.74-4.01-4.46-4.01-2.46,0-4.41.69-6.24,1.95v22.72h-6.52v-42.13c1.83-.23,4.46-.46,6.52-.46v15.51h.34c2.75-2.46,5.21-3.38,8.24-3.38,5.09,0,8.64,2.75,8.64,9.16v21.29h-6.53Z"/>
      <path class="cls-1" d="M373.3,160.48c-.69-.17-1.77-.29-2.75-.29-2.4,0-4.12.57-6.01,2.29v21.35h-6.52v-29.65c1.83-.23,4.46-.4,6.52-.4v3.84h.34c2.98-3.89,4.92-4.24,6.81-4.24.57,0,1.49.11,2.17.34,0,2.23-.23,4.58-.57,6.75Z"/>
      <path class="cls-1" d="M402.38,170.67h-16.83v.4c0,4.87,1.55,7.15,7.21,7.15,2.69,0,6.12-.8,7.9-1.83.63,1.72,1.2,4.12,1.49,6.12-2.46,1.2-6.7,1.89-9.5,1.89-9.16,0-14.25-5.04-14.25-15.11,0-10.76,5.38-15.91,12.76-15.91,7.84,0,11.45,4.92,11.45,12.76,0,1.26-.06,3.15-.23,4.52ZM385.61,166.09h10.36c.06-.34.06-1.26.06-1.6,0-4.24-1.66-6.12-4.98-6.12s-5.38,2.29-5.44,7.73Z"/>
      <path class="cls-1" d="M427.91,183.84v-20.66c0-2.58-1.03-4.01-4.46-4.01-2.35,0-4.35.63-6.24,1.95v22.72h-6.52v-29.65c1.83-.23,4.46-.4,6.52-.4v2.98h.34c2.98-2.75,5.49-3.38,8.24-3.38,4.64,0,8.64,2.35,8.64,9.21v21.23h-6.53Z"/>
      <path class="cls-1" d="M492.75,183.84h-7.55l-7.1-24.96c-.23-.86-.57-2.4-.69-3.95h-.46c-.11,1.55-.46,3.09-.69,4.01l-6.75,24.9h-7.55c-3.03-12.42-5.78-25.64-7.73-38.23,2.29-.4,4.98-.63,6.87-.63l4.69,25.41c.23,1.37.4,2.86.4,4.01h.51c.11-1.14.4-2.69.74-3.89l6.98-25.24h6.53l6.7,25.3c.29,1.2.57,2.69.69,3.83h.51c.06-1.2.29-2.63.51-3.83l4.98-25.58c1.83,0,4.46.23,6.3.63-2.12,12.65-4.92,25.64-7.9,38.23Z"/>
      <path class="cls-1" d="M511.71,149.84c-2.46,0-3.66-1.83-3.66-3.83s1.2-3.95,3.72-3.95,3.72,1.89,3.72,3.95-1.26,3.83-3.78,3.83ZM508.5,183.84v-29.88h6.52v29.88h-6.52Z"/>
      <path class="cls-1" d="M531.97,184.41c-3.21,0-6.75-.74-9.16-2.06.46-2.12.86-3.89,1.54-5.9,2.35,1.26,5.9,2,8.76,2,2.58,0,3.61-1.14,3.61-3.03,0-4.98-13.56-2.52-13.56-12.42,0-6.47,5.61-9.62,12.02-9.62,1.95,0,4.92.29,7.21.92-.06,1.77-.46,3.95-.92,5.89-2.06-.69-5.44-1.14-7.9-1.14s-3.55,1.09-3.55,3.15c0,4.64,13.45,2.23,13.45,12.93,0,6.47-5.55,9.27-11.5,9.27Z"/>
      <path class="cls-1" d="M558.12,184.41c-3.21,0-6.75-.74-9.16-2.06.46-2.12.86-3.89,1.54-5.9,2.35,1.26,5.9,2,8.76,2,2.58,0,3.61-1.14,3.61-3.03,0-4.98-13.56-2.52-13.56-12.42,0-6.47,5.61-9.62,12.02-9.62,1.95,0,4.92.29,7.21.92-.06,1.77-.46,3.95-.91,5.89-2.06-.69-5.44-1.14-7.9-1.14s-3.55,1.09-3.55,3.15c0,4.64,13.45,2.23,13.45,12.93,0,6.47-5.55,9.27-11.5,9.27Z"/>
      <path class="cls-1" d="M599.33,170.67h-16.83v.4c0,4.87,1.55,7.15,7.21,7.15,2.69,0,6.12-.8,7.9-1.83.63,1.72,1.2,4.12,1.49,6.12-2.46,1.2-6.7,1.89-9.5,1.89-9.16,0-14.25-5.04-14.25-15.11,0-10.76,5.38-15.91,12.76-15.91,7.84,0,11.45,4.92,11.45,12.76,0,1.26-.06,3.15-.23,4.52ZM582.56,166.09h10.36c.06-.34.06-1.26.06-1.6,0-4.24-1.66-6.12-4.98-6.12s-5.38,2.29-5.44,7.73Z"/>
      <path class="cls-1" d="M624.86,183.84v-20.66c0-2.58-1.03-4.01-4.46-4.01-2.35,0-4.35.63-6.24,1.95v22.72h-6.52v-29.65c1.83-.23,4.46-.4,6.52-.4v2.98h.34c2.98-2.75,5.49-3.38,8.24-3.38,4.64,0,8.64,2.35,8.64,9.21v21.23h-6.53Z"/>
      <path class="cls-1" d="M643.41,184.47c-2.17,0-3.72-1.2-3.72-3.78s1.6-3.78,3.72-3.78c2,0,3.66,1.32,3.66,3.78s-1.66,3.78-3.66,3.78Z"/>
    </g>
    <polygon class="cls-1" points="22.11 0 22.11 11.1 97.59 21.68 97.59 101.5 108.79 103.07 108.79 12.14 22.11 0"/>
    <polygon class="cls-1" points="0 108.83 86.68 120.98 86.68 30.05 0 17.91 0 108.83"/>
    <g>
      <path class="cls-1" d="M187.84,110.03c-7.13,0-15.67-1.05-22.45-3.98v-16.72c1.75-.23,4.44-.35,6.08-.35,1.75,0,4.56.12,6.2.35l1.17,7.37c2.46.82,6.08,1.29,10.05,1.29,8.07,0,11.69-3.39,11.69-9.7,0-14.38-34.72-12.63-34.72-36.24,0-14.85,11.69-23.15,28.76-23.15,6.08,0,13.21.7,18.59,2.1v17.65c-1.75.23-4.56.47-6.2.47-1.75,0-4.79-.23-6.55-.47l-.93-7.25c-1.75-.23-4.68-.47-7.13-.47-8.54,0-11.34,3.62-11.34,9.47,0,12.39,34.72,11.81,34.72,36.01,0,14.85-10.99,23.62-27.94,23.62Z"/>
      <path class="cls-1" d="M282.82,108.86h-54.36c-.12-1.64-.23-3.86-.23-5.5s.12-3.86.23-5.5l7.95-1.17v-54.48l-7.95-1.17c-.12-1.64-.23-3.86-.23-5.49s.12-3.86.23-5.5h30.63c.12,1.64.23,3.86.23,5.5s-.12,3.86-.23,5.49l-8.07,1.17v54.71h18.12l.94-7.37c1.75-.23,4.79-.35,6.55-.35s4.44.12,6.2.35v19.29Z"/>
      <path class="cls-1" d="M362.99,41.05l-6.66,1.17v37.65c0,21.16-10.17,30.16-29.46,30.16s-29.46-9-29.46-30.16v-37.65l-6.66-1.17c-.12-1.64-.23-3.86-.23-5.49s.12-3.86.23-5.5h27.59c.23,1.64.35,3.86.35,5.5s-.12,3.86-.35,5.49l-6.31,1.17v37.65c0,12.63,3.74,17.42,15.08,17.42s15.32-4.79,15.32-17.42v-37.65l-6.31-1.17c-.23-1.64-.35-3.86-.35-5.49s.12-3.86.35-5.5h26.89c.23,1.64.35,3.86.35,5.5s-.12,3.86-.35,5.49Z"/>
      <path class="cls-1" d="M408.08,109.56c-8.18,0-22.33-.23-31.8-.7-.12-1.64-.23-3.86-.23-5.5s.12-3.86.23-5.5l7.95-1.17v-54.48l-7.95-1.17c-.12-1.64-.23-3.86-.23-5.49s.12-3.86.23-5.5c9.7-.47,20.58-.7,30.63-.7,18,0,27.94,6.08,27.94,20.81,0,8.07-4.68,14.15-10.76,16.95v.93c8.3,2.69,12.98,9.24,12.98,18.36,0,16.95-12.39,23.15-29,23.15ZM407.73,40.58c-2.46,0-6.31.12-9.24.23v22.33h10.76c6.55,0,10.76-3.74,10.76-11.57s-4.21-10.99-12.28-10.99ZM409.37,74.14h-10.87v23.85c2.22.12,7.48.23,10.05.23,9.24,0,13.45-3.86,13.45-12.51,0-7.95-4.79-11.57-12.63-11.57Z"/>
    </g>
  </g>
</svg>