<?xml version="1.0" encoding="UTF-8"?>
<svg id="Ebene_2" data-name="Ebene 2" xmlns="http://www.w3.org/2000/svg" viewBox="0 0 325.29 101.45">
  <defs>
    <style>
      .cls-1 {
        stroke-linecap: round;
      }

      .cls-1, .cls-2 {
        fill: none;
        stroke: #fff;
        stroke-miterlimit: 10;
        stroke-width: 2.25px;
      }

      .cls-3 {
        fill: #1d1d1b;
      }

      .cls-3, .cls-4 {
        stroke-width: 0px;
      }

      .cls-4 {
        fill: #ff4208;
      }
    </style>
  </defs>
  <g id="Ebene_1-2" data-name="Ebene 1">
    <rect class="cls-4" width="101.45" height="101.45"/>
    <g>
      <path class="cls-1" d="M73.02,44.82h-1.36v38.34h-5.74v-30.23s-6.8-2.77-15.13-2.77h-.31c-8.33,0-15.13,2.77-15.13,2.77v30.23h-5.74v-38.34h-1.36l-1.53-5.17v-5.54h3.4l20.57-15.82,20.46,15.82h3.62v5.51l-1.75,5.21Z"/>
      <polyline class="cls-2" points="30.8 39.99 50.69 24.77 70.6 39.85"/>
      <polyline class="cls-1" points="39.41 51.64 39.41 81.16 35.33 81.16"/>
      <polyline class="cls-1" points="61.8 51.65 61.8 81.16 65.88 81.16"/>
      <line class="cls-2" x1="26.88" y1="39.9" x2="74.88" y2="39.9"/>
      <line class="cls-1" x1="29.5" y1="44.82" x2="71.83" y2="44.82"/>
    </g>
    <g>
      <path class="cls-3" d="M126.95,8.27h4.91v33.96h18.97v4.2h-23.87V8.27Z"/>
      <path class="cls-3" d="M155.46,8.27h4.91v38.15h-4.91V8.27Z"/>
      <path class="cls-3" d="M165.65,34.65h4.8c.71,5.45,4.8,8.28,10.36,8.28,5.07,0,9.48-2.34,9.48-6.6,0-3.87-3.49-5.5-8.67-6.7l-4.14-.93c-6.98-1.64-10.63-4.69-10.63-10.25,0-6.54,6.21-11.01,13.68-11.01s13.19,4.14,13.95,11.39h-4.8c-.6-4.42-3.98-7.19-9.16-7.19-4.8,0-8.94,2.62-8.94,6.43,0,3.49,2.45,4.96,7.19,6l4.63,1.09c7.03,1.58,11.72,4.58,11.72,10.68,0,7.58-7.09,11.23-14.33,11.23-8.18,0-14.44-4.14-15.15-12.43Z"/>
      <path class="cls-3" d="M228.87,46.43h-30.3v-4.58l24.25-29.38h-23.82v-4.2h29.43v4.58l-24.25,29.38h24.69v4.2Z"/>
      <path class="cls-3" d="M244.56,12.47h-13.35v-4.2h31.56v4.2h-13.3v33.96h-4.91V12.47Z"/>
    </g>
    <g>
      <path class="cls-3" d="M127.23,54.75h13.95c8.67,0,13.41,4.58,13.41,11.77s-4.91,11.83-13.46,11.83h-8.99v14.55h-4.91v-38.15ZM140.86,74.1c5.67,0,8.72-2.94,8.72-7.52s-3.11-7.63-8.72-7.63h-8.72v15.15h8.72Z"/>
      <path class="cls-3" d="M156.88,73.61c0-12.04,8.67-19.68,18.91-19.68s18.97,7.52,18.97,19.68-8.61,19.95-18.97,19.95-18.91-7.79-18.91-19.95ZM189.58,73.61c0-9.21-6.05-15.32-13.79-15.32s-13.79,6.1-13.79,15.32,6.05,15.59,13.79,15.59,13.79-6.27,13.79-15.59Z"/>
      <path class="cls-3" d="M204.84,77.05v15.86h-4.8v-38.15h15.97c8.5,0,12.54,4.8,12.54,11.06s-3.82,9.7-8.61,10.68v.05c.49.82.82,1.31,1.42,2.4l8.07,13.95h-5.61l-8.56-15.04c-.44-.65-.54-.82-1.47-.82h-8.94ZM204.84,72.91h10.79c5.34,0,8.01-2.89,8.01-6.98s-2.72-6.98-8.07-6.98h-10.74v13.95Z"/>
      <path class="cls-3" d="M244.46,58.95h-13.35v-4.2h31.56v4.2h-13.3v33.96h-4.91v-33.96Z"/>
      <path class="cls-3" d="M286.7,82.61h-17.99l-4.09,10.3h-4.96l15.48-38.15h5.34l15.53,38.15h-5.23l-4.09-10.3ZM285.07,78.41l-7.36-18.64-7.36,18.64h14.72Z"/>
      <path class="cls-3" d="M301.41,54.75h4.91v33.96h18.97v4.2h-23.87v-38.15Z"/>
    </g>
  </g>
</svg>