<?xml version="1.0" encoding="utf-8"?>
<!-- Generator: Adobe Illustrator 28.3.0, SVG Export Plug-In . SVG Version: 6.00 Build 0)  -->
<svg version="1.1" id="Ebene_1" xmlns="http://www.w3.org/2000/svg" xmlns:xlink="http://www.w3.org/1999/xlink" x="0px" y="0px"
	 viewBox="0 0 152 73" style="enable-background:new 0 0 152 73;" xml:space="preserve">
<style type="text/css">
	.st0{fill-rule:evenodd;clip-rule:evenodd;fill:#1A1919;}
</style>
<g>
	<path class="st0" d="M25,6c2.5-2.2,2.9-3,0.8-3.1V2.4h5.5v0.4c-1.5,0.2-2.1,0.6-5,3.2l-4.1,3.6l6.2,7.1c1.4,1.6,2,2.2,3.3,2.4v0.4
		h-6.9v-0.4c1.8-0.1,1.4-0.9,0.6-1.8l-5.7-6.5L25,6L25,6z M19.8,16.1c0,2.6,0.2,2.7,2.3,3v0.4h-7.4v-0.4c2.1-0.3,2.3-0.4,2.3-3V5.9
		c0-2.6-0.2-2.7-2.3-3V2.4h7.4v0.4c-2.1,0.3-2.3,0.4-2.3,3V16.1L19.8,16.1z M33.8,19.1c2.1-0.3,2.3-0.4,2.3-3V5.9
		c0-2.6-0.2-2.7-2.3-3V2.4h7.4v0.4c-2.1,0.3-2.3,0.4-2.3,3v11.8c0,0.9,0.1,1.1,1,1.1h0.4c4.2,0,5.5-0.5,6.9-4.5h0.4l-0.9,5.3
		c-1.6,0-3.8,0-5.1,0h-7.8L33.8,19.1 M53.9,12.8h5.9l-2.9-7.5L53.9,12.8z M48.7,19.1c1.6-0.1,1.8-0.6,3.1-4l5-12.8
		c0.5-0.1,1-0.4,1.3-0.8h0.1l6,15.2c0.7,1.8,0.9,2.3,2.5,2.4v0.4h-6.9v-0.4c1.7-0.2,2.1-0.6,1.6-1.8l-1.3-3.3h-6.8l-0.1,0.3
		c-1.7,4.3-1.3,4.6,0.7,4.8v0.4h-5.3C48.7,19.5,48.7,19.1,48.7,19.1z M69,18.5v-5.8h0.5c0.6,5.2,2.7,6.2,5,6.2c2,0,4-1.1,4-3.3
		c0-1.7-1.4-2.6-3.3-3.4l-1.9-0.8c-2.5-1.1-4-2.7-4-4.9c0-2.6,2.5-4.5,5.7-4.5c1.7,0,3.6,0.4,4.8,1.1l0.1,4.9h-0.5
		c-0.6-4-2.3-5.2-4.4-5.2c-1.9,0-3.5,1-3.5,2.8c0,1.8,1.4,2.6,2.6,3.1l2,0.9c2.7,1.2,4.7,2.5,4.7,5.2c0,3.3-3,5.2-6.2,5.2
		C72.2,19.8,70.2,19.3,69,18.5 M84.7,18.5v-5.8h0.5c0.6,5.2,2.7,6.2,5,6.2c2,0,4-1.1,4-3.3c0-1.7-1.5-2.6-3.3-3.4l-1.9-0.8
		c-2.5-1.1-4-2.7-4-4.9c0-2.6,2.5-4.5,5.7-4.5c1.7,0,3.6,0.4,4.8,1.1l0.1,4.9h-0.5c-0.6-4-2.3-5.2-4.4-5.2c-1.9,0-3.5,1-3.5,2.8
		c0,1.8,1.4,2.6,2.6,3.1l2,0.9c2.7,1.2,4.7,2.5,4.7,5.2c0,3.3-3,5.2-6.2,5.2C88,19.8,86,19.3,84.7,18.5 M104.5,16.1
		c0,2.6,0.2,2.7,2.3,3v0.4h-7.4v-0.4c2.1-0.3,2.3-0.4,2.3-3V5.9c0-2.6-0.2-2.7-2.3-3V2.4h7.4v0.4c-2.1,0.3-2.3,0.4-2.3,3L104.5,16.1
		 M119.8,6c2.5-2.2,2.9-3,0.8-3.1V2.4h5.5v0.4c-1.5,0.2-2.1,0.6-5,3.2l-4.1,3.6l6.2,7.1c1.4,1.6,2,2.2,3.3,2.4v0.4h-6.9v-0.4
		c1.8-0.1,1.4-0.9,0.6-1.8l-5.7-6.5L119.8,6L119.8,6z M114.6,16.1c0,2.6,0.2,2.7,2.3,3v0.4h-7.4v-0.4c2.1-0.3,2.3-0.4,2.3-3V5.9
		c0-2.6-0.2-2.7-2.3-3V2.4h7.4v0.4c-2.1,0.3-2.3,0.4-2.3,3V16.1L114.6,16.1z M15.3,44.2v-5.8h0.5c0.6,5.2,2.7,6.2,5,6.2
		c2,0,4-1.1,4-3.3c0-1.7-1.4-2.6-3.3-3.4L19.5,37c-2.5-1.1-4-2.7-4-4.9c0-2.6,2.5-4.5,5.7-4.5c1.7,0,3.6,0.4,4.8,1.1l0.1,4.9h-0.5
		c-0.6-4-2.3-5.2-4.4-5.2c-1.9,0-3.5,1-3.5,2.8c0,1.8,1.4,2.6,2.6,3.1l2,0.9c2.7,1.2,4.7,2.5,4.7,5.2c0,3.3-3,5.2-6.2,5.2
		C18.6,45.5,16.6,44.9,15.3,44.2 M34,44.7c2.3-0.2,2.6-0.6,2.6-3V28.8h-0.7c-3.5,0-4.6,0.7-5.9,4.6h-0.4l0.7-5.4
		c1.8,0.1,3.8,0.1,5.3,0.1h4.9c1.5,0,3.5,0,5.3-0.1l0.7,5.4h-0.4c-1.3-3.9-2.4-4.6-5.9-4.6h-0.7v12.9c0,2.4,0.2,2.8,2.6,3v0.4H34
		L34,44.7 M53.8,41.7c0,2.6,0.2,2.7,2.3,3v0.4h-7.4v-0.4c2.1-0.3,2.3-0.4,2.3-3V31.5c0-2.6-0.2-2.7-2.3-3v-0.4h7.4v0.4
		c-2.1,0.3-2.3,0.4-2.3,3L53.8,41.7 M58.8,44.8c2.1-0.3,2.3-0.4,2.3-3V31.5c0-2.6-0.2-2.7-2.3-3v-0.4h8.9c1.5,0,3.5,0,5.2-0.1
		l0.7,5.3h-0.4c-1.3-4.1-3.1-4.4-7.4-4.4h-1.9v6.9h3.2c1.3,0,2.2-0.7,2.4-2.6h0.4v6.3h-0.4c-0.2-2-1.1-2.6-2.4-2.6h-3.2v4.9
		c0,2.3,0,2.8,2.5,3v0.4h-7.6L58.8,44.8 M80,44.7c2.3-0.2,2.6-0.6,2.6-3V28.8h-0.7c-3.5,0-4.6,0.7-5.9,4.6h-0.4l0.7-5.4
		c1.8,0.1,3.8,0.1,5.3,0.1h4.9c1.4,0,3.5,0,5.3-0.1l0.7,5.4h-0.4c-1.3-3.9-2.4-4.6-5.9-4.6h-0.7v12.9c0,2.4,0.2,2.8,2.6,3v0.4H80
		L80,44.7 M94.4,28.5v-0.4h7.3v0.4c-2.1,0.3-2.3,0.4-2.3,3v6.9c0,3.7,1.3,5.8,4.4,5.8c3.6,0,4.7-2.7,4.7-6.1v-6.6
		c0-2.6-0.2-2.7-2.3-3v-0.4h5.7v0.4c-2.1,0.3-2.3,0.4-2.3,3v6.6c0,4.9-2.1,7.3-6.4,7.3c-4.7,0-6.4-2.7-6.4-6.7v-7.2
		C96.7,28.9,96.5,28.8,94.4,28.5 M125.9,28.5v-0.4h5.7v0.4c-2.1,0.3-2.3,0.4-2.3,3v13.8h-1.2l-10.7-13.6v9.9c0,2.6,0.2,2.7,2.3,3
		v0.4h-5.7v-0.4c2.1-0.3,2.3-0.4,2.3-3V30.4l-0.1-0.1c-0.8-1-1.3-1.5-1.9-1.8v-0.4h3.7L128.3,41v-9.5
		C128.3,28.9,128.1,28.8,125.9,28.5 M151.5,37.2v0.5c-1.4,0.2-1.5,0.6-1.5,3v2.9c-1.9,1.4-5.1,1.9-7.1,1.9c-5.8,0-8.8-4.1-8.8-8.9
		c0-5.5,4.1-9,9.3-9c2.2,0,4.2,0.4,5.4,0.9l0.4,5.2h-0.4c-1-3.8-2.9-5.3-5.8-5.3c-2.9,0-6,2.1-6,8.2c0,4.8,2.4,7.9,6.1,7.9
		c1.5,0,4-0.2,4-2.3v-1.7c0-2.4,0-2.8-2.1-3v-0.5H151.5 M38.6,54.2c-1.7,0.1-2.1,0.4-3.2,4l-3.8,12.9h-1.3L26.3,59l-3.5,12.1h-1.3
		l-5-14.6c-0.6-1.8-0.9-2.1-2.4-2.3v-0.4h6.9v0.4c-1.6,0.2-2,0.5-1.6,1.8l3.5,10.8l2.8-9.8l-1.1-3.2h3l4.2,13l2.3-8
		c1.2-4.3,1.1-4.4-0.8-4.5v-0.4h5.3L38.6,54.2 M49.3,70.9h-8.6v-0.4c2.1-0.3,2.3-0.4,2.3-3V57.2c0-2.6-0.2-2.7-2.3-3v-0.4h8.3
		c1.5,0,3.5,0,5.3-0.1l0.6,5.3h-0.4c-1.3-4.1-3.1-4.4-7.4-4.4h-1.3v6.9h3.2c1.3,0,2.2-0.7,2.4-2.6h0.4v6.3h-0.4
		c-0.2-2-1.1-2.6-2.4-2.6h-3.2V69c0,0.9,0.1,1.1,1.1,1.1h0.5c4.4,0,6.3-0.5,7.7-4.4h0.4l-0.9,5.3C52.7,70.9,50.7,70.9,49.3,70.9
		 M63.4,67.4c0,2.6,0.2,2.7,2.3,3v0.4h-7.4v-0.4c2.1-0.3,2.3-0.4,2.3-3V57.2c0-2.6-0.2-2.7-2.3-3v-0.4h7.4v0.4
		c-2.1,0.3-2.3,0.4-2.3,3L63.4,67.4 M89.3,54.2c-2.1,0.3-2.3,0.4-2.3,3v10.2c0,2.6,0.2,2.7,2.3,3v0.4H82v-0.4c2.1-0.3,2.3-0.4,2.3-3
		V56l-5.8,14.2H78l-6.2-14.5v11.7c0,2.6,0.2,2.7,2.3,3v0.4h-5.7v-0.4c2.1-0.3,2.3-0.4,2.3-3V57.2c0-2.6-0.2-2.7-2.3-3v-0.4h5.8
		l4.9,12l4.9-12h5.4V54.2 M96.4,64.1h5.9l-2.9-7.5C99.4,56.6,96.4,64.1,96.4,64.1z M91.3,70.4c1.6-0.1,1.8-0.6,3.1-4l5-12.8
		c0.5-0.1,1-0.4,1.3-0.8h0.1l6,15.2c0.7,1.8,0.9,2.3,2.5,2.4v0.4h-6.9v-0.4c1.7-0.2,2.1-0.6,1.6-1.8l-1.3-3.3H96l-0.1,0.3
		c-1.7,4.3-1.3,4.6,0.7,4.8v0.4h-5.3L91.3,70.4L91.3,70.4z M118.2,54.6h-1.9v7.3h1.9c2.9,0,4.5-0.6,4.5-3.7
		C122.7,55.2,121.1,54.6,118.2,54.6z M111.3,70.4c2.1-0.3,2.3-0.4,2.3-3V57.2c0-2.6-0.2-2.7-2.3-3v-0.4h2.8c1.4,0,3.4,0,4.3,0
		c4,0,7.3,1,7.3,4.5c0,2.6-1.8,3.8-4.4,4.3l3.5,5.5c1.1,1.7,1.8,2.2,3.2,2.4v0.4h-4.8c-0.4-0.8-1.2-2.2-1.9-3.4l-1.2-1.9
		c-0.9-1.3-1.3-2.2-1.8-2.8h-2.1v4.7c0,2.6,0.2,2.7,2.4,3v0.4h-7.4L111.3,70.4L111.3,70.4z M0,72.9h2.1V0.2H0V72.9z"/>
</g>
</svg>
