<?xml version="1.0" encoding="UTF-8"?>
<svg id="pdf" xmlns="http://www.w3.org/2000/svg" xmlns:xlink="http://www.w3.org/1999/xlink"
        viewBox="0 0 25.22 22.7">
    <defs>
        <style>.cls-1{clip-path:url(#clippath);}.cls-2{fill:none;}.cls-2,.cls-3{stroke-width:0px;}.cls-3{fill:#000;}
        </style>
        <clipPath id="clippath">
            <rect class="cls-2" width="25.22" height="22.7"/>
        </clipPath>
    </defs>
    <g id="Ebene_1-2">
        <g class="cls-1">
            <path class="cls-3"
                  d="M10.93,13.45h-1.68v-1.68h1.68c.5,0,.84.34.84.84s-.34.84-.84.84M10.93,10.93h-2.52v5.89h.84v-2.52h1.68c.93,0,1.68-.76,1.68-1.68s-.76-1.68-1.68-1.68"/>
            <path class="cls-3"
                  d="M16.81,15.13c0,.5-.34.84-.84.84h-1.68v-4.2h1.68c.5,0,.84.34.84.84v2.52ZM15.97,10.93h-2.52v5.89h2.52c.92,0,1.68-.76,1.68-1.68v-2.52c0-.92-.76-1.68-1.68-1.68"/>
            <path class="cls-3"
                  d="M24.38,16.81c0,.93-.76,1.68-1.68,1.68h-14.29c-.93,0-1.68-.76-1.68-1.68v-5.88c0-.93.76-1.68,1.68-1.68h14.29c.92,0,1.68.76,1.68,1.68v5.88ZM15.13,21.02c0,.42-.34.84-.84.84H1.68c-.42,0-.84-.34-.84-.84V1.68c0-.42.34-.84.84-.84h8.41v4.2c0,.93.76,1.68,1.68,1.68h3.36v1.68h-6.73c-1.43,0-2.52,1.09-2.52,2.52v5.88c0,1.43,1.09,2.52,2.52,2.52h6.73v1.68ZM10.93,1.26l3.95,4.62h-3.11c-.42,0-.84-.42-.84-.84V1.26ZM22.7,8.41h-6.73v-2.52L10.93,0H1.68C.76,0,0,.76,0,1.68v19.34c0,.93.76,1.68,1.68,1.68h12.61c.92,0,1.68-.76,1.68-1.68v-1.68h6.73c1.43,0,2.52-1.09,2.52-2.52v-5.88c0-1.43-1.09-2.52-2.52-2.52"/>
        </g>
        <polygon class="cls-3"
                 points="18.5 16.81 19.34 16.81 19.34 14.29 21.86 14.29 21.86 13.45 19.34 13.45 19.34 11.77 22.7 11.77 22.7 10.93 18.5 10.93 18.5 16.81"/>
    </g>
</svg>
