<?xml version="1.0" encoding="UTF-8"?>
<svg id="printer" xmlns="http://www.w3.org/2000/svg" xmlns:xlink="http://www.w3.org/1999/xlink"
        viewBox="0 0 25.01 23.29">
    <defs>
        <style>.cls-1{clip-path:url(#clippath);}.cls-2{fill:none;}.cls-2,.cls-3{stroke-width:0px;}.cls-3{fill:#000;}
        </style>
        <clipPath id="clippath">
            <rect class="cls-2" width="25.01" height="23.29"/>
        </clipPath>
    </defs>
    <g id="Ebene_1-2">
        <rect class="cls-3" x="6.04" y="17.25" width="12.94" height=".86"/>
        <rect class="cls-3" x="6.04" y="19.84" width="12.94" height=".86"/>
        <g class="cls-1">
            <path class="cls-3"
                  d="M24.15,18.11c0,.95-.78,1.73-1.73,1.73h-1.73v-5.18H4.31v5.18h-1.72c-.95,0-1.73-.78-1.73-1.73v-7.76c0-.95.78-1.73,1.73-1.73h19.84c.95,0,1.73.78,1.73,1.73v7.76ZM19.84,21.56c0,.43-.35.86-.86.86H6.04c-.43,0-.86-.35-.86-.86v-6.04h14.66v6.04ZM5.18,1.73c0-.43.34-.86.86-.86h12.94c.43,0,.86.34.86.86v6.04H5.18V1.73ZM22.43,7.76h-1.73V1.73C20.7.78,19.93,0,18.98,0H6.04C5.09,0,4.31.78,4.31,1.73v6.04h-1.72c-1.47,0-2.59,1.12-2.59,2.59v7.76c0,1.47,1.12,2.59,2.59,2.59h1.72v.86c0,.95.78,1.73,1.73,1.73h12.94c.95,0,1.73-.78,1.73-1.73v-.86h1.73c1.47,0,2.59-1.12,2.59-2.59v-7.76c0-1.47-1.12-2.59-2.59-2.59"/>
            <path class="cls-3" d="M19.84,10.35c.48,0,.86.39.86.86s-.39.86-.86.86-.86-.39-.86-.86.39-.86.86-.86"/>
        </g>
    </g>
</svg>
