<?xml version="1.0" encoding="UTF-8"?>
<svg id="xml" xmlns="http://www.w3.org/2000/svg" xmlns:xlink="http://www.w3.org/1999/xlink"
        viewBox="0 0 25.22 22.7">
    <defs>
        <style>.cls-1{clip-path:url(#clippath);}.cls-2{fill:none;}.cls-2,.cls-3{stroke-width:0px;}.cls-3{fill:#000;}
        </style>
        <clipPath id="clippath">
            <rect class="cls-2" width="25.22" height="22.7"/>
        </clipPath>
    </defs>
    <g id="Ebene_1-2">
        <polygon class="cls-3"
                 points="11.77 10.93 10.51 13.12 9.25 10.93 8.41 10.93 10.09 13.87 8.41 16.81 9.25 16.81 10.51 14.63 11.77 16.81 12.61 16.81 10.93 13.87 12.61 10.93 11.77 10.93"/>
        <g class="cls-1">
            <path class="cls-3"
                  d="M24.38,16.81c0,.93-.76,1.68-1.68,1.68h-14.29c-.93,0-1.68-.76-1.68-1.68v-5.88c0-.93.76-1.68,1.68-1.68h14.29c.92,0,1.68.76,1.68,1.68v5.88ZM15.13,21.02c0,.42-.34.84-.84.84H1.68c-.42,0-.84-.34-.84-.84V1.68c0-.42.34-.84.84-.84h8.41v4.2c0,.92.76,1.68,1.68,1.68h3.36v1.68h-6.73c-1.43,0-2.52,1.09-2.52,2.52v5.88c0,1.43,1.09,2.52,2.52,2.52h6.73v1.68ZM10.93,1.26l3.95,4.62h-3.11c-.42,0-.84-.42-.84-.84V1.26ZM22.7,8.41h-6.73v-2.52L10.93,0H1.68C.76,0,0,.76,0,1.68v19.34c0,.93.76,1.68,1.68,1.68h12.61c.92,0,1.68-.76,1.68-1.68v-1.68h6.73c1.43,0,2.52-1.09,2.52-2.52v-5.88c0-1.43-1.09-2.52-2.52-2.52"/>
        </g>
        <polygon class="cls-3"
                 points="16.81 10.93 15.55 13.45 14.29 10.93 13.87 10.93 13.45 10.93 13.45 16.81 14.29 16.81 14.29 12.61 15.13 14.29 15.55 14.29 15.97 14.29 16.81 12.61 16.81 16.81 17.66 16.81 17.66 10.93 17.23 10.93 16.81 10.93"/>
        <polygon class="cls-3"
                 points="19.34 10.93 18.5 10.93 18.5 16.81 22.7 16.81 22.7 15.97 19.34 15.97 19.34 10.93"/>
    </g>
</svg>
