<?xml version="1.0" standalone="no"?>
<!DOCTYPE svg PUBLIC "-//W3C//DTD SVG 20010904//EN"
 "http://www.w3.org/TR/2001/REC-SVG-20010904/DTD/svg10.dtd">
<svg version="1.0" xmlns="http://www.w3.org/2000/svg"
 width="700.000000pt" height="700.000000pt" viewBox="0 0 700.000000 700.000000"
 preserveAspectRatio="xMidYMid meet">
<metadata>
Created by potrace 1.14, written by Peter Selinger 2001-2017
</metadata>
<g transform="translate(0.000000,700.000000) scale(0.100000,-0.100000)"
fill="#000000" stroke="none">
<path d="M0 3500 l0 -3500 3500 0 3500 0 0 3500 0 3500 -3500 0 -3500 0 0
-3500z m4397 1975 l886 -555 149 0 148 0 0 -280 0 -280 -110 -220 -110 -220 0
-1465 0 -1465 -440 0 -440 0 0 1114 0 1115 -79 30 c-491 189 -1311 189 -1802
0 l-79 -30 0 -1115 0 -1114 -440 0 -440 0 0 1465 0 1465 -110 220 -110 220 0
280 0 280 148 0 148 0 884 554 c487 305 891 555 898 555 7 1 411 -249 899
-554z"/>
<path d="M2630 5235 l-855 -535 -67 0 -68 0 0 -110 0 -110 1860 0 1860 0 0
110 0 110 -68 0 -68 0 -850 531 c-467 293 -858 533 -869 535 -13 2 -331 -191
-875 -531z"/>
<path d="M1710 4265 c0 -3 24 -52 52 -110 l53 -105 1685 0 1685 0 53 105 c28
58 52 107 52 110 0 3 -805 5 -1790 5 -984 0 -1790 -2 -1790 -5z"/>
<path d="M1860 2515 l0 -1315 220 0 220 0 0 1075 0 1075 113 54 c567 276 1653
271 2197 -9 l90 -47 0 -1074 0 -1074 220 0 220 0 0 1315 0 1315 -1640 0 -1640
0 0 -1315z"/>
</g>
</svg>
